# Exported by SolidWorks
g 
v 13.87810986 31.86236694 29.58999947
v 10.73743962 33.05242956 29.58999947
v 0.33870377 -23.85719493 29.58999947
v 1.76906527 -34.70540419 29.58999947
v 0.33870377 -27.59680524 29.58999947
v 0.00900666 -27.62565017 29.58999947
v 7.26601342 27.29601040 29.58999947
v 7.18402350 27.16221474 29.58999947
v 6.53144112 26.76231228 29.58999947
v 0.00900666 -23.82835001 29.58999947
v 6.68402389 26.79894306 29.58999947
v 6.82899728 26.85899287 29.58999947
v 21.06881328 11.40904985 29.58999947
v 20.83479241 11.64307259 29.58999947
v 0.65838319 -23.94285239 29.58999947
v 20.64496279 11.91417500 29.58999947
v -7.12303771 27.10721269 29.58999947
v -21.94153145 14.73330520 29.58999947
v -21.62185311 14.64764774 29.58999947
v 7.32606323 27.44098380 29.58999947
v 7.36269495 27.59356610 29.58999947
v -1.75105198 -34.70539674 29.58999947
v -34.57868844 3.35465628 29.58999947
v -1.44544360 -24.50657077 29.58999947
v -34.09329802 6.67797634 29.58999947
v -1.21142203 -24.27254990 29.58999947
v -33.28934684 9.93891619 29.58999947
v -32.17435256 13.10701389 29.58999947
v -22.27122895 14.76215012 29.58999947
v 7.08211353 27.04289369 29.58999947
v 6.96279202 26.94098279 29.58999947
v 19.74266209 28.60324085 29.58999947
v 21.06881328 14.31795023 29.58999947
v 21.33991756 14.50777892 29.58999947
v 30.77674098 16.15267806 29.58999947
v 29.07370962 19.04745586 29.58999947
v 23.74369279 14.08392843 29.58999947
v 33.30736235 9.93891619 29.58999947
v 32.19236806 13.10701389 29.58999947
v 24.18789268 12.86350004 29.58999947
v 20.50509490 12.21412327 29.58999947
v 20.41943744 12.53380254 29.58999947
v 20.39059252 12.86350004 29.58999947
v 20.41943744 13.19319755 29.58999947
v 20.50509490 13.51287682 29.58999947
v 20.64496279 13.81282508 29.58999947
v 20.83479241 14.08392843 29.58999947
v 21.63986489 14.64764774 29.58999947
v 21.95954509 14.73330520 29.58999947
v 22.41176181 26.56462044 29.58999947
v 22.28924260 14.76215012 29.58999947
v 24.87159334 24.27785657 29.58999947
v -20.62694915 13.81282508 29.58999947
v -20.48708126 13.51287682 29.58999947
v -6.99978042 26.98395588 29.58999947
v -0.32069045 -23.85719493 29.58999947
v -20.81677876 11.64307259 29.58999947
v -7.22301891 27.24999934 29.58999947
v -7.29668606 27.40797959 29.58999947
v -22.39374816 26.56462044 29.58999947
v -23.72567914 11.64307259 29.58999947
v -23.91550876 11.91417500 29.58999947
v -24.05537665 12.21412327 29.58999947
v -24.14103225 12.53380254 29.58999947
v -29.05569598 19.04745586 29.58999947
v -23.49165827 14.31795023 29.58999947
v -27.08116546 21.76430821 29.58999947
v -23.22055399 14.50777892 29.58999947
v -24.85357970 24.27785657 29.58999947
v -22.60092646 14.73330520 29.58999947
v -22.92060480 14.64764774 29.58999947
v 23.93352054 13.81282508 29.58999947
v 24.07339029 13.51287682 29.58999947
v 24.15904775 13.19319755 29.58999947
v 16.88922569 30.37467226 29.58999947
v 6.37500687 26.75000019 29.58999947
v -6.35699322 26.75000019 29.58999947
v -6.53064158 26.76519193 29.58999947
v -6.85699331 26.88397467 29.58999947
v -22.60092646 10.99369489 29.58999947
v -22.27122895 10.96484996 29.58999947
v -21.94153145 10.99369489 29.58999947
v -7.34180119 27.57635154 29.58999947
v -7.35699339 27.75000036 29.58999947
v -19.72464845 28.60324085 29.58999947
v -16.87121391 30.37467226 29.58999947
v -7.38824019 33.90870988 29.58999947
v -7.40089780 33.91887993 29.58999947
v -7.35699339 33.83609653 29.58999947
v -24.16987903 12.86350004 29.58999947
v -24.14103225 13.19319755 29.58999947
v -30.75872734 16.15267806 29.58999947
v -24.05537665 13.51287682 29.58999947
v -23.91550876 13.81282508 29.58999947
v -23.72567914 14.08392843 29.58999947
v 7.46423611 33.93551335 29.58999947
v 7.44828954 33.93245861 29.58999947
v 7.40625337 33.90870988 29.58999947
v 7.43304659 33.92686695 29.58999947
v 7.41891097 33.91887993 29.58999947
v 7.39540858 33.89662877 29.58999947
v 7.38666207 33.88294950 29.58999947
v 7.49655347 33.93374756 29.58999947
v 7.38024432 33.86803344 29.58999947
v 22.61894010 14.73330520 29.58999947
v 22.93861844 14.64764774 29.58999947
v 27.09917724 21.76430821 29.58999947
v 23.23856764 14.50777892 29.58999947
v 23.50967005 14.31795023 29.58999947
v -0.32069045 -27.59680524 29.58999947
v -0.64036989 -27.51114778 29.58999947
v -5.25310868 -34.34927389 29.58999947
v -0.94031834 -27.37127990 29.58999947
v -8.70116893 -33.64067897 29.58999947
v -6.69901352 26.81030706 29.58999947
v -20.40142380 13.19319755 29.58999947
v -20.37257887 12.86350004 29.58999947
v -20.40142380 12.53380254 29.58999947
v -20.48708126 12.21412327 29.58999947
v -20.62694915 11.91417500 29.58999947
v -22.92060480 11.07935235 29.58999947
v -23.22055399 11.21922117 29.58999947
v -23.49165827 11.40904985 29.58999947
v -10.71942691 33.05242956 29.58999947
v -13.86009715 31.86236694 29.58999947
v -7.36223115 33.86803344 29.58999947
v -7.36864842 33.88294950 29.58999947
v -7.37739541 33.89662877 29.58999947
v 7.48046674 33.93594176 29.58999947
v 7.37632485 33.85227919 29.58999947
v 7.37500656 33.83609653 29.58999947
v 7.37500656 27.75000036 29.58999947
v 24.15904775 12.53380254 29.58999947
v 24.07339029 12.21412327 29.58999947
v 34.11130980 6.67797634 29.58999947
v 23.93352054 11.91417500 29.58999947
v 34.59670395 3.35465628 29.58999947
v 23.74369279 11.64307259 29.58999947
v 34.75900739 -0.00000000 29.58999947
v 23.50967005 11.40904985 29.58999947
v -1.86079857 -25.39730258 29.58999947
v -1.77514076 -25.07762425 29.58999947
v -30.37453815 -16.86424389 29.58999947
v 21.33991756 11.21922117 29.58999947
v 0.95833169 -24.08272028 29.58999947
v 21.63986489 11.07935235 29.58999947
v 1.22943532 -24.27254990 29.58999947
v 21.95954509 10.99369489 29.58999947
v -1.21142203 -27.18145028 29.58999947
v -1.44544360 -26.94742940 29.58999947
v -12.05985062 -32.58688748 29.58999947
v -1.63527252 -26.67632513 29.58999947
v -15.29468969 -31.19870834 29.58999947
v -1.77514076 -26.37637593 29.58999947
v -18.37249286 -29.49038707 29.58999947
v -1.86079857 -26.05669759 29.58999947
v -21.26167715 -27.47945674 29.58999947
v -1.88964338 -25.72700009 29.58999947
v -28.51252258 -19.85157095 29.58999947
v -26.35783888 -22.63519354 29.58999947
v -23.93259294 -25.18654987 29.58999947
v -1.63527252 -24.77767505 29.58999947
v -33.14733133 -10.40286850 29.58999947
v -31.92477673 -13.70386593 29.58999947
v -7.35831121 33.85227919 29.58999947
v -7.41503388 33.92686695 29.58999947
v -7.43027637 33.93245861 29.58999947
v -7.44622294 33.93551335 29.58999947
v -7.46245356 33.93594176 29.58999947
v -7.47854030 33.93374756 29.58999947
v 22.93861844 11.07935235 29.58999947
v 33.16534683 -10.40286850 29.58999947
v 23.23856764 11.21922117 29.58999947
v 34.04767066 -6.99512335 29.58999947
v 34.58071500 -3.51559930 29.58999947
v 22.61894010 10.99369489 29.58999947
v 30.39255179 -16.86424389 29.58999947
v 31.94279224 -13.70386593 29.58999947
v 21.27968892 -27.47945674 29.58999947
v 23.95060658 -25.18654987 29.58999947
v 22.28924260 10.96484996 29.58999947
v 26.37585066 -22.63519354 29.58999947
v 28.53053622 -19.85157095 29.58999947
v 8.71918257 -33.64067897 29.58999947
v 1.22943532 -27.18145028 29.58999947
v 5.27112186 -34.34927389 29.58999947
v 0.95833169 -27.37127990 29.58999947
v 0.65838319 -27.51114778 29.58999947
v -34.74099189 -0.00000000 29.58999947
v -34.56270322 -3.51559930 29.58999947
v -34.02965888 -6.99512335 29.58999947
v -21.32190391 14.50777892 29.58999947
v -21.05079964 14.31795023 29.58999947
v -20.81677876 14.08392843 29.58999947
v 1.46345689 -24.50657077 29.58999947
v 1.65328581 -24.77767505 29.58999947
v 1.79315405 -25.07762425 29.58999947
v 15.31270333 -31.19870834 29.58999947
v 1.87881186 -25.39730258 29.58999947
v 1.90765667 -25.72700009 29.58999947
v 18.39050651 -29.49038707 29.58999947
v 1.87881186 -26.05669759 29.58999947
v 1.79315405 -26.37637593 29.58999947
v 12.07786426 -32.58688748 29.58999947
v 1.65328581 -26.67632513 29.58999947
v 1.46345689 -26.94742940 29.58999947
v -0.64036989 -23.94285239 29.58999947
v -21.05079964 11.40904985 29.58999947
v -0.94031834 -24.08272028 29.58999947
v -21.32190391 11.21922117 29.58999947
v -21.62185311 11.07935235 29.58999947
v 7.49655347 33.93374756 28.58999930
v 10.73743962 33.05242956 28.58999930
v 13.87810986 31.86236694 28.58999930
v 16.88922569 30.37467226 28.58999930
v 19.74266209 28.60324085 28.58999930
v 22.41176181 26.56462044 28.58999930
v 24.87159334 24.27785657 28.58999930
v 27.09917724 21.76430821 28.58999930
v 29.07370962 19.04745586 28.58999930
v 30.77674098 16.15267806 28.58999930
v 32.19236806 13.10701389 28.58999930
v 33.30736235 9.93891619 28.58999930
v 34.11130980 6.67797634 28.58999930
v 34.59670395 3.35465628 28.58999930
v 34.75900739 -0.00000000 28.58999930
v -6.35699322 26.75000019 28.58999930
v 6.37500687 26.75000019 28.58999930
v 34.58071500 -3.51559930 28.58999930
v 34.04767066 -6.99512335 28.58999930
v 33.16534683 -10.40286850 28.58999930
v 31.94279224 -13.70386593 28.58999930
v 30.39255179 -16.86424389 28.58999930
v 28.53053622 -19.85157095 28.58999930
v 26.37585066 -22.63519354 28.58999930
v 23.95060658 -25.18654987 28.58999930
v 21.27968892 -27.47945674 28.58999930
v 18.39050651 -29.49038707 28.58999930
v 15.31270333 -31.19870834 28.58999930
v 12.07786426 -32.58688748 28.58999930
v 8.71918257 -33.64067897 28.58999930
v 5.27112186 -34.34927389 28.58999930
v 1.76906527 -34.70540419 28.58999930
v -1.75105198 -34.70539674 28.58999930
v -5.25310868 -34.34927389 28.58999930
v -8.70116893 -33.64067897 28.58999930
v -12.05985062 -32.58688748 28.58999930
v -15.29468969 -31.19870834 28.58999930
v -18.37249286 -29.49038707 28.58999930
v -21.26167715 -27.47945674 28.58999930
v -23.93259294 -25.18654987 28.58999930
v -26.35783888 -22.63519354 28.58999930
v -28.51252258 -19.85157095 28.58999930
v -30.37453815 -16.86424389 28.58999930
v -31.92477673 -13.70386593 28.58999930
v -33.14733133 -10.40286850 28.58999930
v -34.02965888 -6.99512335 28.58999930
v -34.56270322 -3.51559930 28.58999930
v -34.74099189 -0.00000000 28.58999930
v -34.57868844 3.35465628 28.58999930
v -34.09329802 6.67797634 28.58999930
v -33.28934684 9.93891619 28.58999930
v -32.17435256 13.10701389 28.58999930
v -30.75872734 16.15267806 28.58999930
v -29.05569598 19.04745586 28.58999930
v -27.08116546 21.76430821 28.58999930
v -24.85357970 24.27785657 28.58999930
v -22.39374816 26.56462044 28.58999930
v -19.72464845 28.60324085 28.58999930
v -16.87121391 30.37467226 28.58999930
v -13.86009715 31.86236694 28.58999930
v -10.71942691 33.05242956 28.58999930
v -7.47854030 33.93374756 28.58999930
v -7.35699339 27.75000036 28.58999930
v -7.35699339 33.83609653 28.58999930
v 7.37500656 27.75000036 28.58999930
v 7.37500656 33.83609653 28.58999930
v -7.46245356 33.93594176 28.58999930
v -7.44622294 33.93551335 28.58999930
v -7.43027637 33.93245861 28.58999930
v -7.41503388 33.92686695 28.58999930
v -7.40089780 33.91887993 28.58999930
v -7.38824019 33.90870988 28.58999930
v -7.37739541 33.89662877 28.58999930
v -7.36864842 33.88294950 28.58999930
v -7.36223115 33.86803344 28.58999930
v -7.35831121 33.85227919 28.58999930
v 7.37632485 33.85227919 28.58999930
v 7.38024432 33.86803344 28.58999930
v 7.38666207 33.88294950 28.58999930
v 7.39540858 33.89662877 28.58999930
v 7.40625337 33.90870988 28.58999930
v 7.41891097 33.91887993 28.58999930
v 7.43304659 33.92686695 28.58999930
v 7.44828954 33.93245861 28.58999930
v 7.46423611 33.93551335 28.58999930
v 7.48046674 33.93594176 28.58999930
v -7.34180119 27.57635154 28.58999930
v -7.29668606 27.40797959 28.58999930
v -7.22301891 27.24999934 28.58999930
v -7.12303771 27.10721269 28.58999930
v -6.99978042 26.98395588 28.58999930
v -6.85699331 26.88397467 28.58999930
v -6.69901352 26.81030706 28.58999930
v -6.53064158 26.76519193 28.58999930
v 6.53144112 26.76231228 28.58999930
v 6.68402389 26.79894306 28.58999930
v 6.82899728 26.85899287 28.58999930
v 6.96279202 26.94098279 28.58999930
v 7.08211353 27.04289369 28.58999930
v 7.18402350 27.16221474 28.58999930
v 7.26601342 27.29601040 28.58999930
v 7.32606323 27.44098380 28.58999930
v 7.36269495 27.59356610 28.58999930
v 0.00900666 -23.82835001 28.58999930
v 0.33870377 -23.85719493 28.58999930
v 0.65838319 -23.94285239 28.58999930
v 0.95833169 -24.08272028 28.58999930
v 1.22943532 -24.27254990 28.58999930
v 1.46345689 -24.50657077 28.58999930
v 1.65328581 -24.77767505 28.58999930
v 1.79315405 -25.07762425 28.58999930
v 1.87881186 -25.39730258 28.58999930
v 1.90765667 -25.72700009 28.58999930
v 1.87881186 -26.05669759 28.58999930
v 1.79315405 -26.37637593 28.58999930
v 1.65328581 -26.67632513 28.58999930
v 1.46345689 -26.94742940 28.58999930
v 1.22943532 -27.18145028 28.58999930
v 0.95833169 -27.37127990 28.58999930
v 0.65838319 -27.51114778 28.58999930
v 0.33870377 -27.59680524 28.58999930
v 0.00900666 -27.62565017 28.58999930
v -0.32069045 -27.59680524 28.58999930
v -0.64036989 -27.51114778 28.58999930
v -0.94031834 -27.37127990 28.58999930
v -1.21142203 -27.18145028 28.58999930
v -1.44544360 -26.94742940 28.58999930
v -1.63527252 -26.67632513 28.58999930
v -1.77514076 -26.37637593 28.58999930
v -1.86079857 -26.05669759 28.58999930
v -1.88964338 -25.72700009 28.58999930
v -1.86079857 -25.39730258 28.58999930
v -1.77514076 -25.07762425 28.58999930
v -1.63527252 -24.77767505 28.58999930
v -1.44544360 -24.50657077 28.58999930
v -1.21142203 -24.27254990 28.58999930
v -0.94031834 -24.08272028 28.58999930
v -0.64036989 -23.94285239 28.58999930
v -0.32069045 -23.85719493 28.58999930
v -22.27122895 14.76215012 28.58999930
v -21.94153145 14.73330520 28.58999930
v -21.62185311 14.64764774 28.58999930
v -21.32190391 14.50777892 28.58999930
v -21.05079964 14.31795023 28.58999930
v -20.81677876 14.08392843 28.58999930
v -20.62694915 13.81282508 28.58999930
v -20.48708126 13.51287682 28.58999930
v -20.40142380 13.19319755 28.58999930
v -20.37257887 12.86350004 28.58999930
v -20.40142380 12.53380254 28.58999930
v -20.48708126 12.21412327 28.58999930
v -20.62694915 11.91417500 28.58999930
v -20.81677876 11.64307259 28.58999930
v -21.05079964 11.40904985 28.58999930
v -21.32190391 11.21922117 28.58999930
v -21.62185311 11.07935235 28.58999930
v -21.94153145 10.99369489 28.58999930
v -22.27122895 10.96484996 28.58999930
v -22.60092646 10.99369489 28.58999930
v -22.92060480 11.07935235 28.58999930
v -23.22055399 11.21922117 28.58999930
v -23.49165827 11.40904985 28.58999930
v -23.72567914 11.64307259 28.58999930
v -23.91550876 11.91417500 28.58999930
v -24.05537665 12.21412327 28.58999930
v -24.14103225 12.53380254 28.58999930
v -24.16987903 12.86350004 28.58999930
v -24.14103225 13.19319755 28.58999930
v -24.05537665 13.51287682 28.58999930
v -23.91550876 13.81282508 28.58999930
v -23.72567914 14.08392843 28.58999930
v -23.49165827 14.31795023 28.58999930
v -23.22055399 14.50777892 28.58999930
v -22.92060480 14.64764774 28.58999930
v -22.60092646 14.73330520 28.58999930
v 22.28924260 14.76215012 28.58999930
v 22.61894010 14.73330520 28.58999930
v 22.93861844 14.64764774 28.58999930
v 23.23856764 14.50777892 28.58999930
v 23.50967005 14.31795023 28.58999930
v 23.74369279 14.08392843 28.58999930
v 23.93352054 13.81282508 28.58999930
v 24.07339029 13.51287682 28.58999930
v 24.15904775 13.19319755 28.58999930
v 24.18789268 12.86350004 28.58999930
v 24.15904775 12.53380254 28.58999930
v 24.07339029 12.21412327 28.58999930
v 23.93352054 11.91417500 28.58999930
v 23.74369279 11.64307259 28.58999930
v 23.50967005 11.40904985 28.58999930
v 23.23856764 11.21922117 28.58999930
v 22.93861844 11.07935235 28.58999930
v 22.61894010 10.99369489 28.58999930
v 22.28924260 10.96484996 28.58999930
v 21.95954509 10.99369489 28.58999930
v 21.63986489 11.07935235 28.58999930
v 21.33991756 11.21922117 28.58999930
v 21.06881328 11.40904985 28.58999930
v 20.83479241 11.64307259 28.58999930
v 20.64496279 11.91417500 28.58999930
v 20.50509490 12.21412327 28.58999930
v 20.41943744 12.53380254 28.58999930
v 20.39059252 12.86350004 28.58999930
v 20.41943744 13.19319755 28.58999930
v 20.50509490 13.51287682 28.58999930
v 20.64496279 13.81282508 28.58999930
v 20.83479241 14.08392843 28.58999930
v 21.06881328 14.31795023 28.58999930
v 21.33991756 14.50777892 28.58999930
v 21.63986489 14.64764774 28.58999930
v 21.95954509 14.73330520 28.58999930
f 1 2 3
f 4 5 6
f 7 8 3
f 9 10 11
f 11 10 3
f 11 3 12
f 13 14 15
f 15 14 16
f 17 18 19
f 7 3 20
f 20 3 2
f 20 2 21
f 4 6 22
f 23 24 25
f 25 24 26
f 25 26 27
f 27 26 28
f 18 17 29
f 8 30 3
f 3 30 31
f 3 31 12
f 32 33 34
f 35 36 37
f 38 39 40
f 16 41 15
f 15 41 42
f 15 42 43
f 44 45 32
f 45 46 32
f 32 46 47
f 32 47 33
f 34 48 32
f 32 48 49
f 32 49 50
f 50 49 51
f 50 51 52
f 53 54 55
f 56 10 57
f 58 59 60
f 61 62 28
f 28 62 63
f 28 63 64
f 65 66 67
f 67 66 68
f 67 68 69
f 17 58 29
f 29 58 60
f 29 60 70
f 70 60 69
f 70 69 71
f 71 69 68
f 37 72 35
f 35 72 73
f 35 73 39
f 39 73 74
f 39 74 40
f 43 44 15
f 15 44 32
f 15 32 3
f 3 32 75
f 3 75 1
f 9 76 10
f 10 76 77
f 10 77 78
f 55 54 79
f 80 26 81
f 81 26 82
f 59 83 60
f 60 83 84
f 60 84 85
f 85 84 86
f 87 88 89
f 64 90 28
f 28 90 91
f 28 91 92
f 91 93 92
f 92 93 94
f 92 94 65
f 65 94 95
f 65 95 66
f 96 97 98
f 98 97 99
f 98 99 100
f 101 102 103
f 103 102 104
f 51 105 52
f 52 105 106
f 52 106 107
f 107 106 108
f 107 108 36
f 36 108 109
f 36 109 37
f 6 110 22
f 22 110 111
f 22 111 112
f 112 111 113
f 112 113 114
f 79 54 115
f 115 54 116
f 115 116 117
f 117 118 115
f 115 118 119
f 115 119 78
f 78 119 10
f 10 119 120
f 10 120 57
f 80 121 26
f 26 121 122
f 26 122 28
f 28 122 123
f 28 123 61
f 89 124 84
f 84 124 125
f 84 125 86
f 126 127 128
f 101 103 98
f 98 103 129
f 98 129 96
f 104 130 103
f 103 130 131
f 103 131 2
f 2 131 132
f 2 132 21
f 40 133 38
f 38 133 134
f 38 134 135
f 135 134 136
f 135 136 137
f 137 136 138
f 137 138 139
f 139 138 140
f 141 142 143
f 13 15 144
f 144 15 145
f 144 145 146
f 146 145 147
f 146 147 148
f 113 149 114
f 114 149 150
f 114 150 151
f 151 150 152
f 151 152 153
f 153 152 154
f 153 154 155
f 155 154 156
f 155 156 157
f 157 156 158
f 143 159 141
f 141 159 160
f 141 160 158
f 158 160 161
f 158 161 157
f 162 163 142
f 142 163 164
f 142 164 143
f 87 89 128
f 128 89 165
f 128 165 126
f 88 166 89
f 89 166 167
f 89 167 168
f 168 169 89
f 89 169 170
f 89 170 124
f 171 172 173
f 173 172 174
f 173 174 140
f 140 174 175
f 140 175 139
f 176 177 171
f 171 177 178
f 171 178 172
f 179 180 181
f 181 180 182
f 181 182 176
f 176 182 183
f 176 183 177
f 184 185 186
f 186 185 187
f 186 187 4
f 4 187 188
f 4 188 5
f 23 189 24
f 24 189 190
f 24 190 162
f 162 190 191
f 162 191 163
f 19 192 17
f 17 192 193
f 17 193 55
f 55 193 194
f 55 194 53
f 147 195 148
f 148 195 196
f 148 196 197
f 198 199 200
f 179 181 201
f 201 181 148
f 201 148 198
f 198 148 197
f 198 197 199
f 200 202 198
f 198 202 203
f 198 203 204
f 204 203 205
f 204 205 184
f 184 205 206
f 184 206 185
f 56 57 207
f 207 57 208
f 207 208 209
f 209 208 210
f 209 210 26
f 26 210 211
f 26 211 82
f 212 103 2
f 212 2 213
f 213 2 1
f 213 1 214
f 214 1 75
f 214 75 215
f 215 75 32
f 215 32 216
f 216 32 50
f 216 50 217
f 217 50 52
f 217 52 218
f 218 52 107
f 218 107 219
f 219 107 36
f 219 36 220
f 220 36 35
f 220 35 221
f 221 35 39
f 221 39 222
f 222 39 38
f 222 38 223
f 223 38 135
f 223 135 224
f 224 135 137
f 224 137 225
f 225 137 139
f 225 139 226
f 227 77 228
f 228 77 76
f 226 139 175
f 226 175 229
f 229 175 174
f 229 174 230
f 230 174 172
f 230 172 231
f 231 172 178
f 231 178 232
f 232 178 177
f 232 177 233
f 233 177 183
f 233 183 234
f 234 183 182
f 234 182 235
f 235 182 180
f 235 180 236
f 236 180 179
f 236 179 237
f 237 179 201
f 237 201 238
f 238 201 198
f 238 198 239
f 239 198 204
f 239 204 240
f 240 204 184
f 240 184 241
f 241 184 186
f 241 186 242
f 242 186 4
f 242 4 243
f 243 4 22
f 243 22 244
f 244 22 112
f 244 112 245
f 245 112 114
f 245 114 246
f 246 114 151
f 246 151 247
f 247 151 153
f 247 153 248
f 248 153 155
f 248 155 249
f 249 155 157
f 249 157 250
f 250 157 161
f 250 161 251
f 251 161 160
f 251 160 252
f 252 160 159
f 252 159 253
f 253 159 143
f 253 143 254
f 254 143 164
f 254 164 255
f 255 164 163
f 255 163 256
f 256 163 191
f 256 191 257
f 257 191 190
f 257 190 258
f 258 190 189
f 258 189 259
f 259 189 23
f 259 23 260
f 260 23 25
f 260 25 261
f 261 25 27
f 261 27 262
f 262 27 28
f 262 28 263
f 263 28 92
f 263 92 264
f 264 92 65
f 264 65 265
f 265 65 67
f 265 67 266
f 266 67 69
f 266 69 267
f 267 69 60
f 267 60 268
f 268 60 85
f 268 85 269
f 269 85 86
f 269 86 270
f 270 86 125
f 270 125 271
f 271 125 124
f 271 124 272
f 272 124 170
f 272 170 273
f 274 275 84
f 84 275 89
f 276 132 277
f 277 132 131
f 273 170 169
f 273 169 278
f 278 169 168
f 278 168 279
f 279 168 167
f 279 167 280
f 280 167 166
f 280 166 281
f 281 166 88
f 281 88 282
f 282 88 87
f 282 87 283
f 283 87 128
f 283 128 284
f 284 128 127
f 284 127 285
f 285 127 126
f 285 126 286
f 286 126 165
f 286 165 287
f 287 165 89
f 287 89 275
f 277 131 130
f 277 130 288
f 288 130 104
f 288 104 289
f 289 104 102
f 289 102 290
f 290 102 101
f 290 101 291
f 291 101 98
f 291 98 292
f 292 98 100
f 292 100 293
f 293 100 99
f 293 99 294
f 294 99 97
f 294 97 295
f 295 97 96
f 295 96 296
f 296 96 129
f 296 129 297
f 297 129 103
f 297 103 212
f 274 84 298
f 298 84 83
f 298 83 299
f 299 83 59
f 299 59 300
f 300 59 58
f 300 58 301
f 301 58 17
f 301 17 302
f 302 17 55
f 302 55 303
f 303 55 79
f 303 79 304
f 304 79 115
f 304 115 305
f 305 115 78
f 305 78 227
f 227 78 77
f 228 76 306
f 306 76 9
f 306 9 307
f 307 9 11
f 307 11 308
f 308 11 12
f 308 12 309
f 309 12 31
f 309 31 310
f 310 31 30
f 310 30 311
f 311 30 8
f 311 8 312
f 312 8 7
f 312 7 313
f 313 7 20
f 313 20 314
f 314 20 21
f 314 21 276
f 276 21 132
f 10 315 3
f 3 315 316
f 3 316 15
f 15 316 317
f 15 317 145
f 145 317 318
f 145 318 147
f 147 318 319
f 147 319 195
f 195 319 320
f 195 320 196
f 196 320 321
f 196 321 197
f 197 321 322
f 197 322 199
f 199 322 323
f 199 323 200
f 200 323 324
f 200 324 202
f 202 324 325
f 202 325 203
f 203 325 326
f 203 326 205
f 205 326 327
f 205 327 206
f 206 327 328
f 206 328 185
f 185 328 329
f 185 329 187
f 187 329 330
f 187 330 188
f 188 330 331
f 188 331 5
f 5 331 332
f 5 332 6
f 6 332 333
f 6 333 110
f 110 333 334
f 110 334 111
f 111 334 335
f 111 335 113
f 113 335 336
f 113 336 149
f 149 336 337
f 149 337 150
f 150 337 338
f 150 338 152
f 152 338 339
f 152 339 154
f 154 339 340
f 154 340 156
f 156 340 341
f 156 341 158
f 158 341 342
f 158 342 141
f 141 342 343
f 141 343 142
f 142 343 344
f 142 344 162
f 162 344 345
f 162 345 24
f 24 345 346
f 24 346 26
f 26 346 347
f 26 347 209
f 209 347 348
f 209 348 207
f 207 348 349
f 207 349 56
f 56 349 350
f 56 350 10
f 10 350 315
f 29 351 18
f 18 351 352
f 18 352 19
f 19 352 353
f 19 353 192
f 192 353 354
f 192 354 193
f 193 354 355
f 193 355 194
f 194 355 356
f 194 356 53
f 53 356 357
f 53 357 54
f 54 357 358
f 54 358 116
f 116 358 359
f 116 359 117
f 117 359 360
f 117 360 118
f 118 360 361
f 118 361 119
f 119 361 362
f 119 362 120
f 120 362 363
f 120 363 57
f 57 363 364
f 57 364 208
f 208 364 365
f 208 365 210
f 210 365 366
f 210 366 211
f 211 366 367
f 211 367 82
f 82 367 368
f 82 368 81
f 81 368 369
f 81 369 80
f 80 369 370
f 80 370 121
f 121 370 371
f 121 371 122
f 122 371 372
f 122 372 123
f 123 372 373
f 123 373 61
f 61 373 374
f 61 374 62
f 62 374 375
f 62 375 63
f 63 375 376
f 63 376 64
f 64 376 377
f 64 377 90
f 90 377 378
f 90 378 91
f 91 378 379
f 91 379 93
f 93 379 380
f 93 380 94
f 94 380 381
f 94 381 95
f 95 381 382
f 95 382 66
f 66 382 383
f 66 383 68
f 68 383 384
f 68 384 71
f 71 384 385
f 71 385 70
f 70 385 386
f 70 386 29
f 29 386 351
f 51 387 105
f 105 387 388
f 105 388 106
f 106 388 389
f 106 389 108
f 108 389 390
f 108 390 109
f 109 390 391
f 109 391 37
f 37 391 392
f 37 392 72
f 72 392 393
f 72 393 73
f 73 393 394
f 73 394 74
f 74 394 395
f 74 395 40
f 40 395 396
f 40 396 133
f 133 396 397
f 133 397 134
f 134 397 398
f 134 398 136
f 136 398 399
f 136 399 138
f 138 399 400
f 138 400 140
f 140 400 401
f 140 401 173
f 173 401 402
f 173 402 171
f 171 402 403
f 171 403 176
f 176 403 404
f 176 404 181
f 181 404 405
f 181 405 148
f 148 405 406
f 148 406 146
f 146 406 407
f 146 407 144
f 144 407 408
f 144 408 13
f 13 408 409
f 13 409 14
f 14 409 410
f 14 410 16
f 16 410 411
f 16 411 41
f 41 411 412
f 41 412 42
f 42 412 413
f 42 413 43
f 43 413 414
f 43 414 44
f 44 414 415
f 44 415 45
f 45 415 416
f 45 416 46
f 46 416 417
f 46 417 47
f 47 417 418
f 47 418 33
f 33 418 419
f 33 419 34
f 34 419 420
f 34 420 48
f 48 420 421
f 48 421 49
f 49 421 422
f 49 422 51
f 51 422 387
f 354 353 300
f 300 353 299
f 250 251 369
f 369 251 252
f 369 252 370
f 223 398 397
f 304 364 303
f 303 364 363
f 303 363 362
f 333 243 334
f 334 243 244
f 274 272 275
f 275 272 273
f 270 353 269
f 269 353 352
f 269 352 268
f 268 352 351
f 268 351 267
f 223 397 222
f 397 396 222
f 222 396 395
f 222 395 221
f 395 394 221
f 221 394 393
f 221 393 220
f 250 369 249
f 249 369 368
f 249 368 248
f 299 353 298
f 298 353 270
f 298 270 274
f 274 270 271
f 274 271 272
f 362 361 303
f 303 361 360
f 303 360 359
f 404 403 232
f 401 229 402
f 402 229 230
f 402 230 403
f 403 230 231
f 403 231 232
f 398 223 399
f 399 223 224
f 399 224 400
f 400 224 225
f 400 225 401
f 401 225 226
f 401 226 229
f 416 228 417
f 417 228 418
f 227 228 315
f 359 358 303
f 303 358 357
f 303 357 356
f 351 386 267
f 267 386 385
f 267 385 266
f 266 385 384
f 266 384 265
f 384 383 265
f 265 383 382
f 265 382 264
f 262 263 378
f 252 253 370
f 370 253 254
f 370 254 371
f 393 392 220
f 220 392 391
f 220 391 219
f 219 391 390
f 219 390 218
f 410 315 411
f 411 315 412
f 241 242 407
f 349 364 350
f 350 364 304
f 350 304 315
f 315 304 305
f 315 305 227
f 346 368 347
f 347 368 367
f 347 367 348
f 348 367 366
f 348 366 349
f 349 366 365
f 349 365 364
f 382 381 264
f 264 381 380
f 264 380 263
f 263 380 379
f 263 379 378
f 373 259 374
f 374 259 260
f 374 260 375
f 375 260 261
f 375 261 376
f 376 261 262
f 376 262 377
f 377 262 378
f 254 255 371
f 371 255 256
f 371 256 372
f 372 256 257
f 372 257 373
f 373 257 258
f 373 258 259
f 232 233 404
f 404 233 234
f 404 234 405
f 405 234 235
f 297 212 277
f 277 212 213
f 235 236 405
f 405 236 237
f 405 237 406
f 342 341 248
f 248 341 340
f 248 340 247
f 247 340 339
f 247 339 246
f 280 281 284
f 284 281 282
f 284 282 283
f 280 284 279
f 279 284 285
f 279 285 286
f 273 278 275
f 275 278 279
f 275 279 287
f 287 279 286
f 354 300 355
f 355 300 301
f 355 301 356
f 356 301 302
f 356 302 303
f 276 277 419
f 419 277 213
f 419 213 420
f 420 213 214
f 420 214 421
f 421 214 215
f 421 215 422
f 422 215 216
f 422 216 387
f 387 216 217
f 387 217 388
f 388 217 218
f 388 218 389
f 389 218 390
f 416 415 228
f 228 415 414
f 228 414 315
f 315 414 413
f 315 413 412
f 346 345 368
f 368 345 344
f 368 344 248
f 248 344 343
f 248 343 342
f 312 313 419
f 419 313 314
f 419 314 276
f 330 242 331
f 331 242 243
f 331 243 332
f 332 243 333
f 237 238 406
f 406 238 239
f 406 239 407
f 407 239 240
f 407 240 241
f 339 338 246
f 246 338 337
f 246 337 245
f 245 337 336
f 245 336 244
f 244 336 335
f 244 335 334
f 288 295 277
f 277 295 296
f 277 296 297
f 293 290 292
f 292 290 291
f 288 289 295
f 295 289 290
f 295 290 294
f 294 290 293
f 228 306 418
f 418 306 307
f 418 307 308
f 321 407 322
f 322 407 323
f 308 309 418
f 418 309 310
f 418 310 419
f 419 310 311
f 419 311 312
f 330 329 242
f 242 329 328
f 242 328 327
f 327 326 242
f 242 326 325
f 242 325 407
f 407 325 324
f 407 324 323
f 321 320 407
f 407 320 319
f 407 319 408
f 408 319 318
f 408 318 409
f 409 318 317
f 409 317 410
f 410 317 316
f 410 316 315

