# Exported by SolidWorks
g 
v -0.00000000 -14.99999966 -17.76999794
v -0.00000000 -14.99999966 -5.26999915
v 1.65012327 -14.90896009 -17.76999794
v 1.65012327 -14.90896009 -5.26999915
v 3.28021636 -14.63694591 -17.76999794
v 3.28021636 -14.63694591 -5.26999915
v 4.87049203 -14.18725867 -17.76999794
v 4.87049203 -14.18725867 -5.26999915
v 6.40164642 -13.56535777 -17.76999794
v 6.40164642 -13.56535777 -5.26999915
v 7.85509404 -12.77879067 -17.76999794
v 7.85509404 -12.77879067 -5.26999915
v 9.21319053 -11.83710806 -17.76999794
v 9.21319053 -11.83710806 -5.26999915
v 10.45945194 -10.75173728 -17.76999794
v 10.45945194 -10.75173728 -5.26999915
v 11.57874987 -9.53585654 -17.76999794
v 11.57874987 -9.53585654 -5.26999915
v 12.55749725 -8.20422266 -17.76999794
v 12.55749725 -8.20422266 -5.26999915
v 13.38381320 -6.77300058 -17.76999794
v 13.38381320 -6.77300058 -5.26999915
v 14.04766832 -5.25956322 -17.76999794
v 14.04766832 -5.25956322 -5.26999915
v 14.54100385 -3.68228229 -17.76999794
v 14.54100385 -3.68228229 -5.26999915
v 14.85783141 -2.06030346 -17.76999794
v 14.85783141 -2.06030346 -5.26999915
v 14.99430463 -0.41331514 -17.76999794
v 14.99430463 -0.41331514 -5.26999915
v 14.94876761 1.23869022 -17.76999794
v 14.94876761 1.23869022 -5.26999915
v 14.72177263 2.87565938 -17.76999794
v 14.72177263 2.87565938 -5.26999915
v 14.31607548 4.47772210 -17.76999794
v 14.31607548 4.47772210 -5.26999915
v 13.73660006 6.02543121 -17.76999794
v 13.73660006 6.02543121 -5.26999915
v 12.99038064 7.49999983 -17.76999794
v 12.99038064 7.49999983 -5.26999915
v 12.08647620 8.88352841 -17.76999794
v 12.08647620 8.88352841 -5.26999915
v 11.03585865 10.15922334 -17.76999794
v 11.03585865 10.15922334 -5.26999915
v 9.85128060 11.31159905 -17.76999794
v 9.85128060 11.31159905 -5.26999915
v 8.54712073 12.32666709 -17.76999794
v 8.54712073 12.32666709 -5.26999915
v 7.13921105 13.19210604 -17.76999794
v 7.13921105 13.19210604 -5.26999915
v 5.64464042 13.89741059 -17.76999794
v 5.64464042 13.89741059 -5.26999915
v 4.08155192 14.43402003 -17.76999794
v 4.08155192 14.43402003 -5.26999915
v 2.46891892 14.79541976 -17.76999794
v 2.46891892 14.79541976 -5.26999915
v 0.82631642 14.97722231 -17.76999794
v 0.82631642 14.97722231 -5.26999915
v -0.82631642 14.97722231 -17.76999794
v -0.82631642 14.97722231 -5.26999915
v -2.46891892 14.79541976 -17.76999794
v -2.46891892 14.79541976 -5.26999915
v -4.08155192 14.43402003 -17.76999794
v -4.08155192 14.43402003 -5.26999915
v -5.64464042 13.89741059 -17.76999794
v -5.64464042 13.89741059 -5.26999915
v -7.13921105 13.19210604 -17.76999794
v -7.13921105 13.19210604 -5.26999915
v -8.54712073 12.32666709 -17.76999794
v -8.54712073 12.32666709 -5.26999915
v -9.85128060 11.31159905 -17.76999794
v -9.85128060 11.31159905 -5.26999915
v -11.03585865 10.15922334 -17.76999794
v -11.03585865 10.15922334 -5.26999915
v -12.08647620 8.88352841 -17.76999794
v -12.08647620 8.88352841 -5.26999915
v -12.99038064 7.49999983 -17.76999794
v -12.99038064 7.49999983 -5.26999915
v -13.73660006 6.02543121 -17.76999794
v -13.73660006 6.02543121 -5.26999915
v -14.31607548 4.47772210 -17.76999794
v -14.31607548 4.47772210 -5.26999915
v -14.72177263 2.87565938 -17.76999794
v -14.72177263 2.87565938 -5.26999915
v -14.94876761 1.23869022 -17.76999794
v -14.94876761 1.23869022 -5.26999915
v -14.99430463 -0.41331514 -17.76999794
v -14.99430463 -0.41331514 -5.26999915
v -14.85783141 -2.06030346 -17.76999794
v -14.85783141 -2.06030346 -5.26999915
v -14.54100385 -3.68228229 -17.76999794
v -14.54100385 -3.68228229 -5.26999915
v -14.04766832 -5.25956322 -17.76999794
v -14.04766832 -5.25956322 -5.26999915
v -13.38381320 -6.77300058 -17.76999794
v -13.38381320 -6.77300058 -5.26999915
v -12.55749725 -8.20422266 -17.76999794
v -12.55749725 -8.20422266 -5.26999915
v -11.57874987 -9.53585654 -17.76999794
v -11.57874987 -9.53585654 -5.26999915
v -10.45945194 -10.75173728 -17.76999794
v -10.45945194 -10.75173728 -5.26999915
v -9.21319053 -11.83710806 -17.76999794
v -9.21319053 -11.83710806 -5.26999915
v -7.85509404 -12.77879067 -17.76999794
v -7.85509404 -12.77879067 -5.26999915
v -6.40164642 -13.56535777 -17.76999794
v -6.40164642 -13.56535777 -5.26999915
v -4.87049203 -14.18725867 -17.76999794
v -4.87049203 -14.18725867 -5.26999915
v -3.28021636 -14.63694591 -17.76999794
v -3.28021636 -14.63694591 -5.26999915
v -1.65012327 -14.90896009 -17.76999794
v -1.65012327 -14.90896009 -5.26999915
v -0.87513885 -16.97745919 -5.26999915
v 0.87513885 -16.97745919 -5.26999915
v 2.61613983 -16.79749414 -5.26999915
v 4.32940898 -16.43947139 -5.26999915
v 5.99678559 -15.90718515 -5.26999915
v 7.60059431 -15.20628016 -5.26999915
v 9.12383571 -14.34418466 -5.26999915
v 10.55036113 -13.33003677 -5.26999915
v 11.86505053 -12.17458583 -5.26999915
v 13.05396762 -10.89008432 -5.26999915
v 14.10450879 -9.49014351 -5.26999915
v 15.00553917 -7.98960496 -5.26999915
v 15.74750803 -6.40437426 -5.26999915
v 16.32254757 -4.75125574 -5.26999915
v 16.72456600 -3.04777292 -5.26999915
v 0.00000000 17.00000092 -5.26999915
v -1.74795697 16.90989733 -5.26999915
v -3.47738503 16.64054580 -5.26999915
v -5.16995229 16.19480178 -5.26999915
v -6.80771656 15.57738706 -5.26999915
v -8.37331731 14.79484886 -5.26999915
v -9.85015836 13.85548152 -5.26999915
v -11.22258604 12.76924275 -5.26999915
v -12.47605123 11.54764649 -5.26999915
v -13.59726675 10.20364277 -5.26999915
v -14.57434800 8.75147805 -5.26999915
v -15.39693866 7.20654475 -5.26999915
v -16.05631597 5.58522064 -5.26999915
v -16.54549316 3.90469166 -5.26999915
v -16.85928553 2.18277215 -5.26999915
v -16.99436456 0.43771454 -5.26999915
v -16.94929786 -1.31198287 -5.26999915
v -16.72456600 -3.04777292 -5.26999915
v -16.32254757 -4.75125574 -5.26999915
v -15.74750803 -6.40437426 -5.26999915
v -15.00553917 -7.98960496 -5.26999915
v -14.10450879 -9.49014351 -5.26999915
v -13.05396762 -10.89008432 -5.26999915
v -11.86505053 -12.17458583 -5.26999915
v -10.55036113 -13.33003677 -5.26999915
v -9.12383571 -14.34418466 -5.26999915
v -7.60059431 -15.20628016 -5.26999915
v -5.99678559 -15.90718515 -5.26999915
v -4.32940898 -16.43947139 -5.26999915
v -2.61613983 -16.79749414 -5.26999915
v 16.94929786 -1.31198287 -5.26999915
v 16.99436456 0.43771454 -5.26999915
v 16.85928553 2.18277215 -5.26999915
v 16.54549316 3.90469166 -5.26999915
v 16.05631597 5.58522064 -5.26999915
v 15.39693866 7.20654475 -5.26999915
v 14.57434986 8.75147805 -5.26999915
v 13.59726675 10.20364277 -5.26999915
v 12.47605123 11.54764649 -5.26999915
v 11.22258604 12.76924275 -5.26999915
v 9.85015836 13.85548152 -5.26999915
v 8.37331731 14.79484886 -5.26999915
v 6.80771656 15.57738706 -5.26999915
v 5.16995229 16.19480178 -5.26999915
v 3.47738503 16.64054580 -5.26999915
v 1.74795697 16.90989733 -5.26999915
v -1.74795697 16.90989733 -17.76999794
v -3.47738503 16.64054580 -17.76999794
v -5.16995229 16.19480178 -17.76999794
v -6.80771656 15.57738706 -17.76999794
v -8.37331731 14.79484886 -17.76999794
v -9.85015836 13.85548152 -17.76999794
v -11.22258604 12.76924275 -17.76999794
v -12.47605123 11.54764649 -17.76999794
v -13.59726675 10.20364277 -17.76999794
v -14.57434800 8.75147805 -17.76999794
v -15.39693866 7.20654475 -17.76999794
v -16.05631597 5.58522064 -17.76999794
v -16.54549316 3.90469166 -17.76999794
v -16.85928553 2.18277215 -17.76999794
v -16.99436456 0.43771454 -17.76999794
v -16.94929786 -1.31198287 -17.76999794
v -16.72456600 -3.04777292 -17.76999794
v -16.32254757 -4.75125574 -17.76999794
v -15.74750803 -6.40437426 -17.76999794
v -15.00553917 -7.98960496 -17.76999794
v -14.10450879 -9.49014351 -17.76999794
v -13.05396762 -10.89008432 -17.76999794
v -11.86505053 -12.17458583 -17.76999794
v -10.55036113 -13.33003677 -17.76999794
v -9.12383571 -14.34418466 -17.76999794
v -7.60059431 -15.20628016 -17.76999794
v -5.99678559 -15.90718515 -17.76999794
v -4.32940898 -16.43947139 -17.76999794
v -2.61613983 -16.79749414 -17.76999794
v -0.87513885 -16.97745919 -17.76999794
v 0.87513885 -16.97745919 -17.76999794
v 2.61613983 -16.79749414 -17.76999794
v 4.32940898 -16.43947139 -17.76999794
v 5.99678559 -15.90718515 -17.76999794
v 7.60059431 -15.20628016 -17.76999794
v 9.12383571 -14.34418466 -17.76999794
v 10.55036113 -13.33003677 -17.76999794
v 11.86505053 -12.17458583 -17.76999794
v 13.05396762 -10.89008432 -17.76999794
v 14.10450879 -9.49014351 -17.76999794
v 15.00553917 -7.98960496 -17.76999794
v 15.74750803 -6.40437426 -17.76999794
v 16.32254757 -4.75125574 -17.76999794
v 16.72456600 -3.04777292 -17.76999794
v 16.94929786 -1.31198287 -17.76999794
v 16.99436456 0.43771454 -17.76999794
v 16.85928553 2.18277215 -17.76999794
v 16.54549316 3.90469166 -17.76999794
v 16.05631597 5.58522064 -17.76999794
v 15.39693866 7.20654475 -17.76999794
v 14.57434986 8.75147805 -17.76999794
v 13.59726675 10.20364277 -17.76999794
v 12.47605123 11.54764649 -17.76999794
v 11.22258604 12.76924275 -17.76999794
v 9.85015836 13.85548152 -17.76999794
v 8.37331731 14.79484886 -17.76999794
v 6.80771656 15.57738706 -17.76999794
v 5.16995229 16.19480178 -17.76999794
v 3.47738503 16.64054580 -17.76999794
v 1.74795697 16.90989733 -17.76999794
v 0.00000000 17.00000092 -17.76999794
f 1 2 3
f 3 2 4
f 3 4 5
f 5 4 6
f 5 6 7
f 7 6 8
f 7 8 9
f 9 8 10
f 9 10 11
f 11 10 12
f 11 12 13
f 13 12 14
f 13 14 15
f 15 14 16
f 15 16 17
f 17 16 18
f 17 18 19
f 19 18 20
f 19 20 21
f 21 20 22
f 21 22 23
f 23 22 24
f 23 24 25
f 25 24 26
f 25 26 27
f 27 26 28
f 27 28 29
f 29 28 30
f 29 30 31
f 31 30 32
f 31 32 33
f 33 32 34
f 33 34 35
f 35 34 36
f 35 36 37
f 37 36 38
f 37 38 39
f 39 38 40
f 39 40 41
f 41 40 42
f 41 42 43
f 43 42 44
f 43 44 45
f 45 44 46
f 45 46 47
f 47 46 48
f 47 48 49
f 49 48 50
f 49 50 51
f 51 50 52
f 51 52 53
f 53 52 54
f 53 54 55
f 55 54 56
f 55 56 57
f 57 56 58
f 57 58 59
f 59 58 60
f 59 60 61
f 61 60 62
f 61 62 63
f 63 62 64
f 63 64 65
f 65 64 66
f 65 66 67
f 67 66 68
f 67 68 69
f 69 68 70
f 69 70 71
f 71 70 72
f 71 72 73
f 73 72 74
f 73 74 75
f 75 74 76
f 75 76 77
f 77 76 78
f 77 78 79
f 79 78 80
f 79 80 81
f 81 80 82
f 81 82 83
f 83 82 84
f 83 84 85
f 85 84 86
f 85 86 87
f 87 86 88
f 87 88 89
f 89 88 90
f 89 90 91
f 91 90 92
f 91 92 93
f 93 92 94
f 93 94 95
f 95 94 96
f 95 96 97
f 97 96 98
f 97 98 99
f 99 98 100
f 99 100 101
f 101 100 102
f 101 102 103
f 103 102 104
f 103 104 105
f 105 104 106
f 105 106 107
f 107 106 108
f 107 108 109
f 109 108 110
f 109 110 111
f 111 110 112
f 111 112 113
f 113 112 114
f 113 114 1
f 1 114 2
f 114 115 2
f 2 115 116
f 2 116 4
f 4 116 117
f 4 117 6
f 6 117 118
f 6 118 8
f 8 118 119
f 8 119 10
f 10 119 120
f 10 120 12
f 12 120 121
f 12 121 14
f 14 121 122
f 14 122 16
f 16 122 123
f 16 123 18
f 18 123 124
f 18 124 20
f 20 124 125
f 20 125 22
f 22 125 126
f 22 126 24
f 24 126 127
f 24 127 26
f 26 127 128
f 26 128 28
f 28 128 129
f 28 129 30
f 58 130 60
f 60 130 131
f 60 131 62
f 62 131 132
f 62 132 64
f 64 132 133
f 64 133 66
f 66 133 134
f 66 134 68
f 68 134 135
f 68 135 70
f 70 135 136
f 70 136 72
f 72 136 137
f 72 137 74
f 74 137 138
f 74 138 76
f 76 138 139
f 76 139 78
f 78 139 140
f 78 140 80
f 80 140 141
f 80 141 82
f 82 141 142
f 82 142 84
f 84 142 143
f 84 143 86
f 143 144 86
f 86 144 145
f 86 145 88
f 88 145 146
f 88 146 90
f 90 146 147
f 90 147 92
f 92 147 148
f 92 148 94
f 94 148 149
f 94 149 96
f 96 149 150
f 96 150 98
f 98 150 151
f 98 151 100
f 100 151 152
f 100 152 102
f 102 152 153
f 102 153 104
f 104 153 154
f 104 154 106
f 106 154 155
f 106 155 108
f 108 155 156
f 108 156 110
f 110 156 157
f 110 157 112
f 112 157 158
f 112 158 114
f 114 158 159
f 114 159 115
f 129 160 30
f 30 160 161
f 30 161 32
f 32 161 162
f 32 162 34
f 34 162 163
f 34 163 36
f 36 163 164
f 36 164 38
f 38 164 165
f 38 165 40
f 40 165 166
f 40 166 42
f 42 166 167
f 42 167 44
f 44 167 168
f 44 168 46
f 46 168 169
f 46 169 48
f 48 169 170
f 48 170 50
f 50 170 171
f 50 171 52
f 52 171 172
f 52 172 54
f 54 172 173
f 54 173 56
f 56 173 174
f 56 174 58
f 58 174 175
f 58 175 130
f 130 176 131
f 131 176 177
f 131 177 132
f 132 177 178
f 132 178 133
f 133 178 179
f 133 179 134
f 134 179 180
f 134 180 135
f 135 180 181
f 135 181 136
f 136 181 182
f 136 182 137
f 137 182 183
f 137 183 138
f 138 183 184
f 138 184 139
f 139 184 185
f 139 185 140
f 140 185 186
f 140 186 141
f 141 186 187
f 141 187 142
f 142 187 188
f 142 188 143
f 143 188 189
f 143 189 144
f 144 189 190
f 144 190 145
f 145 190 191
f 145 191 146
f 146 191 192
f 146 192 147
f 147 192 193
f 147 193 148
f 148 193 194
f 148 194 149
f 149 194 195
f 149 195 150
f 150 195 196
f 150 196 151
f 151 196 197
f 151 197 152
f 152 197 198
f 152 198 153
f 153 198 199
f 153 199 154
f 154 199 200
f 154 200 155
f 155 200 201
f 155 201 156
f 156 201 202
f 156 202 157
f 157 202 203
f 157 203 158
f 158 203 204
f 158 204 159
f 159 204 205
f 159 205 115
f 115 205 206
f 115 206 116
f 116 206 207
f 116 207 117
f 117 207 208
f 117 208 118
f 118 208 209
f 118 209 119
f 119 209 210
f 119 210 120
f 120 210 211
f 120 211 121
f 121 211 212
f 121 212 122
f 122 212 213
f 122 213 123
f 123 213 214
f 123 214 124
f 124 214 215
f 124 215 125
f 125 215 216
f 125 216 126
f 126 216 217
f 126 217 127
f 127 217 218
f 127 218 128
f 128 218 219
f 128 219 129
f 129 219 220
f 129 220 160
f 160 220 221
f 160 221 161
f 161 221 222
f 161 222 162
f 162 222 223
f 162 223 163
f 163 223 224
f 163 224 164
f 164 224 225
f 164 225 165
f 165 225 226
f 165 226 166
f 166 226 227
f 166 227 167
f 167 227 228
f 167 228 168
f 168 228 229
f 168 229 169
f 169 229 230
f 169 230 170
f 170 230 231
f 170 231 171
f 171 231 232
f 171 232 172
f 172 232 233
f 172 233 173
f 173 233 234
f 173 234 174
f 174 234 235
f 174 235 175
f 175 235 236
f 175 236 130
f 130 236 176
f 59 236 57
f 57 236 235
f 57 235 55
f 55 235 234
f 55 234 53
f 53 234 233
f 53 233 51
f 51 233 232
f 51 232 49
f 49 232 231
f 49 231 47
f 47 231 230
f 47 230 45
f 45 230 229
f 45 229 43
f 43 229 228
f 43 228 41
f 41 228 227
f 41 227 39
f 39 227 226
f 39 226 37
f 37 226 225
f 37 225 35
f 35 225 224
f 35 224 33
f 33 224 223
f 33 223 31
f 223 222 31
f 31 222 221
f 31 221 29
f 29 221 220
f 29 220 27
f 27 220 219
f 27 219 25
f 25 219 218
f 25 218 23
f 23 218 217
f 23 217 21
f 21 217 216
f 21 216 19
f 19 216 215
f 19 215 17
f 17 215 214
f 17 214 15
f 15 214 213
f 15 213 13
f 13 213 212
f 13 212 11
f 11 212 211
f 11 211 9
f 9 211 210
f 9 210 7
f 7 210 209
f 7 209 5
f 5 209 208
f 5 208 3
f 3 208 207
f 3 207 1
f 207 206 1
f 1 206 205
f 1 205 113
f 113 205 204
f 113 204 111
f 111 204 203
f 111 203 109
f 109 203 202
f 109 202 107
f 107 202 201
f 107 201 105
f 105 201 200
f 105 200 103
f 103 200 199
f 103 199 101
f 101 199 198
f 101 198 99
f 99 198 197
f 99 197 97
f 97 197 196
f 97 196 95
f 95 196 195
f 95 195 93
f 93 195 194
f 93 194 91
f 91 194 193
f 91 193 89
f 89 193 192
f 89 192 87
f 192 191 87
f 87 191 190
f 87 190 85
f 85 190 189
f 85 189 83
f 83 189 188
f 83 188 81
f 81 188 187
f 81 187 79
f 79 187 186
f 79 186 77
f 77 186 185
f 77 185 75
f 75 185 184
f 75 184 73
f 73 184 183
f 73 183 71
f 71 183 182
f 71 182 69
f 69 182 181
f 69 181 67
f 67 181 180
f 67 180 65
f 65 180 179
f 65 179 63
f 63 179 178
f 63 178 61
f 61 178 177
f 61 177 59
f 59 177 176
f 59 176 236

