# Exported by SolidWorks
g 
v -1.17473572 8.92300345 -48.76999557
v -1.30526198 9.91444848 -47.77000472
v -2.32937140 8.69333278 -48.76999557
v -2.58819037 9.65925865 -47.77000472
v -3.44415079 8.31491593 -48.76999557
v -3.82683426 9.23879538 -47.77000472
v -4.49999981 7.79422885 -48.76999557
v -4.99999989 8.66025407 -47.77000472
v -5.47885289 7.14018010 -48.76999557
v -6.08761422 7.93353375 -47.77000472
v -6.36396091 6.36396091 -48.76999557
v -7.07106758 7.07106758 -47.77000472
v -7.14018010 5.47885289 -48.76999557
v -7.93353375 6.08761422 -47.77000472
v -7.79422885 4.49999981 -48.76999557
v -8.66025407 4.99999989 -47.77000472
v -8.31491593 3.44415079 -48.76999557
v -9.23879538 3.82683426 -47.77000472
v -8.69333278 2.32937140 -48.76999557
v -9.65925865 2.58819037 -47.77000472
v -8.92300345 1.17473572 -48.76999557
v -9.91444848 1.30526198 -47.77000472
v -8.99999961 0.00000000 -48.76999557
v -9.99999978 0.00000000 -47.77000472
v -8.92300345 -1.17473572 -48.76999557
v -9.91444848 -1.30526198 -47.77000472
v -8.69333278 -2.32937140 -48.76999557
v -9.65925865 -2.58819037 -47.77000472
v -8.31491593 -3.44415079 -48.76999557
v -9.23879538 -3.82683426 -47.77000472
v -7.79422885 -4.49999981 -48.76999557
v -8.66025407 -4.99999989 -47.77000472
v -7.14018010 -5.47885289 -48.76999557
v -7.93353375 -6.08761422 -47.77000472
v -6.36396091 -6.36396091 -48.76999557
v -7.07106758 -7.07106758 -47.77000472
v -5.47885289 -7.14018010 -48.76999557
v -6.08761422 -7.93353375 -47.77000472
v -4.49999981 -7.79422885 -48.76999557
v -4.99999989 -8.66025407 -47.77000472
v -3.44415079 -8.31491593 -48.76999557
v -3.82683426 -9.23879538 -47.77000472
v -2.32937140 -8.69333278 -48.76999557
v -2.58819037 -9.65925865 -47.77000472
v -1.17473572 -8.92300345 -48.76999557
v -1.30526198 -9.91444848 -47.77000472
v 0.00000000 -8.99999961 -48.76999557
v 0.00000000 -9.99999978 -47.77000472
v 1.17473572 -8.92300345 -48.76999557
v 1.30526198 -9.91444848 -47.77000472
v 2.32937140 -8.69333278 -48.76999557
v 2.58819037 -9.65925865 -47.77000472
v 3.44415079 -8.31491593 -48.76999557
v 3.82683426 -9.23879538 -47.77000472
v 4.49999981 -7.79422885 -48.76999557
v 4.99999989 -8.66025407 -47.77000472
v 5.47885289 -7.14018010 -48.76999557
v 6.08761422 -7.93353375 -47.77000472
v 6.36396091 -6.36396091 -48.76999557
v 7.07106758 -7.07106758 -47.77000472
v 7.14018010 -5.47885289 -48.76999557
v 7.93353375 -6.08761422 -47.77000472
v 7.79422885 -4.49999981 -48.76999557
v 8.66025407 -4.99999989 -47.77000472
v 8.31491593 -3.44415079 -48.76999557
v 9.23879538 -3.82683426 -47.77000472
v 8.69333278 -2.32937140 -48.76999557
v 9.65925865 -2.58819037 -47.77000472
v 8.92300345 -1.17473572 -48.76999557
v 9.91444848 -1.30526198 -47.77000472
v 8.99999961 -0.00000000 -48.76999557
v 9.99999978 -0.00000000 -47.77000472
v 8.92300345 1.17473572 -48.76999557
v 9.91444848 1.30526198 -47.77000472
v 8.69333278 2.32937140 -48.76999557
v 9.65925865 2.58819037 -47.77000472
v 8.31491593 3.44415079 -48.76999557
v 9.23879538 3.82683426 -47.77000472
v 7.79422885 4.49999981 -48.76999557
v 8.66025407 4.99999989 -47.77000472
v 7.14018010 5.47885289 -48.76999557
v 7.93353375 6.08761422 -47.77000472
v 6.36396091 6.36396091 -48.76999557
v 7.07106758 7.07106758 -47.77000472
v 5.47885289 7.14018010 -48.76999557
v 6.08761422 7.93353375 -47.77000472
v 4.49999981 7.79422885 -48.76999557
v 4.99999989 8.66025407 -47.77000472
v 3.44415079 8.31491593 -48.76999557
v 3.82683426 9.23879538 -47.77000472
v 2.32937140 8.69333278 -48.76999557
v 2.58819037 9.65925865 -47.77000472
v 1.17473572 8.92300345 -48.76999557
v 1.30526198 9.91444848 -47.77000472
v 0.00000000 8.99999961 -48.76999557
v 0.00000000 9.99999978 -47.77000472
v -3.42207495 16.65200852 -47.77000472
v -5.08917309 16.22036658 -47.77000472
v -6.70404965 15.62228240 -47.77000472
v -8.25013313 14.86389246 -47.77000472
v 3.42207495 16.65200852 -47.77000472
v 1.71986152 16.91277884 -47.77000472
v 0.00000000 17.00000092 -47.77000472
v -1.71986152 16.91277884 -47.77000472
v 11.07333228 12.89888844 -47.77000472
v 9.71155986 13.95297889 -47.77000472
v 8.25013313 14.86389246 -47.77000472
v 6.70404965 15.62228240 -47.77000472
v 5.08917309 16.22036658 -47.77000472
v -15.26267733 7.48670055 -47.77000472
v -15.94178565 5.90418931 -47.77000472
v -16.45731181 4.26109321 -47.77000472
v -9.71155986 13.95297889 -47.77000472
v -11.07333228 12.89888844 -47.77000472
v -12.32147776 11.71243750 -47.77000472
v -13.44318781 10.40580217 -47.77000472
v -14.42695223 8.99238791 -47.77000472
v 15.26267733 7.48670055 -47.77000472
v 14.42695223 8.99238791 -47.77000472
v 13.44318781 10.40580217 -47.77000472
v 12.32147776 11.71243750 -47.77000472
v 15.26267733 -7.48670055 -47.77000472
v 15.94178565 -5.90418931 -47.77000472
v 16.45731181 -4.26109321 -47.77000472
v 16.80396125 -2.57427222 -47.77000472
v 11.07333228 -12.89888844 -47.77000472
v 12.32147776 -11.71243750 -47.77000472
v 13.44318781 -10.40580217 -47.77000472
v 14.42695223 -8.99238791 -47.77000472
v -11.07333228 -12.89888844 -47.77000472
v -9.71155986 -13.95297889 -47.77000472
v -8.25013313 -14.86389246 -47.77000472
v -6.70404965 -15.62228240 -47.77000472
v -15.26267733 -7.48670055 -47.77000472
v -14.42695223 -8.99238791 -47.77000472
v -13.44318781 -10.40580217 -47.77000472
v -12.32147776 -11.71243750 -47.77000472
v -16.80396125 2.57427222 -47.77000472
v -16.97818004 0.86103589 -47.77000472
v -16.97818004 -0.86103589 -47.77000472
v -16.80396125 -2.57427222 -47.77000472
v -16.45731181 -4.26109321 -47.77000472
v -15.94178565 -5.90418931 -47.77000472
v 16.97818004 -0.86103589 -47.77000472
v 16.97818004 0.86103589 -47.77000472
v 16.80396125 2.57427222 -47.77000472
v 16.45731181 4.26109321 -47.77000472
v 15.94178565 5.90418931 -47.77000472
v 3.42207495 -16.65200852 -47.77000472
v 5.08917309 -16.22036658 -47.77000472
v 6.70404965 -15.62228240 -47.77000472
v 8.25013313 -14.86389246 -47.77000472
v 9.71155986 -13.95297889 -47.77000472
v -5.08917309 -16.22036658 -47.77000472
v -3.42207495 -16.65200852 -47.77000472
v -1.71986152 -16.91277884 -47.77000472
v 0.00000000 -17.00000092 -47.77000472
v 1.71986152 -16.91277884 -47.77000472
v 1.71986152 -16.91277884 -48.76999557
v 3.42207495 -16.65200852 -48.76999557
v 5.08917309 -16.22036658 -48.76999557
v 6.70404965 -15.62228240 -48.76999557
v 8.25013313 -14.86389246 -48.76999557
v 9.71155986 -13.95297889 -48.76999557
v 11.07333228 -12.89888844 -48.76999557
v 12.32147776 -11.71243750 -48.76999557
v 13.44318781 -10.40580217 -48.76999557
v 14.42695223 -8.99238791 -48.76999557
v 15.26267733 -7.48670055 -48.76999557
v 15.94178565 -5.90418931 -48.76999557
v 16.45731181 -4.26109321 -48.76999557
v 16.80396125 -2.57427222 -48.76999557
v 16.97818004 -0.86103589 -48.76999557
v 16.97818004 0.86103589 -48.76999557
v 16.80396125 2.57427222 -48.76999557
v 16.45731181 4.26109321 -48.76999557
v 15.94178565 5.90418931 -48.76999557
v 15.26267733 7.48670055 -48.76999557
v 14.42695223 8.99238791 -48.76999557
v 13.44318781 10.40580217 -48.76999557
v 12.32147776 11.71243750 -48.76999557
v 11.07333228 12.89888844 -48.76999557
v 9.71155986 13.95297889 -48.76999557
v 8.25013313 14.86389246 -48.76999557
v 6.70404965 15.62228240 -48.76999557
v 5.08917309 16.22036658 -48.76999557
v 3.42207495 16.65200852 -48.76999557
v 1.71986152 16.91277884 -48.76999557
v 0.00000000 17.00000092 -48.76999557
v -1.71986152 16.91277884 -48.76999557
v -3.42207495 16.65200852 -48.76999557
v -5.08917309 16.22036658 -48.76999557
v -6.70404965 15.62228240 -48.76999557
v -8.25013313 14.86389246 -48.76999557
v -9.71155986 13.95297889 -48.76999557
v -11.07333228 12.89888844 -48.76999557
v -12.32147776 11.71243750 -48.76999557
v -13.44318781 10.40580217 -48.76999557
v -14.42695223 8.99238791 -48.76999557
v -15.26267733 7.48670055 -48.76999557
v -15.94178565 5.90418931 -48.76999557
v -16.45731181 4.26109321 -48.76999557
v -16.80396125 2.57427222 -48.76999557
v -16.97818004 0.86103589 -48.76999557
v -16.97818004 -0.86103589 -48.76999557
v -16.80396125 -2.57427222 -48.76999557
v -16.45731181 -4.26109321 -48.76999557
v -15.94178565 -5.90418931 -48.76999557
v -15.26267733 -7.48670055 -48.76999557
v -14.42695223 -8.99238791 -48.76999557
v -13.44318781 -10.40580217 -48.76999557
v -12.32147776 -11.71243750 -48.76999557
v -11.07333228 -12.89888844 -48.76999557
v -9.71155986 -13.95297889 -48.76999557
v -8.25013313 -14.86389246 -48.76999557
v -6.70404965 -15.62228240 -48.76999557
v -5.08917309 -16.22036658 -48.76999557
v -3.42207495 -16.65200852 -48.76999557
v -1.71986152 -16.91277884 -48.76999557
v 0.00000000 -17.00000092 -48.76999557
f 1 2 3
f 3 2 4
f 3 4 5
f 5 4 6
f 5 6 7
f 7 6 8
f 7 8 9
f 9 8 10
f 9 10 11
f 11 10 12
f 11 12 13
f 13 12 14
f 13 14 15
f 15 14 16
f 15 16 17
f 17 16 18
f 17 18 19
f 19 18 20
f 19 20 21
f 21 20 22
f 21 22 23
f 23 22 24
f 23 24 25
f 25 24 26
f 25 26 27
f 27 26 28
f 27 28 29
f 29 28 30
f 29 30 31
f 31 30 32
f 31 32 33
f 33 32 34
f 33 34 35
f 35 34 36
f 35 36 37
f 37 36 38
f 37 38 39
f 39 38 40
f 39 40 41
f 41 40 42
f 41 42 43
f 43 42 44
f 43 44 45
f 45 44 46
f 45 46 47
f 47 46 48
f 47 48 49
f 49 48 50
f 49 50 51
f 51 50 52
f 51 52 53
f 53 52 54
f 53 54 55
f 55 54 56
f 55 56 57
f 57 56 58
f 57 58 59
f 59 58 60
f 59 60 61
f 61 60 62
f 61 62 63
f 63 62 64
f 63 64 65
f 65 64 66
f 65 66 67
f 67 66 68
f 67 68 69
f 69 68 70
f 69 70 71
f 71 70 72
f 71 72 73
f 73 72 74
f 73 74 75
f 75 74 76
f 75 76 77
f 77 76 78
f 77 78 79
f 79 78 80
f 79 80 81
f 81 80 82
f 81 82 83
f 83 82 84
f 83 84 85
f 85 84 86
f 85 86 87
f 87 86 88
f 87 88 89
f 89 88 90
f 89 90 91
f 91 90 92
f 91 92 93
f 93 92 94
f 93 94 95
f 95 94 96
f 95 96 1
f 1 96 2
f 2 97 4
f 4 97 98
f 4 98 6
f 6 98 99
f 6 99 8
f 8 99 100
f 8 100 10
f 92 101 94
f 94 101 102
f 94 102 96
f 96 102 103
f 96 103 2
f 2 103 104
f 2 104 97
f 84 105 86
f 86 105 106
f 86 106 88
f 88 106 107
f 88 107 90
f 90 107 108
f 90 108 92
f 92 108 109
f 92 109 101
f 16 110 18
f 18 110 111
f 18 111 20
f 20 111 112
f 20 112 22
f 100 113 10
f 10 113 114
f 10 114 12
f 12 114 115
f 12 115 14
f 14 115 116
f 14 116 16
f 16 116 117
f 16 117 110
f 78 118 80
f 80 118 119
f 80 119 82
f 82 119 120
f 82 120 84
f 84 120 121
f 84 121 105
f 64 122 66
f 66 122 123
f 66 123 68
f 68 123 124
f 68 124 70
f 70 124 125
f 70 125 72
f 58 126 60
f 60 126 127
f 60 127 62
f 62 127 128
f 62 128 64
f 64 128 129
f 64 129 122
f 36 130 38
f 38 130 131
f 38 131 40
f 40 131 132
f 40 132 42
f 42 132 133
f 42 133 44
f 30 134 32
f 32 134 135
f 32 135 34
f 34 135 136
f 34 136 36
f 36 136 137
f 36 137 130
f 112 138 22
f 22 138 139
f 22 139 24
f 24 139 140
f 24 140 26
f 26 140 141
f 26 141 28
f 28 141 142
f 28 142 30
f 30 142 143
f 30 143 134
f 125 144 72
f 72 144 145
f 72 145 74
f 74 145 146
f 74 146 76
f 76 146 147
f 76 147 78
f 78 147 148
f 78 148 118
f 50 149 52
f 52 149 150
f 52 150 54
f 54 150 151
f 54 151 56
f 56 151 152
f 56 152 58
f 58 152 153
f 58 153 126
f 133 154 44
f 44 154 155
f 44 155 46
f 46 155 156
f 46 156 48
f 48 156 157
f 48 157 50
f 50 157 158
f 50 158 149
f 157 159 158
f 158 159 160
f 158 160 149
f 149 160 161
f 149 161 150
f 150 161 162
f 150 162 151
f 151 162 163
f 151 163 152
f 152 163 164
f 152 164 153
f 153 164 165
f 153 165 126
f 126 165 166
f 126 166 127
f 127 166 167
f 127 167 128
f 128 167 168
f 128 168 129
f 129 168 169
f 129 169 122
f 122 169 170
f 122 170 123
f 123 170 171
f 123 171 124
f 124 171 172
f 124 172 125
f 125 172 173
f 125 173 144
f 144 173 174
f 144 174 145
f 145 174 175
f 145 175 146
f 146 175 176
f 146 176 147
f 147 176 177
f 147 177 148
f 148 177 178
f 148 178 118
f 118 178 179
f 118 179 119
f 119 179 180
f 119 180 120
f 120 180 181
f 120 181 121
f 121 181 182
f 121 182 105
f 105 182 183
f 105 183 106
f 106 183 184
f 106 184 107
f 107 184 185
f 107 185 108
f 108 185 186
f 108 186 109
f 109 186 187
f 109 187 101
f 101 187 188
f 101 188 102
f 102 188 189
f 102 189 103
f 103 189 190
f 103 190 104
f 104 190 191
f 104 191 97
f 97 191 192
f 97 192 98
f 98 192 193
f 98 193 99
f 99 193 194
f 99 194 100
f 100 194 195
f 100 195 113
f 113 195 196
f 113 196 114
f 114 196 197
f 114 197 115
f 115 197 198
f 115 198 116
f 116 198 199
f 116 199 117
f 117 199 200
f 117 200 110
f 110 200 201
f 110 201 111
f 111 201 202
f 111 202 112
f 112 202 203
f 112 203 138
f 138 203 204
f 138 204 139
f 139 204 205
f 139 205 140
f 140 205 206
f 140 206 141
f 141 206 207
f 141 207 142
f 142 207 208
f 142 208 143
f 143 208 209
f 143 209 134
f 134 209 210
f 134 210 135
f 135 210 211
f 135 211 136
f 136 211 212
f 136 212 137
f 137 212 213
f 137 213 130
f 130 213 214
f 130 214 131
f 131 214 215
f 131 215 132
f 132 215 216
f 132 216 133
f 133 216 217
f 133 217 154
f 154 217 218
f 154 218 155
f 155 218 219
f 155 219 156
f 156 219 220
f 156 220 157
f 157 220 159
f 73 174 71
f 71 174 173
f 71 173 69
f 69 173 172
f 69 172 67
f 67 172 171
f 67 171 65
f 79 178 77
f 77 178 177
f 77 177 75
f 75 177 176
f 75 176 73
f 73 176 175
f 73 175 174
f 31 209 29
f 29 209 208
f 29 208 27
f 27 208 207
f 27 207 25
f 25 207 206
f 25 206 23
f 171 170 65
f 65 170 169
f 65 169 63
f 63 169 168
f 63 168 61
f 61 168 167
f 61 167 59
f 85 182 83
f 83 182 181
f 83 181 81
f 81 181 180
f 81 180 79
f 79 180 179
f 79 179 178
f 93 187 91
f 91 187 186
f 91 186 89
f 89 186 185
f 89 185 87
f 87 185 184
f 87 184 85
f 85 184 183
f 85 183 182
f 3 191 1
f 1 191 190
f 1 190 95
f 95 190 189
f 95 189 93
f 93 189 188
f 93 188 187
f 11 196 9
f 9 196 195
f 9 195 7
f 7 195 194
f 7 194 5
f 5 194 193
f 5 193 3
f 3 193 192
f 3 192 191
f 45 218 43
f 43 218 217
f 43 217 41
f 41 217 216
f 41 216 39
f 39 216 215
f 39 215 37
f 17 200 15
f 15 200 199
f 15 199 13
f 13 199 198
f 13 198 11
f 11 198 197
f 11 197 196
f 206 205 23
f 23 205 204
f 23 204 21
f 21 204 203
f 21 203 19
f 19 203 202
f 19 202 17
f 17 202 201
f 17 201 200
f 51 160 49
f 49 160 159
f 49 159 47
f 47 159 220
f 47 220 45
f 45 220 219
f 45 219 218
f 167 166 59
f 59 166 165
f 59 165 57
f 57 165 164
f 57 164 55
f 55 164 163
f 55 163 53
f 53 163 162
f 53 162 51
f 51 162 161
f 51 161 160
f 215 214 37
f 37 214 213
f 37 213 35
f 35 213 212
f 35 212 33
f 33 212 211
f 33 211 31
f 31 211 210
f 31 210 209

