# Exported by SolidWorks
g 
v -1.17473572 8.92300345 -3.76999984
v -1.30526198 9.91444848 -2.77000130
v -2.32937140 8.69333278 -3.76999984
v -2.58819037 9.65925865 -2.77000130
v -3.44415079 8.31491593 -3.76999984
v -3.82683426 9.23879538 -2.77000130
v -4.49999981 7.79422885 -3.76999984
v -4.99999989 8.66025407 -2.77000130
v -5.47885289 7.14018010 -3.76999984
v -6.08761422 7.93353375 -2.77000130
v -6.36396091 6.36396091 -3.76999984
v -7.07106758 7.07106758 -2.77000130
v -7.14018010 5.47885289 -3.76999984
v -7.93353375 6.08761422 -2.77000130
v -7.79422885 4.49999981 -3.76999984
v -8.66025407 4.99999989 -2.77000130
v -8.31491593 3.44415079 -3.76999984
v -9.23879538 3.82683426 -2.77000130
v -8.69333278 2.32937140 -3.76999984
v -9.65925865 2.58819037 -2.77000130
v -8.92300345 1.17473572 -3.76999984
v -9.91444848 1.30526198 -2.77000130
v -8.99999961 0.00000000 -3.76999984
v -9.99999978 0.00000000 -2.77000130
v -8.92300345 -1.17473572 -3.76999984
v -9.91444848 -1.30526198 -2.77000130
v -8.69333278 -2.32937140 -3.76999984
v -9.65925865 -2.58819037 -2.77000130
v -8.31491593 -3.44415079 -3.76999984
v -9.23879538 -3.82683426 -2.77000130
v -7.79422885 -4.49999981 -3.76999984
v -8.66025407 -4.99999989 -2.77000130
v -7.14018010 -5.47885289 -3.76999984
v -7.93353375 -6.08761422 -2.77000130
v -6.36396091 -6.36396091 -3.76999984
v -7.07106758 -7.07106758 -2.77000130
v -5.47885289 -7.14018010 -3.76999984
v -6.08761422 -7.93353375 -2.77000130
v -4.49999981 -7.79422885 -3.76999984
v -4.99999989 -8.66025407 -2.77000130
v -3.44415079 -8.31491593 -3.76999984
v -3.82683426 -9.23879538 -2.77000130
v -2.32937140 -8.69333278 -3.76999984
v -2.58819037 -9.65925865 -2.77000130
v -1.17473572 -8.92300345 -3.76999984
v -1.30526198 -9.91444848 -2.77000130
v -0.00000000 -8.99999961 -3.76999984
v -0.00000000 -9.99999978 -2.77000130
v 1.17473572 -8.92300345 -3.76999984
v 1.30526198 -9.91444848 -2.77000130
v 2.32937140 -8.69333278 -3.76999984
v 2.58819037 -9.65925865 -2.77000130
v 3.44415079 -8.31491593 -3.76999984
v 3.82683426 -9.23879538 -2.77000130
v 4.49999981 -7.79422885 -3.76999984
v 4.99999989 -8.66025407 -2.77000130
v 5.47885289 -7.14018010 -3.76999984
v 6.08761422 -7.93353375 -2.77000130
v 6.36396091 -6.36396091 -3.76999984
v 7.07106758 -7.07106758 -2.77000130
v 7.14018010 -5.47885289 -3.76999984
v 7.93353375 -6.08761422 -2.77000130
v 7.79422885 -4.49999981 -3.76999984
v 8.66025407 -4.99999989 -2.77000130
v 8.31491593 -3.44415079 -3.76999984
v 9.23879538 -3.82683426 -2.77000130
v 8.69333278 -2.32937140 -3.76999984
v 9.65925865 -2.58819037 -2.77000130
v 8.92300345 -1.17473572 -3.76999984
v 9.91444848 -1.30526198 -2.77000130
v 8.99999961 -0.00000000 -3.76999984
v 9.99999978 -0.00000000 -2.77000130
v 8.92300345 1.17473572 -3.76999984
v 9.91444848 1.30526198 -2.77000130
v 8.69333278 2.32937140 -3.76999984
v 9.65925865 2.58819037 -2.77000130
v 8.31491593 3.44415079 -3.76999984
v 9.23879538 3.82683426 -2.77000130
v 7.79422885 4.49999981 -3.76999984
v 8.66025407 4.99999989 -2.77000130
v 7.14018010 5.47885289 -3.76999984
v 7.93353375 6.08761422 -2.77000130
v 6.36396091 6.36396091 -3.76999984
v 7.07106758 7.07106758 -2.77000130
v 5.47885289 7.14018010 -3.76999984
v 6.08761422 7.93353375 -2.77000130
v 4.49999981 7.79422885 -3.76999984
v 4.99999989 8.66025407 -2.77000130
v 3.44415079 8.31491593 -3.76999984
v 3.82683426 9.23879538 -2.77000130
v 2.32937140 8.69333278 -3.76999984
v 2.58819037 9.65925865 -2.77000130
v 1.17473572 8.92300345 -3.76999984
v 1.30526198 9.91444848 -2.77000130
v 0.00000000 8.99999961 -3.76999984
v 0.00000000 9.99999978 -2.77000130
v 15.26267733 -7.48670055 -2.77000130
v 15.94178565 -5.90418931 -2.77000130
v 16.45731181 -4.26109321 -2.77000130
v 16.80396125 -2.57427222 -2.77000130
v -16.97818004 0.86103589 -2.77000130
v -16.97818004 -0.86103589 -2.77000130
v -16.80396125 -2.57427222 -2.77000130
v -16.45731181 -4.26109321 -2.77000130
v 15.26267733 7.48670055 -2.77000130
v 14.42695223 8.99238791 -2.77000130
v 13.44318781 10.40580217 -2.77000130
v 16.97818004 -0.86103589 -2.77000130
v 16.97818004 0.86103589 -2.77000130
v 16.80396125 2.57427222 -2.77000130
v 16.45731181 4.26109321 -2.77000130
v 15.94178565 5.90418931 -2.77000130
v 12.32147776 11.71243750 -2.77000130
v 11.07333228 12.89888844 -2.77000130
v 9.71155986 13.95297889 -2.77000130
v 8.25013313 14.86389246 -2.77000130
v 6.70404965 15.62228240 -2.77000130
v -11.07333228 -12.89888844 -2.77000130
v -9.71155986 -13.95297889 -2.77000130
v -8.25013313 -14.86389246 -2.77000130
v -6.70404965 -15.62228240 -2.77000130
v -15.26267733 7.48670055 -2.77000130
v -15.94178565 5.90418931 -2.77000130
v -16.45731181 4.26109321 -2.77000130
v -16.80396125 2.57427222 -2.77000130
v 5.08917309 16.22036658 -2.77000130
v 3.42207495 16.65200852 -2.77000130
v 1.71986152 16.91277884 -2.77000130
v 0.00000000 17.00000092 -2.77000130
v 11.07333228 -12.89888844 -2.77000130
v 12.32147776 -11.71243750 -2.77000130
v 13.44318781 -10.40580217 -2.77000130
v 14.42695223 -8.99238791 -2.77000130
v 3.42207495 -16.65200852 -2.77000130
v 5.08917309 -16.22036658 -2.77000130
v 6.70404965 -15.62228240 -2.77000130
v 8.25013313 -14.86389246 -2.77000130
v 9.71155986 -13.95297889 -2.77000130
v -15.94178565 -5.90418931 -2.77000130
v -15.26267733 -7.48670055 -2.77000130
v -14.42695223 -8.99238791 -2.77000130
v -13.44318781 -10.40580217 -2.77000130
v -12.32147776 -11.71243750 -2.77000130
v -11.07333228 12.89888844 -2.77000130
v -12.32147776 11.71243750 -2.77000130
v -13.44318781 10.40580217 -2.77000130
v -14.42695223 8.99238791 -2.77000130
v -1.71986152 16.91277884 -2.77000130
v -3.42207495 16.65200852 -2.77000130
v -5.08917309 16.22036658 -2.77000130
v -6.70404965 15.62228240 -2.77000130
v -8.25013313 14.86389246 -2.77000130
v -9.71155986 13.95297889 -2.77000130
v -5.08917309 -16.22036658 -2.77000130
v -3.42207495 -16.65200852 -2.77000130
v -1.71986152 -16.91277884 -2.77000130
v -0.00000000 -17.00000092 -2.77000130
v 1.71986152 -16.91277884 -2.77000130
v 1.71986152 -16.91277884 -3.76999984
v 3.42207495 -16.65200852 -3.76999984
v 5.08917309 -16.22036658 -3.76999984
v 6.70404965 -15.62228240 -3.76999984
v 8.25013313 -14.86389246 -3.76999984
v 9.71155986 -13.95297889 -3.76999984
v 11.07333228 -12.89888844 -3.76999984
v 12.32147776 -11.71243750 -3.76999984
v 13.44318781 -10.40580217 -3.76999984
v 14.42695223 -8.99238791 -3.76999984
v 15.26267733 -7.48670055 -3.76999984
v 15.94178565 -5.90418931 -3.76999984
v 16.45731181 -4.26109321 -3.76999984
v 16.80396125 -2.57427222 -3.76999984
v 16.97818004 -0.86103589 -3.76999984
v 16.97818004 0.86103589 -3.76999984
v 16.80396125 2.57427222 -3.76999984
v 16.45731181 4.26109321 -3.76999984
v 15.94178565 5.90418931 -3.76999984
v 15.26267733 7.48670055 -3.76999984
v 14.42695223 8.99238791 -3.76999984
v 13.44318781 10.40580217 -3.76999984
v 12.32147776 11.71243750 -3.76999984
v 11.07333228 12.89888844 -3.76999984
v 9.71155986 13.95297889 -3.76999984
v 8.25013313 14.86389246 -3.76999984
v 6.70404965 15.62228240 -3.76999984
v 5.08917309 16.22036658 -3.76999984
v 3.42207495 16.65200852 -3.76999984
v 1.71986152 16.91277884 -3.76999984
v 0.00000000 17.00000092 -3.76999984
v -1.71986152 16.91277884 -3.76999984
v -3.42207495 16.65200852 -3.76999984
v -5.08917309 16.22036658 -3.76999984
v -6.70404965 15.62228240 -3.76999984
v -8.25013313 14.86389246 -3.76999984
v -9.71155986 13.95297889 -3.76999984
v -11.07333228 12.89888844 -3.76999984
v -12.32147776 11.71243750 -3.76999984
v -13.44318781 10.40580217 -3.76999984
v -14.42695223 8.99238791 -3.76999984
v -15.26267733 7.48670055 -3.76999984
v -15.94178565 5.90418931 -3.76999984
v -16.45731181 4.26109321 -3.76999984
v -16.80396125 2.57427222 -3.76999984
v -16.97818004 0.86103589 -3.76999984
v -16.97818004 -0.86103589 -3.76999984
v -16.80396125 -2.57427222 -3.76999984
v -16.45731181 -4.26109321 -3.76999984
v -15.94178565 -5.90418931 -3.76999984
v -15.26267733 -7.48670055 -3.76999984
v -14.42695223 -8.99238791 -3.76999984
v -13.44318781 -10.40580217 -3.76999984
v -12.32147776 -11.71243750 -3.76999984
v -11.07333228 -12.89888844 -3.76999984
v -9.71155986 -13.95297889 -3.76999984
v -8.25013313 -14.86389246 -3.76999984
v -6.70404965 -15.62228240 -3.76999984
v -5.08917309 -16.22036658 -3.76999984
v -3.42207495 -16.65200852 -3.76999984
v -1.71986152 -16.91277884 -3.76999984
v -0.00000000 -17.00000092 -3.76999984
f 1 2 3
f 3 2 4
f 3 4 5
f 5 4 6
f 5 6 7
f 7 6 8
f 7 8 9
f 9 8 10
f 9 10 11
f 11 10 12
f 11 12 13
f 13 12 14
f 13 14 15
f 15 14 16
f 15 16 17
f 17 16 18
f 17 18 19
f 19 18 20
f 19 20 21
f 21 20 22
f 21 22 23
f 23 22 24
f 23 24 25
f 25 24 26
f 25 26 27
f 27 26 28
f 27 28 29
f 29 28 30
f 29 30 31
f 31 30 32
f 31 32 33
f 33 32 34
f 33 34 35
f 35 34 36
f 35 36 37
f 37 36 38
f 37 38 39
f 39 38 40
f 39 40 41
f 41 40 42
f 41 42 43
f 43 42 44
f 43 44 45
f 45 44 46
f 45 46 47
f 47 46 48
f 47 48 49
f 49 48 50
f 49 50 51
f 51 50 52
f 51 52 53
f 53 52 54
f 53 54 55
f 55 54 56
f 55 56 57
f 57 56 58
f 57 58 59
f 59 58 60
f 59 60 61
f 61 60 62
f 61 62 63
f 63 62 64
f 63 64 65
f 65 64 66
f 65 66 67
f 67 66 68
f 67 68 69
f 69 68 70
f 69 70 71
f 71 70 72
f 71 72 73
f 73 72 74
f 73 74 75
f 75 74 76
f 75 76 77
f 77 76 78
f 77 78 79
f 79 78 80
f 79 80 81
f 81 80 82
f 81 82 83
f 83 82 84
f 83 84 85
f 85 84 86
f 85 86 87
f 87 86 88
f 87 88 89
f 89 88 90
f 89 90 91
f 91 90 92
f 91 92 93
f 93 92 94
f 93 94 95
f 95 94 96
f 95 96 1
f 1 96 2
f 64 97 66
f 66 97 98
f 66 98 68
f 68 98 99
f 68 99 70
f 70 99 100
f 70 100 72
f 22 101 24
f 24 101 102
f 24 102 26
f 26 102 103
f 26 103 28
f 28 103 104
f 28 104 30
f 78 105 80
f 80 105 106
f 80 106 82
f 82 106 107
f 82 107 84
f 100 108 72
f 72 108 109
f 72 109 74
f 74 109 110
f 74 110 76
f 76 110 111
f 76 111 78
f 78 111 112
f 78 112 105
f 107 113 84
f 84 113 114
f 84 114 86
f 86 114 115
f 86 115 88
f 88 115 116
f 88 116 90
f 90 116 117
f 90 117 92
f 36 118 38
f 38 118 119
f 38 119 40
f 40 119 120
f 40 120 42
f 42 120 121
f 42 121 44
f 16 122 18
f 18 122 123
f 18 123 20
f 20 123 124
f 20 124 22
f 22 124 125
f 22 125 101
f 117 126 92
f 92 126 127
f 92 127 94
f 94 127 128
f 94 128 96
f 96 128 129
f 96 129 2
f 58 130 60
f 60 130 131
f 60 131 62
f 62 131 132
f 62 132 64
f 64 132 133
f 64 133 97
f 50 134 52
f 52 134 135
f 52 135 54
f 54 135 136
f 54 136 56
f 56 136 137
f 56 137 58
f 58 137 138
f 58 138 130
f 104 139 30
f 30 139 140
f 30 140 32
f 32 140 141
f 32 141 34
f 34 141 142
f 34 142 36
f 36 142 143
f 36 143 118
f 10 144 12
f 12 144 145
f 12 145 14
f 14 145 146
f 14 146 16
f 16 146 147
f 16 147 122
f 129 148 2
f 2 148 149
f 2 149 4
f 4 149 150
f 4 150 6
f 6 150 151
f 6 151 8
f 8 151 152
f 8 152 10
f 10 152 153
f 10 153 144
f 121 154 44
f 44 154 155
f 44 155 46
f 46 155 156
f 46 156 48
f 48 156 157
f 48 157 50
f 50 157 158
f 50 158 134
f 157 159 158
f 158 159 160
f 158 160 134
f 134 160 161
f 134 161 135
f 135 161 162
f 135 162 136
f 136 162 163
f 136 163 137
f 137 163 164
f 137 164 138
f 138 164 165
f 138 165 130
f 130 165 166
f 130 166 131
f 131 166 167
f 131 167 132
f 132 167 168
f 132 168 133
f 133 168 169
f 133 169 97
f 97 169 170
f 97 170 98
f 98 170 171
f 98 171 99
f 99 171 172
f 99 172 100
f 100 172 173
f 100 173 108
f 108 173 174
f 108 174 109
f 109 174 175
f 109 175 110
f 110 175 176
f 110 176 111
f 111 176 177
f 111 177 112
f 112 177 178
f 112 178 105
f 105 178 179
f 105 179 106
f 106 179 180
f 106 180 107
f 107 180 181
f 107 181 113
f 113 181 182
f 113 182 114
f 114 182 183
f 114 183 115
f 115 183 184
f 115 184 116
f 116 184 185
f 116 185 117
f 117 185 186
f 117 186 126
f 126 186 187
f 126 187 127
f 127 187 188
f 127 188 128
f 128 188 189
f 128 189 129
f 129 189 190
f 129 190 148
f 148 190 191
f 148 191 149
f 149 191 192
f 149 192 150
f 150 192 193
f 150 193 151
f 151 193 194
f 151 194 152
f 152 194 195
f 152 195 153
f 153 195 196
f 153 196 144
f 144 196 197
f 144 197 145
f 145 197 198
f 145 198 146
f 146 198 199
f 146 199 147
f 147 199 200
f 147 200 122
f 122 200 201
f 122 201 123
f 123 201 202
f 123 202 124
f 124 202 203
f 124 203 125
f 125 203 204
f 125 204 101
f 101 204 205
f 101 205 102
f 102 205 206
f 102 206 103
f 103 206 207
f 103 207 104
f 104 207 208
f 104 208 139
f 139 208 209
f 139 209 140
f 140 209 210
f 140 210 141
f 141 210 211
f 141 211 142
f 142 211 212
f 142 212 143
f 143 212 213
f 143 213 118
f 118 213 214
f 118 214 119
f 119 214 215
f 119 215 120
f 120 215 216
f 120 216 121
f 121 216 217
f 121 217 154
f 154 217 218
f 154 218 155
f 155 218 219
f 155 219 156
f 156 219 220
f 156 220 157
f 157 220 159
f 79 178 77
f 77 178 177
f 77 177 75
f 75 177 176
f 75 176 73
f 85 182 83
f 83 182 181
f 83 181 81
f 81 181 180
f 81 180 79
f 79 180 179
f 79 179 178
f 93 187 91
f 91 187 186
f 91 186 89
f 89 186 185
f 89 185 87
f 87 185 184
f 87 184 85
f 85 184 183
f 85 183 182
f 3 191 1
f 1 191 190
f 1 190 95
f 95 190 189
f 95 189 93
f 93 189 188
f 93 188 187
f 176 175 73
f 73 175 174
f 73 174 71
f 71 174 173
f 71 173 69
f 69 173 172
f 69 172 67
f 67 172 171
f 67 171 65
f 11 196 9
f 9 196 195
f 9 195 7
f 7 195 194
f 7 194 5
f 5 194 193
f 5 193 3
f 3 193 192
f 3 192 191
f 59 165 57
f 57 165 164
f 57 164 55
f 55 164 163
f 55 163 53
f 53 163 162
f 53 162 51
f 17 200 15
f 15 200 199
f 15 199 13
f 13 199 198
f 13 198 11
f 11 198 197
f 11 197 196
f 171 170 65
f 65 170 169
f 65 169 63
f 63 169 168
f 63 168 61
f 61 168 167
f 61 167 59
f 59 167 166
f 59 166 165
f 31 209 29
f 29 209 208
f 29 208 27
f 27 208 207
f 27 207 25
f 25 207 206
f 25 206 23
f 162 161 51
f 51 161 160
f 51 160 49
f 49 160 159
f 49 159 47
f 47 159 220
f 47 220 45
f 206 205 23
f 23 205 204
f 23 204 21
f 21 204 203
f 21 203 19
f 19 203 202
f 19 202 17
f 17 202 201
f 17 201 200
f 220 219 45
f 45 219 218
f 45 218 43
f 43 218 217
f 43 217 41
f 41 217 216
f 41 216 39
f 39 216 215
f 39 215 37
f 215 214 37
f 37 214 213
f 37 213 35
f 35 213 212
f 35 212 33
f 33 212 211
f 33 211 31
f 31 211 210
f 31 210 209

