# Exported by SolidWorks
g 
v -20.49262449 12.21412327 23.59000035
v -20.63249238 11.91417500 23.59000035
v 20.50509490 12.21412327 23.59000035
v 20.64496279 11.91417500 23.59000035
v -24.14657734 12.53380254 23.59000035
v -26.51945502 12.44338788 23.59000035
v -24.06091802 12.21412327 23.59000035
v -27.58714370 9.85210296 23.59000035
v -23.92105013 11.91417500 23.59000035
v 24.18789268 12.86350004 23.59000035
v 24.15904775 12.53380254 23.59000035
v 26.53192542 12.44338788 23.59000035
v 27.59961411 9.85210296 23.59000035
v 21.95954509 10.99369489 23.59000035
v 21.63986489 11.07935235 23.59000035
v 25.45929514 -14.51475732 23.59000035
v -20.82232200 14.08392843 23.59000035
v 17.82370917 23.25839922 23.59000035
v -21.05634287 14.31795023 23.59000035
v -17.81123877 23.25839922 23.59000035
v -21.32744715 14.50777892 23.59000035
v 21.33991756 11.21922117 23.59000035
v 21.06881328 11.40904985 23.59000035
v 20.83479241 11.64307259 23.59000035
v -27.74270996 -9.40829981 23.59000035
v -26.71702020 -12.01649290 23.59000035
v -22.60646783 10.99369489 23.59000035
v -0.64314116 -27.51594782 23.59000035
v -2.79318402 -29.16756086 23.59000035
v -0.32346172 -27.60160528 23.59000035
v 0.00623538 -29.30160053 23.59000035
v 0.00623538 -27.63045020 23.59000035
v -0.94308960 -27.37607993 23.59000035
v -1.21419330 -27.18625031 23.59000035
v -5.56699000 -28.76666747 23.59000035
v -24.17542227 12.86350004 23.59000035
v -24.14657734 13.19319755 23.59000035
v -25.20907298 14.92080837 23.59000035
v -24.06091802 13.51287682 23.59000035
v -23.92105013 13.81282508 23.59000035
v -23.22609723 14.50777892 23.59000035
v -23.66798185 17.26169698 23.59000035
v -23.49719964 14.31795023 23.59000035
v -23.73122238 14.08392843 23.59000035
v -20.40696703 13.19319755 23.59000035
v 19.96453665 21.44965157 23.59000035
v -20.49262449 13.51287682 23.59000035
v -20.63249238 13.81282508 23.59000035
v -23.73122238 11.64307259 23.59000035
v -28.40236574 7.17066182 23.59000035
v -23.49719964 11.40904985 23.59000035
v -28.95766683 4.42359829 23.59000035
v -23.22609723 11.21922117 23.59000035
v -29.24796194 1.63604668 23.59000035
v -22.92614803 11.07935235 23.59000035
v -20.40696703 12.53380254 23.59000035
v 20.41943744 12.53380254 23.59000035
v -20.37812211 12.86350004 23.59000035
v 20.39059252 12.86350004 23.59000035
v 20.41943744 13.19319755 23.59000035
v 20.50509490 13.51287682 23.59000035
v 20.64496279 13.81282508 23.59000035
v 20.83479241 14.08392843 23.59000035
v 21.06881328 14.31795023 23.59000035
v 21.33991756 14.50777892 23.59000035
v 23.74369279 14.08392843 23.59000035
v 23.93352054 13.81282508 23.59000035
v 25.22154339 14.92080837 23.59000035
v 24.07339029 13.51287682 23.59000035
v 24.15904775 13.19319755 23.59000035
v -1.89241464 -25.73180012 23.59000035
v -13.48350197 -26.01153962 23.59000035
v -1.86356984 -26.06149763 23.59000035
v -10.93671471 -27.18140557 23.59000035
v -1.77791202 -26.38117597 23.59000035
v -8.28980468 -28.10259163 23.59000035
v -1.63804379 -26.68112516 23.59000035
v -1.44821487 -26.95222944 23.59000035
v -22.92614803 14.64764774 23.59000035
v -22.60646783 14.73330520 23.59000035
v -21.91028744 19.44463514 23.59000035
v -22.27677219 14.76215012 23.59000035
v -19.95206624 21.44965157 23.59000035
v -21.94707468 14.73330520 23.59000035
v -21.62739448 14.64764774 23.59000035
v 22.61894010 14.73330520 23.59000035
v 23.68045412 17.26169698 23.59000035
v 22.28924260 14.76215012 23.59000035
v 21.92275785 19.44463514 23.59000035
v 21.95954509 14.73330520 23.59000035
v 21.63986489 14.64764774 23.59000035
v 22.93861844 14.64764774 23.59000035
v 23.23856764 14.50777892 23.59000035
v 23.50967005 14.31795023 23.59000035
v 26.72949061 -12.01649290 23.59000035
v 22.61894010 10.99369489 23.59000035
v 22.28924260 10.96484996 23.59000035
v 24.07339029 12.21412327 23.59000035
v 23.93352054 11.91417500 23.59000035
v 28.41483802 7.17066182 23.59000035
v 23.74369279 11.64307259 23.59000035
v 28.97013724 4.42359829 23.59000035
v 23.50967005 11.40904985 23.59000035
v 29.26043421 1.63604668 23.59000035
v 23.23856764 11.21922117 23.59000035
v 29.28306907 -1.16648839 23.59000035
v 22.93861844 11.07935235 23.59000035
v 27.75518224 -9.40829981 23.59000035
v 28.52698416 -6.71403995 23.59000035
v 29.03783880 -3.95836541 23.59000035
v -0.64314116 -23.94765243 23.59000035
v -0.32346172 -23.86199497 23.59000035
v -21.05634287 11.40904985 23.59000035
v 0.95556036 -24.08752032 23.59000035
v 1.22666406 -24.27734993 23.59000035
v 1.22666406 -27.18625031 23.59000035
v 0.95556036 -27.37607993 23.59000035
v 2.80565466 -29.16756086 23.59000035
v 0.65561192 -27.51594782 23.59000035
v 0.33593251 -27.60160528 23.59000035
v -20.82232200 11.64307259 23.59000035
v 0.33593251 -23.86199497 23.59000035
v 0.00623538 -23.83315004 23.59000035
v -20.29596642 -21.12766542 23.59000035
v -21.94707468 10.99369489 23.59000035
v -22.22154289 -19.09127831 23.59000035
v -22.27677219 10.96484996 23.59000035
v -23.94374833 -16.88023284 23.59000035
v -21.62739448 11.07935235 23.59000035
v -15.90686664 -24.60369654 23.59000035
v -18.18463393 -22.97075838 23.59000035
v 0.65561192 -23.94765243 23.59000035
v 1.46068563 -26.95222944 23.59000035
v 5.57946088 -28.76666747 23.59000035
v 1.65051455 -26.68112516 23.59000035
v -25.44682473 -14.51475732 23.59000035
v -29.27059866 -1.16648839 23.59000035
v -29.02536839 -3.95836541 23.59000035
v -28.51451375 -6.71403995 23.59000035
v 1.87604059 -25.40210262 23.59000035
v 18.19710620 -22.97075838 23.59000035
v 1.79038278 -25.08242428 23.59000035
v 20.30843683 -21.12766542 23.59000035
v 1.46068563 -24.51137081 23.59000035
v 1.65051455 -24.78247508 23.59000035
v 23.95621873 -16.88023284 23.59000035
v 22.23401517 -19.09127831 23.59000035
v -0.94308960 -24.08752032 23.59000035
v -21.32744715 11.21922117 23.59000035
v -1.21419330 -24.27734993 23.59000035
v -1.44821487 -24.51137081 23.59000035
v 1.79038278 -26.38117597 23.59000035
v 8.30227509 -28.10259163 23.59000035
v 1.87604059 -26.06149763 23.59000035
v 10.94918512 -27.18140557 23.59000035
v 1.90488540 -25.73180012 23.59000035
v 13.49597331 -26.01153962 23.59000035
v 15.91933705 -24.60369654 23.59000035
v -1.86356984 -25.40210262 23.59000035
v -1.77791202 -25.08242428 23.59000035
v -1.63804379 -24.78247508 23.59000035
v -20.37812211 12.86350004 21.59000002
v -20.40696703 13.19319755 21.59000002
v -20.49262449 13.51287682 21.59000002
v -20.63249238 13.81282508 21.59000002
v -20.82232200 14.08392843 21.59000002
v -21.05634287 14.31795023 21.59000002
v -21.32744715 14.50777892 21.59000002
v -21.62739448 14.64764774 21.59000002
v -21.94707468 14.73330520 21.59000002
v -22.27677219 14.76215012 21.59000002
v -22.60646783 14.73330520 21.59000002
v -22.92614803 14.64764774 21.59000002
v -23.22609723 14.50777892 21.59000002
v -23.49719964 14.31795023 21.59000002
v -23.73122238 14.08392843 21.59000002
v -23.92105013 13.81282508 21.59000002
v -24.06091802 13.51287682 21.59000002
v -24.14657734 13.19319755 21.59000002
v -24.17542227 12.86350004 21.59000002
v -24.14657734 12.53380254 21.59000002
v -24.06091802 12.21412327 21.59000002
v -23.92105013 11.91417500 21.59000002
v -23.73122238 11.64307259 21.59000002
v -23.49719964 11.40904985 21.59000002
v -23.22609723 11.21922117 21.59000002
v -22.92614803 11.07935235 21.59000002
v -22.60646783 10.99369489 21.59000002
v -22.27677219 10.96484996 21.59000002
v -21.94707468 10.99369489 21.59000002
v -21.62739448 11.07935235 21.59000002
v -21.32744715 11.21922117 21.59000002
v -21.05634287 11.40904985 21.59000002
v -20.82232200 11.64307259 21.59000002
v -20.63249238 11.91417500 21.59000002
v -20.49262449 12.21412327 21.59000002
v -20.40696703 12.53380254 21.59000002
v 24.18789268 12.86350004 21.59000002
v 24.15904775 13.19319755 21.59000002
v 24.07339029 13.51287682 21.59000002
v 23.93352054 13.81282508 21.59000002
v 23.74369279 14.08392843 21.59000002
v 23.50967005 14.31795023 21.59000002
v 23.23856764 14.50777892 21.59000002
v 22.93861844 14.64764774 21.59000002
v 22.61894010 14.73330520 21.59000002
v 22.28924260 14.76215012 21.59000002
v 21.95954509 14.73330520 21.59000002
v 21.63986489 14.64764774 21.59000002
v 21.33991756 14.50777892 21.59000002
v 21.06881328 14.31795023 21.59000002
v 20.83479241 14.08392843 21.59000002
v 20.64496279 13.81282508 21.59000002
v 20.50509490 13.51287682 21.59000002
v 20.41943744 13.19319755 21.59000002
v 20.39059252 12.86350004 21.59000002
v 20.41943744 12.53380254 21.59000002
v 20.50509490 12.21412327 21.59000002
v 20.64496279 11.91417500 21.59000002
v 20.83479241 11.64307259 21.59000002
v 21.06881328 11.40904985 21.59000002
v 21.33991756 11.21922117 21.59000002
v 21.63986489 11.07935235 21.59000002
v 21.95954509 10.99369489 21.59000002
v 22.28924260 10.96484996 21.59000002
v 22.61894010 10.99369489 21.59000002
v 22.93861844 11.07935235 21.59000002
v 23.23856764 11.21922117 21.59000002
v 23.50967005 11.40904985 21.59000002
v 23.74369279 11.64307259 21.59000002
v 23.93352054 11.91417500 21.59000002
v 24.07339029 12.21412327 21.59000002
v 24.15904775 12.53380254 21.59000002
v 1.90488540 -25.73180012 21.59000002
v 1.87604059 -25.40210262 21.59000002
v 1.79038278 -25.08242428 21.59000002
v 1.65051455 -24.78247508 21.59000002
v 1.46068563 -24.51137081 21.59000002
v 1.22666406 -24.27734993 21.59000002
v 0.95556036 -24.08752032 21.59000002
v 0.65561192 -23.94765243 21.59000002
v 0.33593251 -23.86199497 21.59000002
v 0.00623538 -23.83315004 21.59000002
v -0.32346172 -23.86199497 21.59000002
v -0.64314116 -23.94765243 21.59000002
v -0.94308960 -24.08752032 21.59000002
v -1.21419330 -24.27734993 21.59000002
v -1.44821487 -24.51137081 21.59000002
v -1.63804379 -24.78247508 21.59000002
v -1.77791202 -25.08242428 21.59000002
v -1.86356984 -25.40210262 21.59000002
v -1.89241464 -25.73180012 21.59000002
v -1.86356984 -26.06149763 21.59000002
v -1.77791202 -26.38117597 21.59000002
v -1.63804379 -26.68112516 21.59000002
v -1.44821487 -26.95222944 21.59000002
v -1.21419330 -27.18625031 21.59000002
v -0.94308960 -27.37607993 21.59000002
v -0.64314116 -27.51594782 21.59000002
v -0.32346172 -27.60160528 21.59000002
v 0.00623538 -27.63045020 21.59000002
v 0.33593251 -27.60160528 21.59000002
v 0.65561192 -27.51594782 21.59000002
v 0.95556036 -27.37607993 21.59000002
v 1.22666406 -27.18625031 21.59000002
v 1.46068563 -26.95222944 21.59000002
v 1.65051455 -26.68112516 21.59000002
v 1.79038278 -26.38117597 21.59000002
v 1.87604059 -26.06149763 21.59000002
v -17.81123877 23.25839922 21.59000002
v -19.95206624 21.44965157 21.59000002
v -21.91028744 19.44463514 21.59000002
v -23.66798185 17.26169698 21.59000002
v -25.20907298 14.92080837 21.59000002
v -26.51945502 12.44338788 21.59000002
v -27.58714370 9.85210296 21.59000002
v -28.40236574 7.17066182 21.59000002
v -28.95766683 4.42359829 21.59000002
v -29.24796194 1.63604668 21.59000002
v -29.27059866 -1.16648839 21.59000002
v -29.02536839 -3.95836541 21.59000002
v -28.51451375 -6.71403995 21.59000002
v -27.74270996 -9.40829981 21.59000002
v -26.71702020 -12.01649290 21.59000002
v -25.44682473 -14.51475732 21.59000002
v -23.94374833 -16.88023284 21.59000002
v -22.22154289 -19.09127831 21.59000002
v -20.29596642 -21.12766542 21.59000002
v -18.18463393 -22.97075838 21.59000002
v -15.90686664 -24.60369654 21.59000002
v -13.48350197 -26.01153962 21.59000002
v -10.93671471 -27.18140557 21.59000002
v -8.28980468 -28.10259163 21.59000002
v -5.56699000 -28.76666747 21.59000002
v -2.79318402 -29.16756086 21.59000002
v 0.00623538 -29.30160053 21.59000002
v 2.80565466 -29.16756086 21.59000002
v 5.57946088 -28.76666747 21.59000002
v 8.30227509 -28.10259163 21.59000002
v 10.94918512 -27.18140557 21.59000002
v 13.49597331 -26.01153962 21.59000002
v 15.91933705 -24.60369654 21.59000002
v 18.19710620 -22.97075838 21.59000002
v 20.30843683 -21.12766542 21.59000002
v 22.23401517 -19.09127831 21.59000002
v 23.95621873 -16.88023284 21.59000002
v 25.45929514 -14.51475732 21.59000002
v 26.72949061 -12.01649290 21.59000002
v 27.75518224 -9.40829981 21.59000002
v 28.52698416 -6.71403995 21.59000002
v 29.03783880 -3.95836541 21.59000002
v 29.28306907 -1.16648839 21.59000002
v 29.26043421 1.63604668 21.59000002
v 28.97013724 4.42359829 21.59000002
v 28.41483802 7.17066182 21.59000002
v 27.59961411 9.85210296 21.59000002
v 26.53192542 12.44338788 21.59000002
v 25.22154339 14.92080837 21.59000002
v 23.68045412 17.26169698 21.59000002
v 21.92275785 19.44463514 21.59000002
v 19.96453665 21.44965157 21.59000002
v 17.82370917 23.25839922 21.59000002
f 1 2 3
f 3 2 4
f 5 6 7
f 7 6 8
f 7 8 9
f 10 11 12
f 12 11 13
f 14 15 16
f 17 18 19
f 19 18 20
f 19 20 21
f 15 22 16
f 16 22 23
f 16 23 2
f 2 23 24
f 2 24 4
f 25 26 27
f 28 29 30
f 30 29 31
f 30 31 32
f 28 33 29
f 29 33 34
f 29 34 35
f 5 36 6
f 6 36 37
f 6 37 38
f 38 37 39
f 38 39 40
f 41 42 43
f 43 42 38
f 43 38 44
f 44 38 40
f 45 46 47
f 47 46 18
f 47 18 48
f 48 18 17
f 9 8 49
f 49 8 50
f 49 50 51
f 51 50 52
f 51 52 53
f 53 52 54
f 53 54 55
f 1 3 56
f 56 3 57
f 56 57 58
f 58 57 59
f 58 59 45
f 45 59 60
f 45 60 61
f 61 62 45
f 45 62 63
f 45 63 46
f 46 63 64
f 46 64 65
f 66 67 68
f 68 67 69
f 68 69 12
f 12 69 70
f 12 70 10
f 71 72 73
f 73 72 74
f 73 74 75
f 75 74 76
f 75 76 77
f 77 76 35
f 77 35 78
f 78 35 34
f 41 79 42
f 42 79 80
f 42 80 81
f 81 80 82
f 81 82 83
f 83 82 84
f 83 84 20
f 20 84 85
f 20 85 21
f 86 87 88
f 88 87 89
f 88 89 90
f 90 89 46
f 90 46 91
f 91 46 65
f 86 92 87
f 87 92 93
f 87 93 68
f 68 93 94
f 68 94 66
f 95 96 16
f 16 96 97
f 16 97 14
f 11 98 13
f 13 98 99
f 13 99 100
f 100 99 101
f 100 101 102
f 102 101 103
f 102 103 104
f 104 103 105
f 104 105 106
f 106 105 107
f 95 108 96
f 96 108 109
f 96 109 107
f 107 109 110
f 107 110 106
f 111 112 113
f 16 114 115
f 116 117 118
f 118 117 119
f 118 119 31
f 31 119 120
f 31 120 32
f 2 121 122
f 122 121 113
f 122 113 123
f 123 113 112
f 124 125 126
f 126 125 127
f 126 127 128
f 72 129 130
f 130 129 125
f 130 125 131
f 131 125 124
f 2 122 16
f 16 122 132
f 16 132 114
f 116 118 133
f 133 118 134
f 133 134 135
f 27 26 127
f 127 26 136
f 127 136 128
f 54 137 55
f 55 137 138
f 55 138 27
f 27 138 139
f 27 139 25
f 140 141 142
f 142 141 143
f 115 144 16
f 16 144 145
f 16 145 146
f 146 145 142
f 146 142 147
f 147 142 143
f 111 113 148
f 148 113 149
f 148 149 150
f 150 149 129
f 150 129 151
f 135 134 152
f 152 134 153
f 152 153 154
f 154 153 155
f 154 155 156
f 156 155 157
f 156 157 140
f 140 157 158
f 140 158 141
f 71 159 72
f 72 159 160
f 72 160 129
f 129 160 161
f 129 161 151
f 162 58 163
f 163 58 45
f 163 45 164
f 164 45 47
f 164 47 165
f 165 47 48
f 165 48 166
f 166 48 17
f 166 17 167
f 167 17 19
f 167 19 168
f 168 19 21
f 168 21 169
f 169 21 85
f 169 85 170
f 170 85 84
f 170 84 171
f 171 84 82
f 171 82 172
f 172 82 80
f 172 80 173
f 173 80 79
f 173 79 174
f 174 79 41
f 174 41 175
f 175 41 43
f 175 43 176
f 176 43 44
f 176 44 177
f 177 44 40
f 177 40 178
f 178 40 39
f 178 39 179
f 179 39 37
f 179 37 180
f 180 37 36
f 180 36 181
f 181 36 5
f 181 5 182
f 182 5 7
f 182 7 183
f 183 7 9
f 183 9 184
f 184 9 49
f 184 49 185
f 185 49 51
f 185 51 186
f 186 51 53
f 186 53 187
f 187 53 55
f 187 55 188
f 188 55 27
f 188 27 189
f 189 27 127
f 189 127 190
f 190 127 125
f 190 125 191
f 191 125 129
f 191 129 192
f 192 129 149
f 192 149 193
f 193 149 113
f 193 113 194
f 194 113 121
f 194 121 195
f 195 121 2
f 195 2 196
f 196 2 1
f 196 1 197
f 197 1 56
f 197 56 162
f 162 56 58
f 198 10 199
f 199 10 70
f 199 70 200
f 200 70 69
f 200 69 201
f 201 69 67
f 201 67 202
f 202 67 66
f 202 66 203
f 203 66 94
f 203 94 204
f 204 94 93
f 204 93 205
f 205 93 92
f 205 92 206
f 206 92 86
f 206 86 207
f 207 86 88
f 207 88 208
f 208 88 90
f 208 90 209
f 209 90 91
f 209 91 210
f 210 91 65
f 210 65 211
f 211 65 64
f 211 64 212
f 212 64 63
f 212 63 213
f 213 63 62
f 213 62 214
f 214 62 61
f 214 61 215
f 215 61 60
f 215 60 216
f 216 60 59
f 216 59 217
f 217 59 57
f 217 57 218
f 218 57 3
f 218 3 219
f 219 3 4
f 219 4 220
f 220 4 24
f 220 24 221
f 221 24 23
f 221 23 222
f 222 23 22
f 222 22 223
f 223 22 15
f 223 15 224
f 224 15 14
f 224 14 225
f 225 14 97
f 225 97 226
f 226 97 96
f 226 96 227
f 227 96 107
f 227 107 228
f 228 107 105
f 228 105 229
f 229 105 103
f 229 103 230
f 230 103 101
f 230 101 231
f 231 101 99
f 231 99 232
f 232 99 98
f 232 98 233
f 233 98 11
f 233 11 198
f 198 11 10
f 234 156 235
f 235 156 140
f 235 140 236
f 236 140 142
f 236 142 237
f 237 142 145
f 237 145 238
f 238 145 144
f 238 144 239
f 239 144 115
f 239 115 240
f 240 115 114
f 240 114 241
f 241 114 132
f 241 132 242
f 242 132 122
f 242 122 243
f 243 122 123
f 243 123 244
f 244 123 112
f 244 112 245
f 245 112 111
f 245 111 246
f 246 111 148
f 246 148 247
f 247 148 150
f 247 150 248
f 248 150 151
f 248 151 249
f 249 151 161
f 249 161 250
f 250 161 160
f 250 160 251
f 251 160 159
f 251 159 252
f 252 159 71
f 252 71 253
f 253 71 73
f 253 73 254
f 254 73 75
f 254 75 255
f 255 75 77
f 255 77 256
f 256 77 78
f 256 78 257
f 257 78 34
f 257 34 258
f 258 34 33
f 258 33 259
f 259 33 28
f 259 28 260
f 260 28 30
f 260 30 261
f 261 30 32
f 261 32 262
f 262 32 120
f 262 120 263
f 263 120 119
f 263 119 264
f 264 119 117
f 264 117 265
f 265 117 116
f 265 116 266
f 266 116 133
f 266 133 267
f 267 133 135
f 267 135 268
f 268 135 152
f 268 152 269
f 269 152 154
f 269 154 234
f 234 154 156
f 20 270 271
f 20 271 83
f 83 271 272
f 83 272 81
f 81 272 273
f 81 273 42
f 42 273 274
f 42 274 38
f 38 274 275
f 38 275 6
f 6 275 276
f 6 276 8
f 8 276 277
f 8 277 50
f 50 277 278
f 50 278 52
f 52 278 279
f 52 279 54
f 54 279 280
f 54 280 137
f 137 280 281
f 137 281 138
f 138 281 282
f 138 282 139
f 139 282 283
f 139 283 25
f 25 283 284
f 25 284 26
f 26 284 285
f 26 285 136
f 136 285 286
f 136 286 128
f 128 286 287
f 128 287 126
f 126 287 288
f 126 288 124
f 124 288 289
f 124 289 131
f 131 289 290
f 131 290 130
f 130 290 291
f 130 291 72
f 72 291 292
f 72 292 74
f 74 292 293
f 74 293 76
f 76 293 294
f 76 294 35
f 35 294 295
f 35 295 29
f 29 295 296
f 29 296 31
f 31 296 297
f 31 297 118
f 118 297 298
f 118 298 134
f 134 298 299
f 134 299 153
f 153 299 300
f 153 300 155
f 155 300 301
f 155 301 157
f 157 301 302
f 157 302 158
f 158 302 303
f 158 303 141
f 141 303 304
f 141 304 143
f 143 304 305
f 143 305 147
f 147 305 306
f 147 306 146
f 146 306 307
f 146 307 16
f 16 307 308
f 16 308 95
f 95 308 309
f 95 309 108
f 108 309 310
f 108 310 109
f 109 310 311
f 109 311 110
f 110 311 312
f 110 312 106
f 106 312 313
f 106 313 104
f 104 313 314
f 104 314 102
f 102 314 315
f 102 315 100
f 100 315 316
f 100 316 13
f 13 316 317
f 13 317 12
f 12 317 318
f 12 318 68
f 68 318 319
f 68 319 87
f 87 319 320
f 87 320 89
f 89 320 321
f 89 321 46
f 46 321 322
f 46 322 18
f 18 322 20
f 20 322 270
f 197 218 196
f 196 218 195
f 233 198 317
f 317 198 199
f 317 199 318
f 318 199 200
f 318 200 201
f 275 180 181
f 264 265 297
f 321 163 322
f 322 163 164
f 164 165 322
f 322 165 166
f 322 166 270
f 270 166 167
f 275 181 276
f 297 265 298
f 233 317 232
f 232 317 316
f 232 316 231
f 201 202 318
f 318 202 203
f 318 203 319
f 319 203 204
f 204 205 319
f 319 205 206
f 319 206 320
f 320 206 207
f 320 207 321
f 321 207 208
f 321 208 209
f 209 210 321
f 321 210 211
f 321 211 163
f 163 211 212
f 163 212 213
f 213 214 163
f 163 214 215
f 163 215 162
f 162 215 216
f 162 216 197
f 197 216 217
f 197 217 218
f 274 175 176
f 176 177 274
f 274 177 178
f 274 178 275
f 275 178 179
f 275 179 180
f 260 296 259
f 259 296 295
f 259 295 258
f 222 223 307
f 181 182 276
f 276 182 183
f 276 183 277
f 277 183 184
f 277 184 278
f 278 184 185
f 278 185 279
f 279 185 186
f 279 186 280
f 280 186 187
f 260 261 296
f 296 261 262
f 296 262 297
f 297 262 263
f 297 263 264
f 218 219 195
f 195 219 220
f 195 220 307
f 307 220 221
f 307 221 222
f 175 274 174
f 174 274 273
f 174 273 173
f 265 266 298
f 298 266 267
f 298 267 299
f 299 267 268
f 299 268 300
f 300 268 269
f 300 269 301
f 301 269 234
f 301 234 302
f 302 234 235
f 167 168 270
f 270 168 169
f 270 169 271
f 271 169 170
f 271 170 272
f 272 170 171
f 272 171 273
f 273 171 172
f 273 172 173
f 284 188 285
f 285 188 189
f 285 189 286
f 286 189 287
f 287 189 288
f 288 189 190
f 288 190 289
f 231 316 230
f 230 316 315
f 230 315 229
f 229 315 314
f 229 314 228
f 228 314 313
f 228 313 227
f 284 283 188
f 188 283 282
f 188 282 187
f 187 282 281
f 187 281 280
f 293 292 191
f 191 292 291
f 191 291 190
f 190 291 290
f 190 290 289
f 236 304 235
f 235 304 303
f 235 303 302
f 307 306 236
f 236 306 305
f 236 305 304
f 236 237 307
f 307 237 238
f 307 238 239
f 193 242 243
f 313 312 227
f 227 312 311
f 227 311 226
f 226 311 310
f 223 224 307
f 307 224 225
f 307 225 308
f 308 225 226
f 308 226 309
f 309 226 310
f 193 194 242
f 242 194 195
f 242 195 241
f 241 195 307
f 241 307 240
f 240 307 239
f 243 244 193
f 193 244 245
f 193 245 192
f 192 245 246
f 192 246 191
f 191 246 247
f 191 247 248
f 294 256 295
f 295 256 257
f 295 257 258
f 248 249 191
f 191 249 250
f 191 250 293
f 293 250 251
f 293 251 252
f 252 253 293
f 293 253 254
f 293 254 294
f 294 254 255
f 294 255 256

