# Exported by SolidWorks
g 
v 17.12499931 -0.00000000 -2.77000130
v 17.12499931 -0.00000000 -3.26999882
v 16.95069298 -2.43714149 -2.77000130
v 16.95069298 -2.43714149 -3.26999882
v 16.43131673 -4.82467003 -2.77000130
v 16.43131673 -4.82467003 -3.26999882
v 15.57744760 -7.11398199 -2.77000130
v 15.57744760 -7.11398199 -3.26999882
v 14.40646686 -9.25847422 -2.77000130
v 14.40646686 -9.25847422 -3.26999882
v 12.94221170 -11.21449005 -2.77000130
v 12.94221170 -11.21449005 -3.26999882
v 11.21449005 -12.94221170 -2.77000130
v 11.21449005 -12.94221170 -3.26999882
v 9.25847422 -14.40646686 -2.77000130
v 9.25847422 -14.40646686 -3.26999882
v 7.11398199 -15.57744760 -2.77000130
v 7.11398199 -15.57744760 -3.26999882
v 4.82467003 -16.43131673 -2.77000130
v 4.82467003 -16.43131673 -3.26999882
v 2.43714149 -16.95069298 -2.77000130
v 2.43714149 -16.95069298 -3.26999882
v -0.00000000 -17.12499931 -2.77000130
v -0.00000000 -17.12499931 -3.26999882
v -2.43714149 -16.95069298 -2.77000130
v -2.43714149 -16.95069298 -3.26999882
v -4.82467003 -16.43131673 -2.77000130
v -4.82467003 -16.43131673 -3.26999882
v -7.11398199 -15.57744760 -2.77000130
v -7.11398199 -15.57744760 -3.26999882
v -9.25847422 -14.40646686 -2.77000130
v -9.25847422 -14.40646686 -3.26999882
v -11.21449005 -12.94221170 -2.77000130
v -11.21449005 -12.94221170 -3.26999882
v -12.94221170 -11.21449005 -2.77000130
v -12.94221170 -11.21449005 -3.26999882
v -14.40646686 -9.25847422 -2.77000130
v -14.40646686 -9.25847422 -3.26999882
v -15.57744760 -7.11398199 -2.77000130
v -15.57744760 -7.11398199 -3.26999882
v -16.43131673 -4.82467003 -2.77000130
v -16.43131673 -4.82467003 -3.26999882
v -16.95069298 -2.43714149 -2.77000130
v -16.95069298 -2.43714149 -3.26999882
v -17.12499931 0.00000000 -2.77000130
v -17.12499931 0.00000000 -3.26999882
v -16.95069298 2.43714149 -2.77000130
v -16.95069298 2.43714149 -3.26999882
v -16.43131673 4.82467003 -2.77000130
v -16.43131673 4.82467003 -3.26999882
v -15.57744760 7.11398199 -2.77000130
v -15.57744760 7.11398199 -3.26999882
v -14.40646686 9.25847422 -2.77000130
v -14.40646686 9.25847422 -3.26999882
v -12.94221170 11.21449005 -2.77000130
v -12.94221170 11.21449005 -3.26999882
v -11.21449005 12.94221170 -2.77000130
v -11.21449005 12.94221170 -3.26999882
v -9.25847422 14.40646686 -2.77000130
v -9.25847422 14.40646686 -3.26999882
v -7.11398199 15.57744760 -2.77000130
v -7.11398199 15.57744760 -3.26999882
v -4.82467003 16.43131673 -2.77000130
v -4.82467003 16.43131673 -3.26999882
v -2.43714149 16.95069298 -2.77000130
v -2.43714149 16.95069298 -3.26999882
v -0.00000000 17.12499931 -2.77000130
v -0.00000000 17.12499931 -3.26999882
v 2.43714149 16.95069298 -2.77000130
v 2.43714149 16.95069298 -3.26999882
v 4.82467003 16.43131673 -2.77000130
v 4.82467003 16.43131673 -3.26999882
v 7.11398199 15.57744760 -2.77000130
v 7.11398199 15.57744760 -3.26999882
v 9.25847422 14.40646686 -2.77000130
v 9.25847422 14.40646686 -3.26999882
v 11.21449005 12.94221170 -2.77000130
v 11.21449005 12.94221170 -3.26999882
v 12.94221170 11.21449005 -2.77000130
v 12.94221170 11.21449005 -3.26999882
v 14.40646686 9.25847422 -2.77000130
v 14.40646686 9.25847422 -3.26999882
v 15.57744760 7.11398199 -2.77000130
v 15.57744760 7.11398199 -3.26999882
v 16.43131673 4.82467003 -2.77000130
v 16.43131673 4.82467003 -3.26999882
v 16.95069298 2.43714149 -2.77000130
v 16.95069298 2.43714149 -3.26999882
v 0.63417375 -23.98462221 -3.26999882
v 0.32197844 -23.90096895 -3.26999882
v 34.74999964 -0.00000000 -3.26999882
v -0.00000000 -23.87280017 -3.26999882
v -0.63417375 -27.46937796 -3.26999882
v -0.32197844 -27.55303122 -3.26999882
v -1.76005857 -34.70539674 -3.26999882
v -0.00000000 -27.58120000 -3.26999882
v 1.76005857 -34.70540419 -3.26999882
v 34.03866664 6.99512335 -3.26999882
v 24.02261272 12.22932618 -3.26999882
v 33.15633908 10.40286850 -3.26999882
v 24.10626598 12.54152134 -3.26999882
v 31.93378448 13.70386593 -3.26999882
v 0.92710002 -24.12121557 -3.26999882
v 1.19185681 -24.30660091 -3.26999882
v 8.71017575 -33.64067897 -3.26999882
v 1.42039964 -26.91885643 -3.26999882
v 12.06885744 -32.58688748 -3.26999882
v 1.60578429 -26.65410005 -3.26999882
v 15.30369651 -31.19870834 -3.26999882
v 1.74237811 -26.36117302 -3.26999882
v 18.38149875 -29.49038707 -3.26999882
v 1.82603044 -26.04897879 -3.26999882
v 21.27068304 -27.47945674 -3.26999882
v 1.85420003 -25.72700009 -3.26999882
v 21.64606377 11.12112217 -3.26999882
v 21.95825800 11.03746984 -3.26999882
v 22.28023484 11.00930013 -3.26999882
v 22.60221355 11.03746984 -3.26999882
v 22.91440964 11.12112217 -3.26999882
v 23.20733480 11.25771552 -3.26999882
v 23.47209305 11.44309994 -3.26999882
v 34.57170725 3.51559930 -3.26999882
v 23.70063588 11.67164184 -3.26999882
v 23.88601936 11.93640009 -3.26999882
v 1.82603044 -25.40502138 -3.26999882
v 26.36684477 -22.63519354 -3.26999882
v 23.94160070 -25.18654987 -3.26999882
v 1.74237811 -25.09282716 -3.26999882
v 30.38354404 -16.86424389 -3.26999882
v 28.52153033 -19.85157095 -3.26999882
v 1.60578429 -24.79990013 -3.26999882
v 33.15633908 -10.40286850 -3.26999882
v 31.93378448 -13.70386593 -3.26999882
v -0.32197844 -23.90096895 -3.26999882
v -0.63417375 -23.98462221 -3.26999882
v -0.92710002 -24.12121557 -3.26999882
v 1.76005857 34.70539674 -3.26999882
v 5.26211504 34.34927389 -3.26999882
v -20.85983567 14.05535638 -3.26999882
v 0.32197844 -27.55303122 -3.26999882
v 0.63417375 -27.46937796 -3.26999882
v 5.26211504 -34.34927389 -3.26999882
v 0.92710002 -27.33278461 -3.26999882
v 1.19185681 -27.14739926 -3.26999882
v 21.35313489 11.25771552 -3.26999882
v 21.08837850 11.44309994 -3.26999882
v 1.42039964 -24.53514375 -3.26999882
v 34.57170725 -3.51559930 -3.26999882
v 34.03866664 -6.99512335 -3.26999882
v -26.36684477 22.63519354 -3.26999882
v -23.94160070 25.18654987 -3.26999882
v -22.60221355 14.68953025 -3.26999882
v -23.47209305 11.44309994 -3.26999882
v -23.20733480 11.25771552 -3.26999882
v -34.03866664 -6.99512335 -3.26999882
v 20.53785697 12.22932618 -3.26999882
v 20.67445219 11.93640009 -3.26999882
v 20.85983567 11.67164184 -3.26999882
v -31.93378448 13.70386593 -3.26999882
v -30.38354404 16.86424389 -3.26999882
v -24.02261272 13.49767391 -3.26999882
v 28.52153033 19.85157095 -3.26999882
v 30.38354404 16.86424389 -3.26999882
v 23.88601936 13.79060000 -3.26999882
v 26.36684477 22.63519354 -3.26999882
v 22.91440964 14.60587792 -3.26999882
v 23.94160070 25.18654987 -3.26999882
v 22.60221355 14.68953025 -3.26999882
v 21.27068304 27.47945674 -3.26999882
v 22.28023484 14.71769996 -3.26999882
v 18.38149875 29.49038707 -3.26999882
v 21.95825800 14.68953025 -3.26999882
v 15.30369651 31.19870834 -3.26999882
v 21.64606377 14.60587792 -3.26999882
v 12.06885744 32.58688748 -3.26999882
v 21.35313489 14.46928456 -3.26999882
v 21.08837850 14.28389922 -3.26999882
v -20.67445219 13.79060000 -3.26999882
v 8.71017575 33.64067897 -3.26999882
v -22.28023484 14.71769996 -3.26999882
v -21.27068304 27.47945674 -3.26999882
v -21.95825800 14.68953025 -3.26999882
v -18.38149875 29.49038707 -3.26999882
v -21.64606377 14.60587792 -3.26999882
v -15.30369651 31.19870834 -3.26999882
v -21.35313489 14.46928456 -3.26999882
v -12.06885744 32.58688748 -3.26999882
v -21.08837850 14.28389922 -3.26999882
v -22.91440964 14.60587792 -3.26999882
v -23.20733480 14.46928456 -3.26999882
v -28.52153033 19.85157095 -3.26999882
v -21.64606377 11.12112217 -3.26999882
v -21.35313489 11.25771552 -3.26999882
v -21.08837850 11.44309994 -3.26999882
v -20.85983567 11.67164184 -3.26999882
v 24.13443476 12.86350004 -3.26999882
v 24.10626598 13.18547875 -3.26999882
v 24.02261272 13.49767391 -3.26999882
v -8.71017575 33.64067897 -3.26999882
v -5.26211504 34.34927389 -3.26999882
v -1.76005857 34.70540419 -3.26999882
v -23.47209305 14.28389922 -3.26999882
v -23.70063588 14.05535638 -3.26999882
v -23.88601936 13.79060000 -3.26999882
v -24.10626598 13.18547875 -3.26999882
v -24.13443476 12.86350004 -3.26999882
v -33.15633908 10.40286850 -3.26999882
v -24.10626598 12.54152134 -3.26999882
v -34.03866664 6.99512335 -3.26999882
v -20.67445219 11.93640009 -3.26999882
v -20.53785697 12.22932618 -3.26999882
v -20.45420557 12.54152134 -3.26999882
v -20.42603493 12.86350004 -3.26999882
v -20.53785697 13.49767391 -3.26999882
v -20.45420557 13.18547875 -3.26999882
v 20.53785697 13.49767391 -3.26999882
v 20.45420557 13.18547875 -3.26999882
v -33.15633908 -10.40286850 -3.26999882
v -22.91440964 11.12112217 -3.26999882
v -31.93378448 -13.70386593 -3.26999882
v -1.19185681 -24.30660091 -3.26999882
v 23.70063588 14.05535638 -3.26999882
v 23.47209305 14.28389922 -3.26999882
v 23.20733480 14.46928456 -3.26999882
v 20.45420557 12.54152134 -3.26999882
v 20.42603493 12.86350004 -3.26999882
v -24.02261272 12.22932618 -3.26999882
v -23.88601936 11.93640009 -3.26999882
v -34.57170725 3.51559930 -3.26999882
v -23.70063588 11.67164184 -3.26999882
v -34.74999964 0.00000000 -3.26999882
v -34.57170725 -3.51559930 -3.26999882
v -0.92710002 -27.33278461 -3.26999882
v -5.26211504 -34.34927389 -3.26999882
v -1.19185681 -27.14739926 -3.26999882
v -8.71017575 -33.64067897 -3.26999882
v -1.42039964 -26.91885643 -3.26999882
v 20.67445219 13.79060000 -3.26999882
v 20.85983567 14.05535638 -3.26999882
v -1.60578429 -26.65410005 -3.26999882
v -12.06885744 -32.58688748 -3.26999882
v -1.74237811 -26.36117302 -3.26999882
v -15.30369651 -31.19870834 -3.26999882
v -1.82603044 -26.04897879 -3.26999882
v -18.38149875 -29.49038707 -3.26999882
v -1.85420003 -25.72700009 -3.26999882
v -30.38354404 -16.86424389 -3.26999882
v -22.60221355 11.03746984 -3.26999882
v -28.52153033 -19.85157095 -3.26999882
v -22.28023484 11.00930013 -3.26999882
v -21.95825800 11.03746984 -3.26999882
v -21.27068304 -27.47945674 -3.26999882
v -23.94160070 -25.18654987 -3.26999882
v -1.82603044 -25.40502138 -3.26999882
v -26.36684477 -22.63519354 -3.26999882
v -1.42039964 -24.53514375 -3.26999882
v -1.60578429 -24.79990013 -3.26999882
v -1.74237811 -25.09282716 -3.26999882
v 1.85420003 -25.72700009 -2.77000130
v 1.82603044 -26.04897879 -2.77000130
v 1.74237811 -26.36117302 -2.77000130
v 1.60578429 -26.65410005 -2.77000130
v 1.42039964 -26.91885643 -2.77000130
v 1.19185681 -27.14739926 -2.77000130
v 0.92710002 -27.33278461 -2.77000130
v 0.63417375 -27.46937796 -2.77000130
v 0.32197844 -27.55303122 -2.77000130
v -0.00000000 -27.58120000 -2.77000130
v -0.32197844 -27.55303122 -2.77000130
v -0.63417375 -27.46937796 -2.77000130
v -0.92710002 -27.33278461 -2.77000130
v -1.19185681 -27.14739926 -2.77000130
v -1.42039964 -26.91885643 -2.77000130
v -1.60578429 -26.65410005 -2.77000130
v -1.74237811 -26.36117302 -2.77000130
v -1.82603044 -26.04897879 -2.77000130
v -1.85420003 -25.72700009 -2.77000130
v -1.82603044 -25.40502138 -2.77000130
v -1.74237811 -25.09282716 -2.77000130
v -1.60578429 -24.79990013 -2.77000130
v -1.42039964 -24.53514375 -2.77000130
v -1.19185681 -24.30660091 -2.77000130
v -0.92710002 -24.12121557 -2.77000130
v -0.63417375 -23.98462221 -2.77000130
v -0.32197844 -23.90096895 -2.77000130
v -0.00000000 -23.87280017 -2.77000130
v 0.32197844 -23.90096895 -2.77000130
v 0.63417375 -23.98462221 -2.77000130
v 0.92710002 -24.12121557 -2.77000130
v 1.19185681 -24.30660091 -2.77000130
v 1.42039964 -24.53514375 -2.77000130
v 1.60578429 -24.79990013 -2.77000130
v 1.74237811 -25.09282716 -2.77000130
v 1.82603044 -25.40502138 -2.77000130
v -26.36684477 -22.63519354 -2.77000130
v -31.93378448 13.70386593 -2.77000130
v -33.15633908 10.40286850 -2.77000130
v -24.10626598 12.54152134 -2.77000130
v 21.35313489 11.25771552 -2.77000130
v 20.42603493 12.86350004 -2.77000130
v -30.38354404 -16.86424389 -2.77000130
v -28.52153033 -19.85157095 -2.77000130
v 20.45420557 12.54152134 -2.77000130
v 20.53785697 12.22932618 -2.77000130
v 20.67445219 11.93640009 -2.77000130
v -33.15633908 -10.40286850 -2.77000130
v -31.93378448 -13.70386593 -2.77000130
v -34.74999964 0.00000000 -2.77000130
v -34.57170725 -3.51559930 -2.77000130
v -34.03866664 -6.99512335 -2.77000130
v -24.02261272 12.22932618 -2.77000130
v -34.03866664 6.99512335 -2.77000130
v -23.88601936 11.93640009 -2.77000130
v -24.13443476 12.86350004 -2.77000130
v -24.10626598 13.18547875 -2.77000130
v -30.38354404 16.86424389 -2.77000130
v -24.02261272 13.49767391 -2.77000130
v -23.88601936 13.79060000 -2.77000130
v -28.52153033 19.85157095 -2.77000130
v -23.70063588 11.67164184 -2.77000130
v -34.57170725 3.51559930 -2.77000130
v -23.47209305 11.44309994 -2.77000130
v -23.20733480 11.25771552 -2.77000130
v 20.85983567 11.67164184 -2.77000130
v 21.08837850 11.44309994 -2.77000130
v -23.70063588 14.05535638 -2.77000130
v -23.47209305 14.28389922 -2.77000130
v -26.36684477 22.63519354 -2.77000130
v -21.64606377 11.12112217 -2.77000130
v -21.95825800 11.03746984 -2.77000130
v -22.28023484 11.00930013 -2.77000130
v -22.60221355 11.03746984 -2.77000130
v -22.91440964 11.12112217 -2.77000130
v 1.76005857 34.70539674 -2.77000130
v 20.85983567 14.05535638 -2.77000130
v 5.26211504 34.34927389 -2.77000130
v 21.08837850 14.28389922 -2.77000130
v 8.71017575 33.64067897 -2.77000130
v -21.35313489 11.25771552 -2.77000130
v -21.08837850 11.44309994 -2.77000130
v -20.85983567 11.67164184 -2.77000130
v -20.67445219 11.93640009 -2.77000130
v -20.53785697 12.22932618 -2.77000130
v 12.06885744 32.58688748 -2.77000130
v 21.35313489 14.46928456 -2.77000130
v 15.30369651 31.19870834 -2.77000130
v 21.64606377 14.60587792 -2.77000130
v 18.38149875 29.49038707 -2.77000130
v 21.95825800 14.68953025 -2.77000130
v 21.27068304 27.47945674 -2.77000130
v 22.28023484 14.71769996 -2.77000130
v 23.94160070 25.18654987 -2.77000130
v 22.60221355 14.68953025 -2.77000130
v 26.36684477 22.63519354 -2.77000130
v 30.38354404 16.86424389 -2.77000130
v 28.52153033 19.85157095 -2.77000130
v 23.70063588 14.05535638 -2.77000130
v -1.76005857 -34.70539674 -2.77000130
v 1.76005857 -34.70540419 -2.77000130
v -5.26211504 -34.34927389 -2.77000130
v -8.71017575 -33.64067897 -2.77000130
v -23.20733480 14.46928456 -2.77000130
v -22.91440964 14.60587792 -2.77000130
v -23.94160070 25.18654987 -2.77000130
v -22.60221355 14.68953025 -2.77000130
v -21.27068304 27.47945674 -2.77000130
v -22.28023484 14.71769996 -2.77000130
v -18.38149875 29.49038707 -2.77000130
v -21.95825800 14.68953025 -2.77000130
v -15.30369651 31.19870834 -2.77000130
v -21.64606377 14.60587792 -2.77000130
v -12.06885744 32.58688748 -2.77000130
v -21.35313489 14.46928456 -2.77000130
v -8.71017575 33.64067897 -2.77000130
v -21.08837850 14.28389922 -2.77000130
v -5.26211504 34.34927389 -2.77000130
v -20.53785697 13.49767391 -2.77000130
v -20.45420557 13.18547875 -2.77000130
v 22.91440964 14.60587792 -2.77000130
v 23.20733480 14.46928456 -2.77000130
v 23.47209305 14.28389922 -2.77000130
v -20.45420557 12.54152134 -2.77000130
v -20.42603493 12.86350004 -2.77000130
v 23.88601936 13.79060000 -2.77000130
v 24.02261272 13.49767391 -2.77000130
v 31.93378448 13.70386593 -2.77000130
v 21.27068304 -27.47945674 -2.77000130
v 22.28023484 11.00930013 -2.77000130
v 18.38149875 -29.49038707 -2.77000130
v 21.95825800 11.03746984 -2.77000130
v 15.30369651 -31.19870834 -2.77000130
v 8.71017575 -33.64067897 -2.77000130
v 12.06885744 -32.58688748 -2.77000130
v -20.67445219 13.79060000 -2.77000130
v -20.85983567 14.05535638 -2.77000130
v -1.76005857 34.70540419 -2.77000130
v 20.67445219 13.79060000 -2.77000130
v 20.53785697 13.49767391 -2.77000130
v 20.45420557 13.18547875 -2.77000130
v 23.94160070 -25.18654987 -2.77000130
v 26.36684477 -22.63519354 -2.77000130
v 22.60221355 11.03746984 -2.77000130
v -12.06885744 -32.58688748 -2.77000130
v -15.30369651 -31.19870834 -2.77000130
v -18.38149875 -29.49038707 -2.77000130
v -21.27068304 -27.47945674 -2.77000130
v -23.94160070 -25.18654987 -2.77000130
v 24.10626598 13.18547875 -2.77000130
v 24.13443476 12.86350004 -2.77000130
v 33.15633908 10.40286850 -2.77000130
v 24.10626598 12.54152134 -2.77000130
v 34.03866664 6.99512335 -2.77000130
v 24.02261272 12.22932618 -2.77000130
v 23.88601936 11.93640009 -2.77000130
v 34.57170725 3.51559930 -2.77000130
v 23.70063588 11.67164184 -2.77000130
v 34.74999964 -0.00000000 -2.77000130
v 23.47209305 11.44309994 -2.77000130
v 22.91440964 11.12112217 -2.77000130
v 33.15633908 -10.40286850 -2.77000130
v 23.20733480 11.25771552 -2.77000130
v 34.03866664 -6.99512335 -2.77000130
v 34.57170725 -3.51559930 -2.77000130
v 28.52153033 -19.85157095 -2.77000130
v 30.38354404 -16.86424389 -2.77000130
v 31.93378448 -13.70386593 -2.77000130
v 5.26211504 -34.34927389 -2.77000130
v 21.64606377 11.12112217 -2.77000130
f 1 2 3
f 3 2 4
f 3 4 5
f 5 4 6
f 5 6 7
f 7 6 8
f 7 8 9
f 9 8 10
f 9 10 11
f 11 10 12
f 11 12 13
f 13 12 14
f 13 14 15
f 15 14 16
f 15 16 17
f 17 16 18
f 17 18 19
f 19 18 20
f 19 20 21
f 21 20 22
f 21 22 23
f 23 22 24
f 23 24 25
f 25 24 26
f 25 26 27
f 27 26 28
f 27 28 29
f 29 28 30
f 29 30 31
f 31 30 32
f 31 32 33
f 33 32 34
f 33 34 35
f 35 34 36
f 35 36 37
f 37 36 38
f 37 38 39
f 39 38 40
f 39 40 41
f 41 40 42
f 41 42 43
f 43 42 44
f 43 44 45
f 45 44 46
f 45 46 47
f 47 46 48
f 47 48 49
f 49 48 50
f 49 50 51
f 51 50 52
f 51 52 53
f 53 52 54
f 53 54 55
f 55 54 56
f 55 56 57
f 57 56 58
f 57 58 59
f 59 58 60
f 59 60 61
f 61 60 62
f 61 62 63
f 63 62 64
f 63 64 65
f 65 64 66
f 65 66 67
f 67 66 68
f 67 68 69
f 69 68 70
f 69 70 71
f 71 70 72
f 71 72 73
f 73 72 74
f 73 74 75
f 75 74 76
f 75 76 77
f 77 76 78
f 77 78 79
f 79 78 80
f 79 80 81
f 81 80 82
f 81 82 83
f 83 82 84
f 83 84 85
f 85 84 86
f 85 86 87
f 87 86 88
f 87 88 1
f 1 88 2
f 22 89 90
f 14 12 91
f 22 90 24
f 24 90 92
f 24 92 26
f 93 94 95
f 95 94 96
f 95 96 97
f 98 99 100
f 100 99 101
f 100 101 102
f 89 22 103
f 103 22 20
f 103 20 104
f 104 20 18
f 104 18 16
f 105 106 107
f 107 106 108
f 107 108 109
f 109 108 110
f 109 110 111
f 111 110 112
f 111 112 113
f 113 112 114
f 88 115 2
f 2 115 116
f 2 116 117
f 118 119 91
f 119 120 91
f 91 120 121
f 91 121 122
f 122 121 123
f 122 123 98
f 98 123 124
f 98 124 99
f 125 126 114
f 114 126 127
f 114 127 113
f 128 129 125
f 125 129 130
f 125 130 126
f 131 132 128
f 128 132 133
f 128 133 129
f 92 134 26
f 26 134 135
f 26 135 28
f 28 135 136
f 28 136 30
f 30 136 32
f 137 138 139
f 96 140 97
f 97 140 141
f 97 141 142
f 142 141 143
f 142 143 105
f 105 143 144
f 105 144 106
f 88 86 115
f 115 86 84
f 115 84 145
f 145 84 82
f 145 82 146
f 16 14 104
f 104 14 91
f 104 91 147
f 147 91 148
f 147 148 131
f 131 148 149
f 131 149 132
f 12 10 91
f 91 10 8
f 91 8 6
f 150 151 152
f 153 154 155
f 117 118 2
f 2 118 91
f 2 91 4
f 4 91 6
f 156 157 82
f 82 157 158
f 82 158 146
f 159 160 161
f 162 163 164
f 165 166 167
f 167 166 168
f 167 168 169
f 169 168 170
f 169 170 171
f 171 170 172
f 171 172 173
f 173 172 174
f 173 174 175
f 175 174 176
f 175 176 177
f 139 138 178
f 178 138 179
f 178 179 175
f 152 151 180
f 180 151 181
f 180 181 182
f 182 181 183
f 182 183 184
f 184 183 185
f 184 185 186
f 186 185 187
f 186 187 188
f 152 189 150
f 150 189 190
f 150 190 191
f 192 193 48
f 48 193 50
f 50 193 194
f 50 194 52
f 52 194 195
f 52 195 54
f 101 196 102
f 102 196 197
f 102 197 163
f 163 197 198
f 163 198 164
f 187 199 188
f 188 199 200
f 188 200 139
f 139 200 201
f 139 201 137
f 190 202 191
f 191 202 203
f 191 203 160
f 160 203 204
f 160 204 161
f 161 205 159
f 159 205 206
f 159 206 207
f 207 206 208
f 207 208 209
f 195 210 54
f 54 210 211
f 54 211 56
f 56 211 212
f 56 212 58
f 58 212 213
f 58 213 60
f 214 66 215
f 215 66 64
f 215 64 213
f 213 64 62
f 213 62 60
f 216 217 74
f 155 154 218
f 218 154 219
f 218 219 220
f 221 36 136
f 136 36 34
f 136 34 32
f 164 222 162
f 162 222 223
f 162 223 165
f 165 223 224
f 165 224 166
f 156 82 225
f 225 82 80
f 225 80 226
f 226 80 78
f 226 78 217
f 217 78 76
f 217 76 74
f 208 227 209
f 209 227 228
f 209 228 229
f 229 228 230
f 229 230 231
f 231 230 153
f 231 153 232
f 232 153 155
f 93 95 233
f 233 95 234
f 233 234 235
f 235 234 236
f 235 236 237
f 74 72 216
f 216 72 70
f 216 70 238
f 238 70 175
f 238 175 239
f 239 175 177
f 214 178 66
f 66 178 175
f 66 175 68
f 68 175 70
f 237 236 240
f 240 236 241
f 240 241 242
f 242 241 243
f 242 243 244
f 244 243 245
f 244 245 246
f 220 219 247
f 247 219 248
f 247 248 249
f 249 248 250
f 249 250 251
f 245 252 246
f 246 252 253
f 246 253 254
f 254 253 255
f 254 255 249
f 48 46 192
f 192 46 44
f 192 44 251
f 251 44 42
f 251 42 249
f 42 40 249
f 249 40 38
f 249 38 36
f 221 256 36
f 36 256 257
f 36 257 249
f 249 257 258
f 249 258 254
f 259 114 260
f 260 114 112
f 260 112 261
f 261 112 110
f 261 110 262
f 262 110 108
f 262 108 263
f 263 108 106
f 263 106 264
f 264 106 144
f 264 144 265
f 265 144 143
f 265 143 266
f 266 143 141
f 266 141 267
f 267 141 140
f 267 140 268
f 268 140 96
f 268 96 269
f 269 96 94
f 269 94 270
f 270 94 93
f 270 93 271
f 271 93 233
f 271 233 272
f 272 233 235
f 272 235 273
f 273 235 237
f 273 237 274
f 274 237 240
f 274 240 275
f 275 240 242
f 275 242 276
f 276 242 244
f 276 244 277
f 277 244 246
f 277 246 278
f 278 246 254
f 278 254 279
f 279 254 258
f 279 258 280
f 280 258 257
f 280 257 281
f 281 257 256
f 281 256 282
f 282 256 221
f 282 221 283
f 283 221 136
f 283 136 284
f 284 136 135
f 284 135 285
f 285 135 134
f 285 134 286
f 286 134 92
f 286 92 287
f 287 92 90
f 287 90 288
f 288 90 89
f 288 89 289
f 289 89 103
f 289 103 290
f 290 103 104
f 290 104 291
f 291 104 147
f 291 147 292
f 292 147 131
f 292 131 293
f 293 131 128
f 293 128 294
f 294 128 125
f 294 125 259
f 259 125 114
f 277 278 295
f 296 297 298
f 1 3 299
f 300 71 73
f 279 301 278
f 278 301 302
f 278 302 295
f 13 15 283
f 283 15 17
f 283 17 19
f 73 75 300
f 300 75 77
f 300 77 303
f 303 77 79
f 303 79 304
f 304 79 81
f 304 81 305
f 280 306 279
f 279 306 307
f 279 307 301
f 282 308 281
f 281 308 309
f 281 309 280
f 280 309 310
f 280 310 306
f 298 297 311
f 311 297 312
f 311 312 313
f 37 39 308
f 298 314 296
f 296 314 315
f 296 315 316
f 315 317 316
f 316 317 318
f 316 318 319
f 283 284 13
f 13 284 285
f 13 285 286
f 313 312 320
f 320 312 321
f 320 321 322
f 322 321 308
f 322 308 323
f 305 81 324
f 324 81 83
f 324 83 325
f 325 83 85
f 325 85 299
f 299 85 87
f 299 87 1
f 39 41 308
f 308 41 43
f 308 43 45
f 318 326 319
f 319 326 327
f 319 327 328
f 282 27 29
f 45 329 330
f 330 331 45
f 45 331 332
f 45 332 308
f 308 332 333
f 308 333 323
f 334 335 336
f 336 335 337
f 336 337 338
f 286 287 13
f 13 287 288
f 13 288 11
f 11 288 289
f 19 21 283
f 283 21 23
f 283 23 282
f 282 23 25
f 282 25 27
f 329 45 339
f 339 45 47
f 339 47 340
f 340 47 49
f 340 49 341
f 341 49 51
f 341 51 342
f 342 51 53
f 342 53 343
f 338 337 344
f 344 337 345
f 344 345 346
f 346 345 347
f 346 347 348
f 348 347 349
f 348 349 350
f 350 349 351
f 350 351 352
f 352 351 353
f 352 353 354
f 355 356 357
f 268 358 267
f 267 358 359
f 268 269 358
f 358 269 270
f 358 270 360
f 360 270 271
f 360 271 361
f 327 362 328
f 328 362 363
f 328 363 364
f 364 363 365
f 364 365 366
f 366 365 367
f 366 367 368
f 368 367 369
f 368 369 370
f 370 369 371
f 370 371 372
f 372 371 373
f 372 373 374
f 374 373 375
f 374 375 376
f 377 378 61
f 353 379 354
f 354 379 380
f 354 380 356
f 356 380 381
f 356 381 357
f 289 290 11
f 11 290 291
f 11 291 292
f 65 67 376
f 376 67 69
f 343 53 382
f 382 53 55
f 382 55 383
f 383 55 57
f 383 57 378
f 378 57 59
f 378 59 61
f 357 384 355
f 355 384 385
f 355 385 386
f 387 388 389
f 389 388 390
f 389 390 391
f 392 393 262
f 29 31 282
f 282 31 33
f 282 33 308
f 308 33 35
f 308 35 37
f 61 63 377
f 377 63 65
f 377 65 394
f 394 65 376
f 394 376 395
f 395 376 375
f 334 396 335
f 335 396 376
f 335 376 397
f 397 376 69
f 397 69 398
f 398 69 71
f 398 71 399
f 399 71 300
f 387 400 388
f 388 400 401
f 388 401 402
f 271 272 361
f 361 272 273
f 361 273 403
f 403 273 274
f 403 274 404
f 404 274 275
f 404 275 405
f 405 275 276
f 405 276 406
f 406 276 277
f 406 277 407
f 407 277 295
f 385 408 386
f 386 408 409
f 386 409 410
f 410 409 411
f 410 411 412
f 411 413 412
f 412 413 414
f 412 414 415
f 415 414 416
f 415 416 417
f 417 416 418
f 419 420 421
f 421 420 422
f 421 422 418
f 418 422 423
f 418 423 417
f 401 424 402
f 402 424 425
f 402 425 419
f 419 425 426
f 419 426 420
f 262 393 261
f 261 393 391
f 261 391 260
f 262 263 392
f 392 263 264
f 392 264 427
f 427 264 265
f 427 265 359
f 359 265 266
f 359 266 267
f 3 5 391
f 5 7 391
f 391 7 9
f 391 9 11
f 391 390 3
f 3 390 428
f 3 428 299
f 292 293 11
f 11 293 294
f 11 294 391
f 391 294 259
f 391 259 260
f 323 154 322
f 322 154 153
f 322 153 320
f 320 153 230
f 320 230 313
f 313 230 228
f 313 228 311
f 311 228 227
f 311 227 298
f 298 227 208
f 298 208 314
f 314 208 206
f 314 206 315
f 315 206 205
f 315 205 317
f 317 205 161
f 317 161 318
f 318 161 204
f 318 204 326
f 326 204 203
f 326 203 327
f 327 203 202
f 327 202 362
f 362 202 190
f 362 190 363
f 363 190 189
f 363 189 365
f 365 189 152
f 365 152 367
f 367 152 180
f 367 180 369
f 369 180 182
f 369 182 371
f 371 182 184
f 371 184 373
f 373 184 186
f 373 186 375
f 375 186 188
f 375 188 395
f 395 188 139
f 395 139 394
f 394 139 178
f 394 178 377
f 377 178 214
f 377 214 378
f 378 214 215
f 378 215 383
f 383 215 213
f 383 213 382
f 382 213 212
f 382 212 343
f 343 212 211
f 343 211 342
f 342 211 210
f 342 210 341
f 341 210 195
f 341 195 340
f 340 195 194
f 340 194 339
f 339 194 193
f 339 193 329
f 329 193 192
f 329 192 330
f 330 192 251
f 330 251 331
f 331 251 250
f 331 250 332
f 332 250 248
f 332 248 333
f 333 248 219
f 333 219 323
f 323 219 154
f 345 176 347
f 347 176 174
f 347 174 349
f 349 174 172
f 349 172 351
f 351 172 170
f 351 170 353
f 353 170 168
f 353 168 379
f 379 168 166
f 379 166 380
f 380 166 224
f 380 224 381
f 381 224 223
f 381 223 357
f 357 223 222
f 357 222 384
f 384 222 164
f 384 164 385
f 385 164 198
f 385 198 408
f 408 198 197
f 408 197 409
f 409 197 196
f 409 196 411
f 411 196 101
f 411 101 413
f 413 101 99
f 413 99 414
f 414 99 124
f 414 124 416
f 416 124 123
f 416 123 418
f 418 123 121
f 418 121 421
f 421 121 120
f 421 120 419
f 419 120 119
f 419 119 402
f 402 119 118
f 402 118 388
f 388 118 117
f 388 117 390
f 390 117 116
f 390 116 428
f 428 116 115
f 428 115 299
f 299 115 145
f 299 145 325
f 325 145 146
f 325 146 324
f 324 146 158
f 324 158 305
f 305 158 157
f 305 157 304
f 304 157 156
f 304 156 303
f 303 156 225
f 303 225 300
f 300 225 226
f 300 226 399
f 399 226 217
f 399 217 398
f 398 217 216
f 398 216 397
f 397 216 238
f 397 238 335
f 335 238 239
f 335 239 337
f 337 239 177
f 337 177 345
f 345 177 176
f 231 321 229
f 229 321 312
f 229 312 209
f 209 312 297
f 209 297 207
f 207 297 296
f 207 296 159
f 159 296 316
f 159 316 160
f 160 316 319
f 160 319 191
f 191 319 328
f 191 328 150
f 150 328 364
f 150 364 151
f 151 364 366
f 151 366 181
f 181 366 368
f 181 368 183
f 183 368 370
f 183 370 185
f 185 370 372
f 185 372 187
f 187 372 374
f 187 374 199
f 199 374 376
f 199 376 200
f 200 376 396
f 200 396 201
f 201 396 334
f 201 334 137
f 137 334 336
f 137 336 138
f 138 336 338
f 138 338 179
f 179 338 344
f 179 344 175
f 175 344 346
f 175 346 173
f 173 346 348
f 173 348 171
f 171 348 350
f 171 350 169
f 169 350 352
f 169 352 167
f 167 352 354
f 167 354 165
f 165 354 356
f 165 356 162
f 162 356 355
f 162 355 163
f 163 355 386
f 163 386 102
f 102 386 410
f 102 410 100
f 100 410 412
f 100 412 98
f 98 412 415
f 98 415 122
f 122 415 417
f 122 417 91
f 91 417 423
f 91 423 148
f 148 423 422
f 148 422 149
f 149 422 420
f 149 420 132
f 132 420 426
f 132 426 133
f 133 426 425
f 133 425 129
f 129 425 424
f 129 424 130
f 130 424 401
f 130 401 126
f 126 401 400
f 126 400 127
f 127 400 387
f 127 387 113
f 113 387 389
f 113 389 111
f 111 389 391
f 111 391 109
f 109 391 393
f 109 393 107
f 107 393 392
f 107 392 105
f 105 392 427
f 105 427 142
f 142 427 359
f 142 359 97
f 97 359 358
f 97 358 95
f 95 358 360
f 95 360 234
f 234 360 361
f 234 361 236
f 236 361 403
f 236 403 241
f 241 403 404
f 241 404 243
f 243 404 405
f 243 405 245
f 245 405 406
f 245 406 252
f 252 406 407
f 252 407 253
f 253 407 295
f 253 295 255
f 255 295 302
f 255 302 249
f 249 302 301
f 249 301 247
f 247 301 307
f 247 307 220
f 220 307 306
f 220 306 218
f 218 306 310
f 218 310 155
f 155 310 309
f 155 309 232
f 232 309 308
f 232 308 231
f 231 308 321

