# Exported by SolidWorks
g 
v -17.00000092 0.00000000 -3.76999984
v -16.91277884 -1.71986152 -5.26999915
v -16.91277884 -1.71986152 -3.76999984
v -16.65200852 -3.42207495 -5.26999915
v -16.65200852 -3.42207495 -3.76999984
v -16.22036658 -5.08917309 -5.26999915
v -16.22036658 -5.08917309 -3.76999984
v -15.62228240 -6.70404965 -5.26999915
v -15.62228240 -6.70404965 -3.76999984
v -14.86389246 -8.25013313 -5.26999915
v -14.86389246 -8.25013313 -3.76999984
v -13.95297889 -9.71155986 -5.26999915
v -13.95297889 -9.71155986 -3.76999984
v -12.89888844 -11.07333228 -5.26999915
v -12.89888844 -11.07333228 -3.76999984
v -11.71243750 -12.32147776 -5.26999915
v -11.71243750 -12.32147776 -3.76999984
v -10.40580217 -13.44318781 -5.26999915
v -10.40580217 -13.44318781 -3.76999984
v -8.99238791 -14.42695223 -5.26999915
v -8.99238791 -14.42695223 -3.76999984
v -7.48670055 -15.26267733 -5.26999915
v -7.48670055 -15.26267733 -3.76999984
v -5.90418931 -15.94178565 -5.26999915
v -5.90418931 -15.94178565 -3.76999984
v -4.26109321 -16.45731181 -5.26999915
v -4.26109321 -16.45731181 -3.76999984
v -2.57427222 -16.80396125 -5.26999915
v -2.57427222 -16.80396125 -3.76999984
v -0.86103589 -16.97818004 -5.26999915
v -0.86103589 -16.97818004 -3.76999984
v 0.86103589 -16.97818004 -5.26999915
v 0.86103589 -16.97818004 -3.76999984
v 2.57427222 -16.80396125 -5.26999915
v 2.57427222 -16.80396125 -3.76999984
v 4.26109321 -16.45731181 -5.26999915
v 4.26109321 -16.45731181 -3.76999984
v 5.90418931 -15.94178565 -5.26999915
v 5.90418931 -15.94178565 -3.76999984
v 7.48670055 -15.26267733 -5.26999915
v 7.48670055 -15.26267733 -3.76999984
v 8.99238791 -14.42695223 -5.26999915
v 8.99238791 -14.42695223 -3.76999984
v 10.40580217 -13.44318781 -5.26999915
v 10.40580217 -13.44318781 -3.76999984
v 11.71243750 -12.32147776 -5.26999915
v 11.71243750 -12.32147776 -3.76999984
v 12.89888844 -11.07333228 -5.26999915
v 12.89888844 -11.07333228 -3.76999984
v 13.95297889 -9.71155986 -5.26999915
v 13.95297889 -9.71155986 -3.76999984
v 14.86389246 -8.25013313 -5.26999915
v 14.86389246 -8.25013313 -3.76999984
v 15.62228240 -6.70404965 -5.26999915
v 15.62228240 -6.70404965 -3.76999984
v 16.22036658 -5.08917309 -5.26999915
v 16.22036658 -5.08917309 -3.76999984
v 16.65200852 -3.42207495 -5.26999915
v 16.65200852 -3.42207495 -3.76999984
v 16.91277884 -1.71986152 -5.26999915
v 16.91277884 -1.71986152 -3.76999984
v 17.00000092 -0.00000000 -5.26999915
v 17.00000092 -0.00000000 -3.76999984
v 16.91277884 1.71986152 -5.26999915
v 16.91277884 1.71986152 -3.76999984
v 16.65200852 3.42207495 -5.26999915
v 16.65200852 3.42207495 -3.76999984
v 16.22036658 5.08917309 -5.26999915
v 16.22036658 5.08917309 -3.76999984
v 15.62228240 6.70404965 -5.26999915
v 15.62228240 6.70404965 -3.76999984
v 14.86389246 8.25013313 -5.26999915
v 14.86389246 8.25013313 -3.76999984
v 13.95297889 9.71155986 -5.26999915
v 13.95297889 9.71155986 -3.76999984
v 12.89888844 11.07333228 -5.26999915
v 12.89888844 11.07333228 -3.76999984
v 11.71243750 12.32147776 -5.26999915
v 11.71243750 12.32147776 -3.76999984
v 10.40580217 13.44318781 -5.26999915
v 10.40580217 13.44318781 -3.76999984
v 8.99238791 14.42695223 -5.26999915
v 8.99238791 14.42695223 -3.76999984
v 7.48670055 15.26267733 -5.26999915
v 7.48670055 15.26267733 -3.76999984
v 5.90418931 15.94178565 -5.26999915
v 5.90418931 15.94178565 -3.76999984
v 4.26109321 16.45731181 -5.26999915
v 4.26109321 16.45731181 -3.76999984
v 2.57427222 16.80396125 -5.26999915
v 2.57427222 16.80396125 -3.76999984
v 0.86103589 16.97818004 -5.26999915
v 0.86103589 16.97818004 -3.76999984
v -0.86103589 16.97818004 -5.26999915
v -0.86103589 16.97818004 -3.76999984
v -2.57427222 16.80396125 -5.26999915
v -2.57427222 16.80396125 -3.76999984
v -4.26109321 16.45731181 -5.26999915
v -4.26109321 16.45731181 -3.76999984
v -5.90418931 15.94178565 -5.26999915
v -5.90418931 15.94178565 -3.76999984
v -7.48670055 15.26267733 -5.26999915
v -7.48670055 15.26267733 -3.76999984
v -8.99238791 14.42695223 -5.26999915
v -8.99238791 14.42695223 -3.76999984
v -10.40580217 13.44318781 -5.26999915
v -10.40580217 13.44318781 -3.76999984
v -11.71243750 12.32147776 -5.26999915
v -11.71243750 12.32147776 -3.76999984
v -12.89888844 11.07333228 -5.26999915
v -12.89888844 11.07333228 -3.76999984
v -13.95297889 9.71155986 -5.26999915
v -13.95297889 9.71155986 -3.76999984
v -14.86389246 8.25013313 -5.26999915
v -14.86389246 8.25013313 -3.76999984
v -15.62228240 6.70404965 -5.26999915
v -15.62228240 6.70404965 -3.76999984
v -16.22036658 5.08917309 -5.26999915
v -16.22036658 5.08917309 -3.76999984
v -16.65200852 3.42207495 -5.26999915
v -16.65200852 3.42207495 -3.76999984
v -16.91277884 1.71986152 -5.26999915
v -16.91277884 1.71986152 -3.76999984
v -17.00000092 0.00000000 -5.26999915
v -0.00000000 -0.00000000 -3.76999984
v -0.00000000 -0.00000000 -5.26999915
f 1 2 3
f 3 2 4
f 3 4 5
f 5 4 6
f 5 6 7
f 7 6 8
f 7 8 9
f 9 8 10
f 9 10 11
f 11 10 12
f 11 12 13
f 13 12 14
f 13 14 15
f 15 14 16
f 15 16 17
f 17 16 18
f 17 18 19
f 19 18 20
f 19 20 21
f 21 20 22
f 21 22 23
f 23 22 24
f 23 24 25
f 25 24 26
f 25 26 27
f 27 26 28
f 27 28 29
f 29 28 30
f 29 30 31
f 31 30 32
f 31 32 33
f 33 32 34
f 33 34 35
f 35 34 36
f 35 36 37
f 37 36 38
f 37 38 39
f 39 38 40
f 39 40 41
f 41 40 42
f 41 42 43
f 43 42 44
f 43 44 45
f 45 44 46
f 45 46 47
f 47 46 48
f 47 48 49
f 49 48 50
f 49 50 51
f 51 50 52
f 51 52 53
f 53 52 54
f 53 54 55
f 55 54 56
f 55 56 57
f 57 56 58
f 57 58 59
f 59 58 60
f 59 60 61
f 61 60 62
f 61 62 63
f 63 62 64
f 63 64 65
f 65 64 66
f 65 66 67
f 67 66 68
f 67 68 69
f 69 68 70
f 69 70 71
f 71 70 72
f 71 72 73
f 73 72 74
f 73 74 75
f 75 74 76
f 75 76 77
f 77 76 78
f 77 78 79
f 79 78 80
f 79 80 81
f 81 80 82
f 81 82 83
f 83 82 84
f 83 84 85
f 85 84 86
f 85 86 87
f 87 86 88
f 87 88 89
f 89 88 90
f 89 90 91
f 91 90 92
f 91 92 93
f 93 92 94
f 93 94 95
f 95 94 96
f 95 96 97
f 97 96 98
f 97 98 99
f 99 98 100
f 99 100 101
f 101 100 102
f 101 102 103
f 103 102 104
f 103 104 105
f 105 104 106
f 105 106 107
f 107 106 108
f 107 108 109
f 109 108 110
f 109 110 111
f 111 110 112
f 111 112 113
f 113 112 114
f 113 114 115
f 115 114 116
f 115 116 117
f 117 116 118
f 117 118 119
f 119 118 120
f 119 120 121
f 121 120 122
f 121 122 123
f 123 122 124
f 123 124 1
f 1 124 2
f 1 3 125
f 1 125 123
f 117 119 125
f 125 119 121
f 125 121 123
f 111 113 125
f 125 113 115
f 125 115 117
f 105 107 125
f 125 107 109
f 125 109 111
f 99 101 125
f 125 101 103
f 125 103 105
f 93 95 125
f 125 95 97
f 125 97 99
f 87 89 125
f 125 89 91
f 125 91 93
f 81 83 125
f 125 83 85
f 125 85 87
f 75 77 125
f 125 77 79
f 125 79 81
f 69 71 125
f 125 71 73
f 125 73 75
f 63 65 125
f 125 65 67
f 125 67 69
f 57 59 125
f 125 59 61
f 125 61 63
f 51 53 125
f 125 53 55
f 125 55 57
f 45 47 125
f 125 47 49
f 125 49 51
f 39 41 125
f 125 41 43
f 125 43 45
f 33 35 125
f 125 35 37
f 125 37 39
f 27 29 125
f 125 29 31
f 125 31 33
f 21 23 125
f 125 23 25
f 125 25 27
f 15 17 125
f 125 17 19
f 125 19 21
f 9 11 125
f 125 11 13
f 125 13 15
f 3 5 125
f 125 5 7
f 125 7 9
f 124 122 126
f 124 126 2
f 8 6 126
f 126 6 4
f 126 4 2
f 14 12 126
f 126 12 10
f 126 10 8
f 20 18 126
f 126 18 16
f 126 16 14
f 26 24 126
f 126 24 22
f 126 22 20
f 32 30 126
f 126 30 28
f 126 28 26
f 38 36 126
f 126 36 34
f 126 34 32
f 44 42 126
f 126 42 40
f 126 40 38
f 50 48 126
f 126 48 46
f 126 46 44
f 56 54 126
f 126 54 52
f 126 52 50
f 62 60 126
f 126 60 58
f 126 58 56
f 68 66 126
f 126 66 64
f 126 64 62
f 74 72 126
f 126 72 70
f 126 70 68
f 80 78 126
f 126 78 76
f 126 76 74
f 86 84 126
f 126 84 82
f 126 82 80
f 92 90 126
f 126 90 88
f 126 88 86
f 98 96 126
f 126 96 94
f 126 94 92
f 104 102 126
f 126 102 100
f 126 100 98
f 110 108 126
f 126 108 106
f 126 106 104
f 116 114 126
f 126 114 112
f 126 112 110
f 122 120 126
f 126 120 118
f 126 118 116

