# Exported by SolidWorks
g 
v 0.00000000 -14.99999966 -47.77000472
v 0.00000000 -14.99999966 -33.76999497
v 1.65012327 -14.90896009 -47.77000472
v 1.65012327 -14.90896009 -33.76999497
v 3.28021636 -14.63694591 -47.77000472
v 3.28021636 -14.63694591 -33.76999497
v 4.87049203 -14.18725867 -47.77000472
v 4.87049203 -14.18725867 -33.76999497
v 6.40164642 -13.56535777 -47.77000472
v 6.40164642 -13.56535777 -33.76999497
v 7.85509404 -12.77879067 -47.77000472
v 7.85509404 -12.77879067 -33.76999497
v 9.21319053 -11.83710806 -47.77000472
v 9.21319053 -11.83710806 -33.76999497
v 10.45945194 -10.75173728 -47.77000472
v 10.45945194 -10.75173728 -33.76999497
v 11.57874987 -9.53585654 -47.77000472
v 11.57874987 -9.53585654 -33.76999497
v 12.55749725 -8.20422266 -47.77000472
v 12.55749725 -8.20422266 -33.76999497
v 13.38381320 -6.77300058 -47.77000472
v 13.38381320 -6.77300058 -33.76999497
v 14.04766832 -5.25956322 -47.77000472
v 14.04766832 -5.25956322 -33.76999497
v 14.54100385 -3.68228229 -47.77000472
v 14.54100385 -3.68228229 -33.76999497
v 14.85783141 -2.06030346 -47.77000472
v 14.85783141 -2.06030346 -33.76999497
v 14.99430463 -0.41331514 -47.77000472
v 14.99430463 -0.41331514 -33.76999497
v 14.94876761 1.23869022 -47.77000472
v 14.94876761 1.23869022 -33.76999497
v 14.72177263 2.87565938 -47.77000472
v 14.72177263 2.87565938 -33.76999497
v 14.31607548 4.47772210 -47.77000472
v 14.31607548 4.47772210 -33.76999497
v 13.73660006 6.02543121 -47.77000472
v 13.73660006 6.02543121 -33.76999497
v 12.99038064 7.49999983 -47.77000472
v 12.99038064 7.49999983 -33.76999497
v 12.08647620 8.88352841 -47.77000472
v 12.08647620 8.88352841 -33.76999497
v 11.03585865 10.15922334 -47.77000472
v 11.03585865 10.15922334 -33.76999497
v 9.85128060 11.31159905 -47.77000472
v 9.85128060 11.31159905 -33.76999497
v 8.54712073 12.32666709 -47.77000472
v 8.54712073 12.32666709 -33.76999497
v 7.13921105 13.19210604 -47.77000472
v 7.13921105 13.19210604 -33.76999497
v 5.64464042 13.89741059 -47.77000472
v 5.64464042 13.89741059 -33.76999497
v 4.08155192 14.43402003 -47.77000472
v 4.08155192 14.43402003 -33.76999497
v 2.46891892 14.79541976 -47.77000472
v 2.46891892 14.79541976 -33.76999497
v 0.82631642 14.97722231 -47.77000472
v 0.82631642 14.97722231 -33.76999497
v -0.82631642 14.97722231 -47.77000472
v -0.82631642 14.97722231 -33.76999497
v -2.46891892 14.79541976 -47.77000472
v -2.46891892 14.79541976 -33.76999497
v -4.08155192 14.43402003 -47.77000472
v -4.08155192 14.43402003 -33.76999497
v -5.64464042 13.89741059 -47.77000472
v -5.64464042 13.89741059 -33.76999497
v -7.13921105 13.19210604 -47.77000472
v -7.13921105 13.19210604 -33.76999497
v -8.54712073 12.32666709 -47.77000472
v -8.54712073 12.32666709 -33.76999497
v -9.85128060 11.31159905 -47.77000472
v -9.85128060 11.31159905 -33.76999497
v -11.03585865 10.15922334 -47.77000472
v -11.03585865 10.15922334 -33.76999497
v -12.08647620 8.88352841 -47.77000472
v -12.08647620 8.88352841 -33.76999497
v -12.99038064 7.49999983 -47.77000472
v -12.99038064 7.49999983 -33.76999497
v -13.73660006 6.02543121 -47.77000472
v -13.73660006 6.02543121 -33.76999497
v -14.31607548 4.47772210 -47.77000472
v -14.31607548 4.47772210 -33.76999497
v -14.72177263 2.87565938 -47.77000472
v -14.72177263 2.87565938 -33.76999497
v -14.94876761 1.23869022 -47.77000472
v -14.94876761 1.23869022 -33.76999497
v -14.99430463 -0.41331514 -47.77000472
v -14.99430463 -0.41331514 -33.76999497
v -14.85783141 -2.06030346 -47.77000472
v -14.85783141 -2.06030346 -33.76999497
v -14.54100385 -3.68228229 -47.77000472
v -14.54100385 -3.68228229 -33.76999497
v -14.04766832 -5.25956322 -47.77000472
v -14.04766832 -5.25956322 -33.76999497
v -13.38381320 -6.77300058 -47.77000472
v -13.38381320 -6.77300058 -33.76999497
v -12.55749725 -8.20422266 -47.77000472
v -12.55749725 -8.20422266 -33.76999497
v -11.57874987 -9.53585654 -47.77000472
v -11.57874987 -9.53585654 -33.76999497
v -10.45945194 -10.75173728 -47.77000472
v -10.45945194 -10.75173728 -33.76999497
v -9.21319053 -11.83710806 -47.77000472
v -9.21319053 -11.83710806 -33.76999497
v -7.85509404 -12.77879067 -47.77000472
v -7.85509404 -12.77879067 -33.76999497
v -6.40164642 -13.56535777 -47.77000472
v -6.40164642 -13.56535777 -33.76999497
v -4.87049203 -14.18725867 -47.77000472
v -4.87049203 -14.18725867 -33.76999497
v -3.28021636 -14.63694591 -47.77000472
v -3.28021636 -14.63694591 -33.76999497
v -1.65012327 -14.90896009 -47.77000472
v -1.65012327 -14.90896009 -33.76999497
v 0.00000000 17.00000092 -33.76999497
v -1.74795697 16.90989733 -33.76999497
v -3.47738503 16.64054580 -33.76999497
v -5.16995229 16.19480178 -33.76999497
v -6.80771656 15.57738706 -33.76999497
v -8.37331731 14.79484886 -33.76999497
v -9.85015836 13.85548152 -33.76999497
v -11.22258604 12.76924275 -33.76999497
v -12.47605123 11.54764649 -33.76999497
v -13.59726675 10.20364277 -33.76999497
v -14.57434800 8.75147805 -33.76999497
v -15.39693866 7.20654475 -33.76999497
v -16.05631597 5.58522064 -33.76999497
v -16.54549316 3.90469166 -33.76999497
v 16.99436456 0.43771454 -33.76999497
v 16.85928553 2.18277215 -33.76999497
v 16.54549316 3.90469166 -33.76999497
v 16.05631597 5.58522064 -33.76999497
v 15.39693866 7.20654475 -33.76999497
v 14.57434986 8.75147805 -33.76999497
v 13.59726675 10.20364277 -33.76999497
v 12.47605123 11.54764649 -33.76999497
v 11.22258604 12.76924275 -33.76999497
v 9.85015836 13.85548152 -33.76999497
v 8.37331731 14.79484886 -33.76999497
v 6.80771656 15.57738706 -33.76999497
v 5.16995229 16.19480178 -33.76999497
v 3.47738503 16.64054580 -33.76999497
v 1.74795697 16.90989733 -33.76999497
v -0.87513885 -16.97745919 -33.76999497
v 0.87513885 -16.97745919 -33.76999497
v 2.61613983 -16.79749414 -33.76999497
v 4.32940898 -16.43947139 -33.76999497
v 5.99678559 -15.90718515 -33.76999497
v 7.60059431 -15.20628016 -33.76999497
v 9.12383571 -14.34418466 -33.76999497
v 10.55036113 -13.33003677 -33.76999497
v 11.86505053 -12.17458583 -33.76999497
v 13.05396762 -10.89008432 -33.76999497
v 14.10450879 -9.49014351 -33.76999497
v 15.00553917 -7.98960496 -33.76999497
v 15.74750803 -6.40437426 -33.76999497
v 16.32254757 -4.75125574 -33.76999497
v 16.72456600 -3.04777292 -33.76999497
v 16.94929786 -1.31198287 -33.76999497
v -16.85928553 2.18277215 -33.76999497
v -16.99436456 0.43771454 -33.76999497
v -16.94929786 -1.31198287 -33.76999497
v -16.72456600 -3.04777292 -33.76999497
v -16.32254757 -4.75125574 -33.76999497
v -15.74750803 -6.40437426 -33.76999497
v -15.00553917 -7.98960496 -33.76999497
v -14.10450879 -9.49014351 -33.76999497
v -13.05396762 -10.89008432 -33.76999497
v -11.86505053 -12.17458583 -33.76999497
v -10.55036113 -13.33003677 -33.76999497
v -9.12383571 -14.34418466 -33.76999497
v -7.60059431 -15.20628016 -33.76999497
v -5.99678559 -15.90718515 -33.76999497
v -4.32940898 -16.43947139 -33.76999497
v -2.61613983 -16.79749414 -33.76999497
v -1.74795697 16.90989733 -47.77000472
v -3.47738503 16.64054580 -47.77000472
v -5.16995229 16.19480178 -47.77000472
v -6.80771656 15.57738706 -47.77000472
v -8.37331731 14.79484886 -47.77000472
v -9.85015836 13.85548152 -47.77000472
v -11.22258604 12.76924275 -47.77000472
v -12.47605123 11.54764649 -47.77000472
v -13.59726675 10.20364277 -47.77000472
v -14.57434800 8.75147805 -47.77000472
v -15.39693866 7.20654475 -47.77000472
v -16.05631597 5.58522064 -47.77000472
v -16.54549316 3.90469166 -47.77000472
v -16.85928553 2.18277215 -47.77000472
v -16.99436456 0.43771454 -47.77000472
v -16.94929786 -1.31198287 -47.77000472
v -16.72456600 -3.04777292 -47.77000472
v -16.32254757 -4.75125574 -47.77000472
v -15.74750803 -6.40437426 -47.77000472
v -15.00553917 -7.98960496 -47.77000472
v -14.10450879 -9.49014351 -47.77000472
v -13.05396762 -10.89008432 -47.77000472
v -11.86505053 -12.17458583 -47.77000472
v -10.55036113 -13.33003677 -47.77000472
v -9.12383571 -14.34418466 -47.77000472
v -7.60059431 -15.20628016 -47.77000472
v -5.99678559 -15.90718515 -47.77000472
v -4.32940898 -16.43947139 -47.77000472
v -2.61613983 -16.79749414 -47.77000472
v -0.87513885 -16.97745919 -47.77000472
v 0.87513885 -16.97745919 -47.77000472
v 2.61613983 -16.79749414 -47.77000472
v 4.32940898 -16.43947139 -47.77000472
v 5.99678559 -15.90718515 -47.77000472
v 7.60059431 -15.20628016 -47.77000472
v 9.12383571 -14.34418466 -47.77000472
v 10.55036113 -13.33003677 -47.77000472
v 11.86505053 -12.17458583 -47.77000472
v 13.05396762 -10.89008432 -47.77000472
v 14.10450879 -9.49014351 -47.77000472
v 15.00553917 -7.98960496 -47.77000472
v 15.74750803 -6.40437426 -47.77000472
v 16.32254757 -4.75125574 -47.77000472
v 16.72456600 -3.04777292 -47.77000472
v 16.94929786 -1.31198287 -47.77000472
v 16.99436456 0.43771454 -47.77000472
v 16.85928553 2.18277215 -47.77000472
v 16.54549316 3.90469166 -47.77000472
v 16.05631597 5.58522064 -47.77000472
v 15.39693866 7.20654475 -47.77000472
v 14.57434986 8.75147805 -47.77000472
v 13.59726675 10.20364277 -47.77000472
v 12.47605123 11.54764649 -47.77000472
v 11.22258604 12.76924275 -47.77000472
v 9.85015836 13.85548152 -47.77000472
v 8.37331731 14.79484886 -47.77000472
v 6.80771656 15.57738706 -47.77000472
v 5.16995229 16.19480178 -47.77000472
v 3.47738503 16.64054580 -47.77000472
v 1.74795697 16.90989733 -47.77000472
v 0.00000000 17.00000092 -47.77000472
f 1 2 3
f 3 2 4
f 3 4 5
f 5 4 6
f 5 6 7
f 7 6 8
f 7 8 9
f 9 8 10
f 9 10 11
f 11 10 12
f 11 12 13
f 13 12 14
f 13 14 15
f 15 14 16
f 15 16 17
f 17 16 18
f 17 18 19
f 19 18 20
f 19 20 21
f 21 20 22
f 21 22 23
f 23 22 24
f 23 24 25
f 25 24 26
f 25 26 27
f 27 26 28
f 27 28 29
f 29 28 30
f 29 30 31
f 31 30 32
f 31 32 33
f 33 32 34
f 33 34 35
f 35 34 36
f 35 36 37
f 37 36 38
f 37 38 39
f 39 38 40
f 39 40 41
f 41 40 42
f 41 42 43
f 43 42 44
f 43 44 45
f 45 44 46
f 45 46 47
f 47 46 48
f 47 48 49
f 49 48 50
f 49 50 51
f 51 50 52
f 51 52 53
f 53 52 54
f 53 54 55
f 55 54 56
f 55 56 57
f 57 56 58
f 57 58 59
f 59 58 60
f 59 60 61
f 61 60 62
f 61 62 63
f 63 62 64
f 63 64 65
f 65 64 66
f 65 66 67
f 67 66 68
f 67 68 69
f 69 68 70
f 69 70 71
f 71 70 72
f 71 72 73
f 73 72 74
f 73 74 75
f 75 74 76
f 75 76 77
f 77 76 78
f 77 78 79
f 79 78 80
f 79 80 81
f 81 80 82
f 81 82 83
f 83 82 84
f 83 84 85
f 85 84 86
f 85 86 87
f 87 86 88
f 87 88 89
f 89 88 90
f 89 90 91
f 91 90 92
f 91 92 93
f 93 92 94
f 93 94 95
f 95 94 96
f 95 96 97
f 97 96 98
f 97 98 99
f 99 98 100
f 99 100 101
f 101 100 102
f 101 102 103
f 103 102 104
f 103 104 105
f 105 104 106
f 105 106 107
f 107 106 108
f 107 108 109
f 109 108 110
f 109 110 111
f 111 110 112
f 111 112 113
f 113 112 114
f 113 114 1
f 1 114 2
f 58 115 60
f 60 115 116
f 60 116 62
f 62 116 117
f 62 117 64
f 64 117 118
f 64 118 66
f 66 118 119
f 66 119 68
f 68 119 120
f 68 120 70
f 70 120 121
f 70 121 72
f 72 121 122
f 72 122 74
f 74 122 123
f 74 123 76
f 76 123 124
f 76 124 78
f 78 124 125
f 78 125 80
f 80 125 126
f 80 126 82
f 82 126 127
f 82 127 84
f 84 127 128
f 84 128 86
f 30 129 32
f 32 129 130
f 32 130 34
f 34 130 131
f 34 131 36
f 36 131 132
f 36 132 38
f 38 132 133
f 38 133 40
f 40 133 134
f 40 134 42
f 42 134 135
f 42 135 44
f 44 135 136
f 44 136 46
f 46 136 137
f 46 137 48
f 48 137 138
f 48 138 50
f 50 138 139
f 50 139 52
f 52 139 140
f 52 140 54
f 54 140 141
f 54 141 56
f 56 141 142
f 56 142 58
f 58 142 143
f 58 143 115
f 114 144 2
f 2 144 145
f 2 145 4
f 4 145 146
f 4 146 6
f 6 146 147
f 6 147 8
f 8 147 148
f 8 148 10
f 10 148 149
f 10 149 12
f 12 149 150
f 12 150 14
f 14 150 151
f 14 151 16
f 16 151 152
f 16 152 18
f 18 152 153
f 18 153 20
f 20 153 154
f 20 154 22
f 22 154 155
f 22 155 24
f 24 155 156
f 24 156 26
f 26 156 157
f 26 157 28
f 28 157 158
f 28 158 30
f 30 158 159
f 30 159 129
f 128 160 86
f 86 160 161
f 86 161 88
f 88 161 162
f 88 162 90
f 90 162 163
f 90 163 92
f 92 163 164
f 92 164 94
f 94 164 165
f 94 165 96
f 96 165 166
f 96 166 98
f 98 166 167
f 98 167 100
f 100 167 168
f 100 168 102
f 102 168 169
f 102 169 104
f 104 169 170
f 104 170 106
f 106 170 171
f 106 171 108
f 108 171 172
f 108 172 110
f 110 172 173
f 110 173 112
f 112 173 174
f 112 174 114
f 114 174 175
f 114 175 144
f 115 176 116
f 116 176 177
f 116 177 117
f 117 177 178
f 117 178 118
f 118 178 179
f 118 179 119
f 119 179 180
f 119 180 120
f 120 180 181
f 120 181 121
f 121 181 182
f 121 182 122
f 122 182 183
f 122 183 123
f 123 183 184
f 123 184 124
f 124 184 185
f 124 185 125
f 125 185 186
f 125 186 126
f 126 186 187
f 126 187 127
f 127 187 188
f 127 188 128
f 128 188 189
f 128 189 160
f 160 189 190
f 160 190 161
f 161 190 191
f 161 191 162
f 162 191 192
f 162 192 163
f 163 192 193
f 163 193 164
f 164 193 194
f 164 194 165
f 165 194 195
f 165 195 166
f 166 195 196
f 166 196 167
f 167 196 197
f 167 197 168
f 168 197 198
f 168 198 169
f 169 198 199
f 169 199 170
f 170 199 200
f 170 200 171
f 171 200 201
f 171 201 172
f 172 201 202
f 172 202 173
f 173 202 203
f 173 203 174
f 174 203 204
f 174 204 175
f 175 204 205
f 175 205 144
f 144 205 206
f 144 206 145
f 145 206 207
f 145 207 146
f 146 207 208
f 146 208 147
f 147 208 209
f 147 209 148
f 148 209 210
f 148 210 149
f 149 210 211
f 149 211 150
f 150 211 212
f 150 212 151
f 151 212 213
f 151 213 152
f 152 213 214
f 152 214 153
f 153 214 215
f 153 215 154
f 154 215 216
f 154 216 155
f 155 216 217
f 155 217 156
f 156 217 218
f 156 218 157
f 157 218 219
f 157 219 158
f 158 219 220
f 158 220 159
f 159 220 221
f 159 221 129
f 129 221 222
f 129 222 130
f 130 222 223
f 130 223 131
f 131 223 224
f 131 224 132
f 132 224 225
f 132 225 133
f 133 225 226
f 133 226 134
f 134 226 227
f 134 227 135
f 135 227 228
f 135 228 136
f 136 228 229
f 136 229 137
f 137 229 230
f 137 230 138
f 138 230 231
f 138 231 139
f 139 231 232
f 139 232 140
f 140 232 233
f 140 233 141
f 141 233 234
f 141 234 142
f 142 234 235
f 142 235 143
f 143 235 236
f 143 236 115
f 115 236 176
f 59 236 57
f 57 236 235
f 57 235 55
f 55 235 234
f 55 234 53
f 53 234 233
f 53 233 51
f 51 233 232
f 51 232 49
f 49 232 231
f 49 231 47
f 47 231 230
f 47 230 45
f 45 230 229
f 45 229 43
f 43 229 228
f 43 228 41
f 41 228 227
f 41 227 39
f 39 227 226
f 39 226 37
f 37 226 225
f 37 225 35
f 35 225 224
f 35 224 33
f 33 224 223
f 33 223 31
f 1 205 113
f 113 205 204
f 113 204 111
f 111 204 203
f 111 203 109
f 109 203 202
f 109 202 107
f 107 202 201
f 107 201 105
f 105 201 200
f 105 200 103
f 103 200 199
f 103 199 101
f 101 199 198
f 101 198 99
f 99 198 197
f 99 197 97
f 97 197 196
f 97 196 95
f 95 196 195
f 95 195 93
f 93 195 194
f 93 194 91
f 91 194 193
f 91 193 89
f 89 193 192
f 89 192 87
f 223 222 31
f 31 222 221
f 31 221 29
f 29 221 220
f 29 220 27
f 27 220 219
f 27 219 25
f 25 219 218
f 25 218 23
f 23 218 217
f 23 217 21
f 21 217 216
f 21 216 19
f 19 216 215
f 19 215 17
f 17 215 214
f 17 214 15
f 15 214 213
f 15 213 13
f 13 213 212
f 13 212 11
f 11 212 211
f 11 211 9
f 9 211 210
f 9 210 7
f 7 210 209
f 7 209 5
f 5 209 208
f 5 208 3
f 3 208 207
f 3 207 1
f 1 207 206
f 1 206 205
f 192 191 87
f 87 191 190
f 87 190 85
f 85 190 189
f 85 189 83
f 83 189 188
f 83 188 81
f 81 188 187
f 81 187 79
f 79 187 186
f 79 186 77
f 77 186 185
f 77 185 75
f 75 185 184
f 75 184 73
f 73 184 183
f 73 183 71
f 71 183 182
f 71 182 69
f 69 182 181
f 69 181 67
f 67 181 180
f 67 180 65
f 65 180 179
f 65 179 63
f 63 179 178
f 63 178 61
f 61 178 177
f 61 177 59
f 59 177 176
f 59 176 236

