# Exported by SolidWorks
g 
v -1.17473572 8.92300345 -33.76999497
v -1.30526198 9.91444848 -32.77000412
v -2.32937140 8.69333278 -33.76999497
v -2.58819037 9.65925865 -32.77000412
v -3.44415079 8.31491593 -33.76999497
v -3.82683426 9.23879538 -32.77000412
v -4.49999981 7.79422885 -33.76999497
v -4.99999989 8.66025407 -32.77000412
v -5.47885289 7.14018010 -33.76999497
v -6.08761422 7.93353375 -32.77000412
v -6.36396091 6.36396091 -33.76999497
v -7.07106758 7.07106758 -32.77000412
v -7.14018010 5.47885289 -33.76999497
v -7.93353375 6.08761422 -32.77000412
v -7.79422885 4.49999981 -33.76999497
v -8.66025407 4.99999989 -32.77000412
v -8.31491593 3.44415079 -33.76999497
v -9.23879538 3.82683426 -32.77000412
v -8.69333278 2.32937140 -33.76999497
v -9.65925865 2.58819037 -32.77000412
v -8.92300345 1.17473572 -33.76999497
v -9.91444848 1.30526198 -32.77000412
v -8.99999961 0.00000000 -33.76999497
v -9.99999978 0.00000000 -32.77000412
v -8.92300345 -1.17473572 -33.76999497
v -9.91444848 -1.30526198 -32.77000412
v -8.69333278 -2.32937140 -33.76999497
v -9.65925865 -2.58819037 -32.77000412
v -8.31491593 -3.44415079 -33.76999497
v -9.23879538 -3.82683426 -32.77000412
v -7.79422885 -4.49999981 -33.76999497
v -8.66025407 -4.99999989 -32.77000412
v -7.14018010 -5.47885289 -33.76999497
v -7.93353375 -6.08761422 -32.77000412
v -6.36396091 -6.36396091 -33.76999497
v -7.07106758 -7.07106758 -32.77000412
v -5.47885289 -7.14018010 -33.76999497
v -6.08761422 -7.93353375 -32.77000412
v -4.49999981 -7.79422885 -33.76999497
v -4.99999989 -8.66025407 -32.77000412
v -3.44415079 -8.31491593 -33.76999497
v -3.82683426 -9.23879538 -32.77000412
v -2.32937140 -8.69333278 -33.76999497
v -2.58819037 -9.65925865 -32.77000412
v -1.17473572 -8.92300345 -33.76999497
v -1.30526198 -9.91444848 -32.77000412
v 0.00000000 -8.99999961 -33.76999497
v 0.00000000 -9.99999978 -32.77000412
v 1.17473572 -8.92300345 -33.76999497
v 1.30526198 -9.91444848 -32.77000412
v 2.32937140 -8.69333278 -33.76999497
v 2.58819037 -9.65925865 -32.77000412
v 3.44415079 -8.31491593 -33.76999497
v 3.82683426 -9.23879538 -32.77000412
v 4.49999981 -7.79422885 -33.76999497
v 4.99999989 -8.66025407 -32.77000412
v 5.47885289 -7.14018010 -33.76999497
v 6.08761422 -7.93353375 -32.77000412
v 6.36396091 -6.36396091 -33.76999497
v 7.07106758 -7.07106758 -32.77000412
v 7.14018010 -5.47885289 -33.76999497
v 7.93353375 -6.08761422 -32.77000412
v 7.79422885 -4.49999981 -33.76999497
v 8.66025407 -4.99999989 -32.77000412
v 8.31491593 -3.44415079 -33.76999497
v 9.23879538 -3.82683426 -32.77000412
v 8.69333278 -2.32937140 -33.76999497
v 9.65925865 -2.58819037 -32.77000412
v 8.92300345 -1.17473572 -33.76999497
v 9.91444848 -1.30526198 -32.77000412
v 8.99999961 -0.00000000 -33.76999497
v 9.99999978 -0.00000000 -32.77000412
v 8.92300345 1.17473572 -33.76999497
v 9.91444848 1.30526198 -32.77000412
v 8.69333278 2.32937140 -33.76999497
v 9.65925865 2.58819037 -32.77000412
v 8.31491593 3.44415079 -33.76999497
v 9.23879538 3.82683426 -32.77000412
v 7.79422885 4.49999981 -33.76999497
v 8.66025407 4.99999989 -32.77000412
v 7.14018010 5.47885289 -33.76999497
v 7.93353375 6.08761422 -32.77000412
v 6.36396091 6.36396091 -33.76999497
v 7.07106758 7.07106758 -32.77000412
v 5.47885289 7.14018010 -33.76999497
v 6.08761422 7.93353375 -32.77000412
v 4.49999981 7.79422885 -33.76999497
v 4.99999989 8.66025407 -32.77000412
v 3.44415079 8.31491593 -33.76999497
v 3.82683426 9.23879538 -32.77000412
v 2.32937140 8.69333278 -33.76999497
v 2.58819037 9.65925865 -32.77000412
v 1.17473572 8.92300345 -33.76999497
v 1.30526198 9.91444848 -32.77000412
v 0.00000000 8.99999961 -33.76999497
v 0.00000000 9.99999978 -32.77000412
v 11.07333228 12.89888844 -32.77000412
v 9.71155986 13.95297889 -32.77000412
v 8.25013313 14.86389246 -32.77000412
v 6.70404965 15.62228240 -32.77000412
v -3.42207495 16.65200852 -32.77000412
v -5.08917309 16.22036658 -32.77000412
v -6.70404965 15.62228240 -32.77000412
v -8.25013313 14.86389246 -32.77000412
v 5.08917309 16.22036658 -32.77000412
v 3.42207495 16.65200852 -32.77000412
v 1.71986152 16.91277884 -32.77000412
v 0.00000000 17.00000092 -32.77000412
v -1.71986152 16.91277884 -32.77000412
v 15.26267733 7.48670055 -32.77000412
v 14.42695223 8.99238791 -32.77000412
v 13.44318781 10.40580217 -32.77000412
v 12.32147776 11.71243750 -32.77000412
v 15.26267733 -7.48670055 -32.77000412
v 15.94178565 -5.90418931 -32.77000412
v 16.45731181 -4.26109321 -32.77000412
v 16.80396125 -2.57427222 -32.77000412
v -11.07333228 -12.89888844 -32.77000412
v -9.71155986 -13.95297889 -32.77000412
v -8.25013313 -14.86389246 -32.77000412
v -6.70404965 -15.62228240 -32.77000412
v -15.26267733 7.48670055 -32.77000412
v -15.94178565 5.90418931 -32.77000412
v -16.45731181 4.26109321 -32.77000412
v -9.71155986 13.95297889 -32.77000412
v -11.07333228 12.89888844 -32.77000412
v -12.32147776 11.71243750 -32.77000412
v -13.44318781 10.40580217 -32.77000412
v -14.42695223 8.99238791 -32.77000412
v 16.97818004 -0.86103589 -32.77000412
v 16.97818004 0.86103589 -32.77000412
v 16.80396125 2.57427222 -32.77000412
v 16.45731181 4.26109321 -32.77000412
v 15.94178565 5.90418931 -32.77000412
v -15.26267733 -7.48670055 -32.77000412
v -14.42695223 -8.99238791 -32.77000412
v -13.44318781 -10.40580217 -32.77000412
v -12.32147776 -11.71243750 -32.77000412
v -16.80396125 2.57427222 -32.77000412
v -16.97818004 0.86103589 -32.77000412
v -16.97818004 -0.86103589 -32.77000412
v -16.80396125 -2.57427222 -32.77000412
v -16.45731181 -4.26109321 -32.77000412
v -15.94178565 -5.90418931 -32.77000412
v 11.07333228 -12.89888844 -32.77000412
v 12.32147776 -11.71243750 -32.77000412
v 13.44318781 -10.40580217 -32.77000412
v 14.42695223 -8.99238791 -32.77000412
v 3.42207495 -16.65200852 -32.77000412
v 5.08917309 -16.22036658 -32.77000412
v 6.70404965 -15.62228240 -32.77000412
v 8.25013313 -14.86389246 -32.77000412
v 9.71155986 -13.95297889 -32.77000412
v -5.08917309 -16.22036658 -32.77000412
v -3.42207495 -16.65200852 -32.77000412
v -1.71986152 -16.91277884 -32.77000412
v -0.00000000 -17.00000092 -32.77000412
v 1.71986152 -16.91277884 -32.77000412
v 1.71986152 -16.91277884 -33.76999497
v 3.42207495 -16.65200852 -33.76999497
v 5.08917309 -16.22036658 -33.76999497
v 6.70404965 -15.62228240 -33.76999497
v 8.25013313 -14.86389246 -33.76999497
v 9.71155986 -13.95297889 -33.76999497
v 11.07333228 -12.89888844 -33.76999497
v 12.32147776 -11.71243750 -33.76999497
v 13.44318781 -10.40580217 -33.76999497
v 14.42695223 -8.99238791 -33.76999497
v 15.26267733 -7.48670055 -33.76999497
v 15.94178565 -5.90418931 -33.76999497
v 16.45731181 -4.26109321 -33.76999497
v 16.80396125 -2.57427222 -33.76999497
v 16.97818004 -0.86103589 -33.76999497
v 16.97818004 0.86103589 -33.76999497
v 16.80396125 2.57427222 -33.76999497
v 16.45731181 4.26109321 -33.76999497
v 15.94178565 5.90418931 -33.76999497
v 15.26267733 7.48670055 -33.76999497
v 14.42695223 8.99238791 -33.76999497
v 13.44318781 10.40580217 -33.76999497
v 12.32147776 11.71243750 -33.76999497
v 11.07333228 12.89888844 -33.76999497
v 9.71155986 13.95297889 -33.76999497
v 8.25013313 14.86389246 -33.76999497
v 6.70404965 15.62228240 -33.76999497
v 5.08917309 16.22036658 -33.76999497
v 3.42207495 16.65200852 -33.76999497
v 1.71986152 16.91277884 -33.76999497
v 0.00000000 17.00000092 -33.76999497
v -1.71986152 16.91277884 -33.76999497
v -3.42207495 16.65200852 -33.76999497
v -5.08917309 16.22036658 -33.76999497
v -6.70404965 15.62228240 -33.76999497
v -8.25013313 14.86389246 -33.76999497
v -9.71155986 13.95297889 -33.76999497
v -11.07333228 12.89888844 -33.76999497
v -12.32147776 11.71243750 -33.76999497
v -13.44318781 10.40580217 -33.76999497
v -14.42695223 8.99238791 -33.76999497
v -15.26267733 7.48670055 -33.76999497
v -15.94178565 5.90418931 -33.76999497
v -16.45731181 4.26109321 -33.76999497
v -16.80396125 2.57427222 -33.76999497
v -16.97818004 0.86103589 -33.76999497
v -16.97818004 -0.86103589 -33.76999497
v -16.80396125 -2.57427222 -33.76999497
v -16.45731181 -4.26109321 -33.76999497
v -15.94178565 -5.90418931 -33.76999497
v -15.26267733 -7.48670055 -33.76999497
v -14.42695223 -8.99238791 -33.76999497
v -13.44318781 -10.40580217 -33.76999497
v -12.32147776 -11.71243750 -33.76999497
v -11.07333228 -12.89888844 -33.76999497
v -9.71155986 -13.95297889 -33.76999497
v -8.25013313 -14.86389246 -33.76999497
v -6.70404965 -15.62228240 -33.76999497
v -5.08917309 -16.22036658 -33.76999497
v -3.42207495 -16.65200852 -33.76999497
v -1.71986152 -16.91277884 -33.76999497
v 0.00000000 -17.00000092 -33.76999497
f 1 2 3
f 3 2 4
f 3 4 5
f 5 4 6
f 5 6 7
f 7 6 8
f 7 8 9
f 9 8 10
f 9 10 11
f 11 10 12
f 11 12 13
f 13 12 14
f 13 14 15
f 15 14 16
f 15 16 17
f 17 16 18
f 17 18 19
f 19 18 20
f 19 20 21
f 21 20 22
f 21 22 23
f 23 22 24
f 23 24 25
f 25 24 26
f 25 26 27
f 27 26 28
f 27 28 29
f 29 28 30
f 29 30 31
f 31 30 32
f 31 32 33
f 33 32 34
f 33 34 35
f 35 34 36
f 35 36 37
f 37 36 38
f 37 38 39
f 39 38 40
f 39 40 41
f 41 40 42
f 41 42 43
f 43 42 44
f 43 44 45
f 45 44 46
f 45 46 47
f 47 46 48
f 47 48 49
f 49 48 50
f 49 50 51
f 51 50 52
f 51 52 53
f 53 52 54
f 53 54 55
f 55 54 56
f 55 56 57
f 57 56 58
f 57 58 59
f 59 58 60
f 59 60 61
f 61 60 62
f 61 62 63
f 63 62 64
f 63 64 65
f 65 64 66
f 65 66 67
f 67 66 68
f 67 68 69
f 69 68 70
f 69 70 71
f 71 70 72
f 71 72 73
f 73 72 74
f 73 74 75
f 75 74 76
f 75 76 77
f 77 76 78
f 77 78 79
f 79 78 80
f 79 80 81
f 81 80 82
f 81 82 83
f 83 82 84
f 83 84 85
f 85 84 86
f 85 86 87
f 87 86 88
f 87 88 89
f 89 88 90
f 89 90 91
f 91 90 92
f 91 92 93
f 93 92 94
f 93 94 95
f 95 94 96
f 95 96 1
f 1 96 2
f 84 97 86
f 86 97 98
f 86 98 88
f 88 98 99
f 88 99 90
f 90 99 100
f 90 100 92
f 2 101 4
f 4 101 102
f 4 102 6
f 6 102 103
f 6 103 8
f 8 103 104
f 8 104 10
f 100 105 92
f 92 105 106
f 92 106 94
f 94 106 107
f 94 107 96
f 96 107 108
f 96 108 2
f 2 108 109
f 2 109 101
f 78 110 80
f 80 110 111
f 80 111 82
f 82 111 112
f 82 112 84
f 84 112 113
f 84 113 97
f 64 114 66
f 66 114 115
f 66 115 68
f 68 115 116
f 68 116 70
f 70 116 117
f 70 117 72
f 36 118 38
f 38 118 119
f 38 119 40
f 40 119 120
f 40 120 42
f 42 120 121
f 42 121 44
f 16 122 18
f 18 122 123
f 18 123 20
f 20 123 124
f 20 124 22
f 104 125 10
f 10 125 126
f 10 126 12
f 12 126 127
f 12 127 14
f 14 127 128
f 14 128 16
f 16 128 129
f 16 129 122
f 117 130 72
f 72 130 131
f 72 131 74
f 74 131 132
f 74 132 76
f 76 132 133
f 76 133 78
f 78 133 134
f 78 134 110
f 30 135 32
f 32 135 136
f 32 136 34
f 34 136 137
f 34 137 36
f 36 137 138
f 36 138 118
f 124 139 22
f 22 139 140
f 22 140 24
f 24 140 141
f 24 141 26
f 26 141 142
f 26 142 28
f 28 142 143
f 28 143 30
f 30 143 144
f 30 144 135
f 58 145 60
f 60 145 146
f 60 146 62
f 62 146 147
f 62 147 64
f 64 147 148
f 64 148 114
f 50 149 52
f 52 149 150
f 52 150 54
f 54 150 151
f 54 151 56
f 56 151 152
f 56 152 58
f 58 152 153
f 58 153 145
f 121 154 44
f 44 154 155
f 44 155 46
f 46 155 156
f 46 156 48
f 48 156 157
f 48 157 50
f 50 157 158
f 50 158 149
f 157 159 158
f 158 159 160
f 158 160 149
f 149 160 161
f 149 161 150
f 150 161 162
f 150 162 151
f 151 162 163
f 151 163 152
f 152 163 164
f 152 164 153
f 153 164 165
f 153 165 145
f 145 165 166
f 145 166 146
f 146 166 167
f 146 167 147
f 147 167 168
f 147 168 148
f 148 168 169
f 148 169 114
f 114 169 170
f 114 170 115
f 115 170 171
f 115 171 116
f 116 171 172
f 116 172 117
f 117 172 173
f 117 173 130
f 130 173 174
f 130 174 131
f 131 174 175
f 131 175 132
f 132 175 176
f 132 176 133
f 133 176 177
f 133 177 134
f 134 177 178
f 134 178 110
f 110 178 179
f 110 179 111
f 111 179 180
f 111 180 112
f 112 180 181
f 112 181 113
f 113 181 182
f 113 182 97
f 97 182 183
f 97 183 98
f 98 183 184
f 98 184 99
f 99 184 185
f 99 185 100
f 100 185 186
f 100 186 105
f 105 186 187
f 105 187 106
f 106 187 188
f 106 188 107
f 107 188 189
f 107 189 108
f 108 189 190
f 108 190 109
f 109 190 191
f 109 191 101
f 101 191 192
f 101 192 102
f 102 192 193
f 102 193 103
f 103 193 194
f 103 194 104
f 104 194 195
f 104 195 125
f 125 195 196
f 125 196 126
f 126 196 197
f 126 197 127
f 127 197 198
f 127 198 128
f 128 198 199
f 128 199 129
f 129 199 200
f 129 200 122
f 122 200 201
f 122 201 123
f 123 201 202
f 123 202 124
f 124 202 203
f 124 203 139
f 139 203 204
f 139 204 140
f 140 204 205
f 140 205 141
f 141 205 206
f 141 206 142
f 142 206 207
f 142 207 143
f 143 207 208
f 143 208 144
f 144 208 209
f 144 209 135
f 135 209 210
f 135 210 136
f 136 210 211
f 136 211 137
f 137 211 212
f 137 212 138
f 138 212 213
f 138 213 118
f 118 213 214
f 118 214 119
f 119 214 215
f 119 215 120
f 120 215 216
f 120 216 121
f 121 216 217
f 121 217 154
f 154 217 218
f 154 218 155
f 155 218 219
f 155 219 156
f 156 219 220
f 156 220 157
f 157 220 159
f 31 209 29
f 29 209 208
f 29 208 27
f 27 208 207
f 27 207 25
f 25 207 206
f 25 206 23
f 73 174 71
f 71 174 173
f 71 173 69
f 69 173 172
f 69 172 67
f 67 172 171
f 67 171 65
f 79 178 77
f 77 178 177
f 77 177 75
f 75 177 176
f 75 176 73
f 73 176 175
f 73 175 174
f 93 187 91
f 91 187 186
f 91 186 89
f 89 186 185
f 89 185 87
f 87 185 184
f 87 184 85
f 3 191 1
f 1 191 190
f 1 190 95
f 95 190 189
f 95 189 93
f 93 189 188
f 93 188 187
f 11 196 9
f 9 196 195
f 9 195 7
f 7 195 194
f 7 194 5
f 5 194 193
f 5 193 3
f 3 193 192
f 3 192 191
f 206 205 23
f 23 205 204
f 23 204 21
f 21 204 203
f 21 203 19
f 19 203 202
f 19 202 17
f 45 218 43
f 43 218 217
f 43 217 41
f 41 217 216
f 41 216 39
f 39 216 215
f 39 215 37
f 171 170 65
f 65 170 169
f 65 169 63
f 63 169 168
f 63 168 61
f 61 168 167
f 61 167 59
f 215 214 37
f 37 214 213
f 37 213 35
f 35 213 212
f 35 212 33
f 33 212 211
f 33 211 31
f 31 211 210
f 31 210 209
f 51 160 49
f 49 160 159
f 49 159 47
f 47 159 220
f 47 220 45
f 45 220 219
f 45 219 218
f 167 166 59
f 59 166 165
f 59 165 57
f 57 165 164
f 57 164 55
f 55 164 163
f 55 163 53
f 53 163 162
f 53 162 51
f 51 162 161
f 51 161 160
f 184 183 85
f 85 183 182
f 85 182 83
f 83 182 181
f 83 181 81
f 81 181 180
f 81 180 79
f 79 180 179
f 79 179 178
f 202 201 17
f 17 201 200
f 17 200 15
f 15 200 199
f 15 199 13
f 13 199 198
f 13 198 11
f 11 198 197
f 11 197 196

