# Exported by SolidWorks
g 
v -1.17473572 8.92300345 -63.76999617
v -1.30526198 9.91444848 -62.76999414
v -2.32937140 8.69333278 -63.76999617
v -2.58819037 9.65925865 -62.76999414
v -3.44415079 8.31491593 -63.76999617
v -3.82683426 9.23879538 -62.76999414
v -4.49999981 7.79422885 -63.76999617
v -4.99999989 8.66025407 -62.76999414
v -5.47885289 7.14018010 -63.76999617
v -6.08761422 7.93353375 -62.76999414
v -6.36396091 6.36396091 -63.76999617
v -7.07106758 7.07106758 -62.76999414
v -7.14018010 5.47885289 -63.76999617
v -7.93353375 6.08761422 -62.76999414
v -7.79422885 4.49999981 -63.76999617
v -8.66025407 4.99999989 -62.76999414
v -8.31491593 3.44415079 -63.76999617
v -9.23879538 3.82683426 -62.76999414
v -8.69333278 2.32937140 -63.76999617
v -9.65925865 2.58819037 -62.76999414
v -8.92300345 1.17473572 -63.76999617
v -9.91444848 1.30526198 -62.76999414
v -8.99999961 0.00000000 -63.76999617
v -9.99999978 0.00000000 -62.76999414
v -8.92300345 -1.17473572 -63.76999617
v -9.91444848 -1.30526198 -62.76999414
v -8.69333278 -2.32937140 -63.76999617
v -9.65925865 -2.58819037 -62.76999414
v -8.31491593 -3.44415079 -63.76999617
v -9.23879538 -3.82683426 -62.76999414
v -7.79422885 -4.49999981 -63.76999617
v -8.66025407 -4.99999989 -62.76999414
v -7.14018010 -5.47885289 -63.76999617
v -7.93353375 -6.08761422 -62.76999414
v -6.36396091 -6.36396091 -63.76999617
v -7.07106758 -7.07106758 -62.76999414
v -5.47885289 -7.14018010 -63.76999617
v -6.08761422 -7.93353375 -62.76999414
v -4.49999981 -7.79422885 -63.76999617
v -4.99999989 -8.66025407 -62.76999414
v -3.44415079 -8.31491593 -63.76999617
v -3.82683426 -9.23879538 -62.76999414
v -2.32937140 -8.69333278 -63.76999617
v -2.58819037 -9.65925865 -62.76999414
v -1.17473572 -8.92300345 -63.76999617
v -1.30526198 -9.91444848 -62.76999414
v 0.00000000 -8.99999961 -63.76999617
v 0.00000000 -9.99999978 -62.76999414
v 1.17473572 -8.92300345 -63.76999617
v 1.30526198 -9.91444848 -62.76999414
v 2.32937140 -8.69333278 -63.76999617
v 2.58819037 -9.65925865 -62.76999414
v 3.44415079 -8.31491593 -63.76999617
v 3.82683426 -9.23879538 -62.76999414
v 4.49999981 -7.79422885 -63.76999617
v 4.99999989 -8.66025407 -62.76999414
v 5.47885289 -7.14018010 -63.76999617
v 6.08761422 -7.93353375 -62.76999414
v 6.36396091 -6.36396091 -63.76999617
v 7.07106758 -7.07106758 -62.76999414
v 7.14018010 -5.47885289 -63.76999617
v 7.93353375 -6.08761422 -62.76999414
v 7.79422885 -4.49999981 -63.76999617
v 8.66025407 -4.99999989 -62.76999414
v 8.31491593 -3.44415079 -63.76999617
v 9.23879538 -3.82683426 -62.76999414
v 8.69333278 -2.32937140 -63.76999617
v 9.65925865 -2.58819037 -62.76999414
v 8.92300345 -1.17473572 -63.76999617
v 9.91444848 -1.30526198 -62.76999414
v 8.99999961 -0.00000000 -63.76999617
v 9.99999978 -0.00000000 -62.76999414
v 8.92300345 1.17473572 -63.76999617
v 9.91444848 1.30526198 -62.76999414
v 8.69333278 2.32937140 -63.76999617
v 9.65925865 2.58819037 -62.76999414
v 8.31491593 3.44415079 -63.76999617
v 9.23879538 3.82683426 -62.76999414
v 7.79422885 4.49999981 -63.76999617
v 8.66025407 4.99999989 -62.76999414
v 7.14018010 5.47885289 -63.76999617
v 7.93353375 6.08761422 -62.76999414
v 6.36396091 6.36396091 -63.76999617
v 7.07106758 7.07106758 -62.76999414
v 5.47885289 7.14018010 -63.76999617
v 6.08761422 7.93353375 -62.76999414
v 4.49999981 7.79422885 -63.76999617
v 4.99999989 8.66025407 -62.76999414
v 3.44415079 8.31491593 -63.76999617
v 3.82683426 9.23879538 -62.76999414
v 2.32937140 8.69333278 -63.76999617
v 2.58819037 9.65925865 -62.76999414
v 1.17473572 8.92300345 -63.76999617
v 1.30526198 9.91444848 -62.76999414
v 0.00000000 8.99999961 -63.76999617
v 0.00000000 9.99999978 -62.76999414
v -15.26267733 7.48670055 -62.76999414
v -15.94178565 5.90418931 -62.76999414
v -16.45731181 4.26109321 -62.76999414
v 3.42207495 16.65200852 -62.76999414
v 1.71986152 16.91277884 -62.76999414
v 0.00000000 17.00000092 -62.76999414
v 11.07333228 12.89888844 -62.76999414
v 9.71155986 13.95297889 -62.76999414
v 8.25013313 14.86389246 -62.76999414
v 6.70404965 15.62228240 -62.76999414
v 5.08917309 16.22036658 -62.76999414
v 15.26267733 7.48670055 -62.76999414
v 14.42695223 8.99238791 -62.76999414
v 13.44318781 10.40580217 -62.76999414
v 12.32147776 11.71243750 -62.76999414
v 11.07333228 -12.89888844 -62.76999414
v 12.32147776 -11.71243750 -62.76999414
v 13.44318781 -10.40580217 -62.76999414
v -11.07333228 -12.89888844 -62.76999414
v -9.71155986 -13.95297889 -62.76999414
v -8.25013313 -14.86389246 -62.76999414
v -6.70404965 -15.62228240 -62.76999414
v -15.26267733 -7.48670055 -62.76999414
v -14.42695223 -8.99238791 -62.76999414
v -13.44318781 -10.40580217 -62.76999414
v -12.32147776 -11.71243750 -62.76999414
v -16.80396125 2.57427222 -62.76999414
v -16.97818004 0.86103589 -62.76999414
v -16.97818004 -0.86103589 -62.76999414
v -16.80396125 -2.57427222 -62.76999414
v -16.45731181 -4.26109321 -62.76999414
v -15.94178565 -5.90418931 -62.76999414
v 14.42695223 -8.99238791 -62.76999414
v 15.26267733 -7.48670055 -62.76999414
v 15.94178565 -5.90418931 -62.76999414
v 16.45731181 -4.26109321 -62.76999414
v 16.80396125 -2.57427222 -62.76999414
v 3.42207495 -16.65200852 -62.76999414
v 5.08917309 -16.22036658 -62.76999414
v 6.70404965 -15.62228240 -62.76999414
v 8.25013313 -14.86389246 -62.76999414
v 9.71155986 -13.95297889 -62.76999414
v -11.07333228 12.89888844 -62.76999414
v -12.32147776 11.71243750 -62.76999414
v -13.44318781 10.40580217 -62.76999414
v -14.42695223 8.99238791 -62.76999414
v -1.71986152 16.91277884 -62.76999414
v -3.42207495 16.65200852 -62.76999414
v -5.08917309 16.22036658 -62.76999414
v -6.70404965 15.62228240 -62.76999414
v -8.25013313 14.86389246 -62.76999414
v -9.71155986 13.95297889 -62.76999414
v 16.97818004 -0.86103589 -62.76999414
v 16.97818004 0.86103589 -62.76999414
v 16.80396125 2.57427222 -62.76999414
v 16.45731181 4.26109321 -62.76999414
v 15.94178565 5.90418931 -62.76999414
v -5.08917309 -16.22036658 -62.76999414
v -3.42207495 -16.65200852 -62.76999414
v -1.71986152 -16.91277884 -62.76999414
v 0.00000000 -17.00000092 -62.76999414
v 1.71986152 -16.91277884 -62.76999414
v 1.71986152 -16.91277884 -63.76999617
v 3.42207495 -16.65200852 -63.76999617
v 5.08917309 -16.22036658 -63.76999617
v 6.70404965 -15.62228240 -63.76999617
v 8.25013313 -14.86389246 -63.76999617
v 9.71155986 -13.95297889 -63.76999617
v 11.07333228 -12.89888844 -63.76999617
v 12.32147776 -11.71243750 -63.76999617
v 13.44318781 -10.40580217 -63.76999617
v 14.42695223 -8.99238791 -63.76999617
v 15.26267733 -7.48670055 -63.76999617
v 15.94178565 -5.90418931 -63.76999617
v 16.45731181 -4.26109321 -63.76999617
v 16.80396125 -2.57427222 -63.76999617
v 16.97818004 -0.86103589 -63.76999617
v 16.97818004 0.86103589 -63.76999617
v 16.80396125 2.57427222 -63.76999617
v 16.45731181 4.26109321 -63.76999617
v 15.94178565 5.90418931 -63.76999617
v 15.26267733 7.48670055 -63.76999617
v 14.42695223 8.99238791 -63.76999617
v 13.44318781 10.40580217 -63.76999617
v 12.32147776 11.71243750 -63.76999617
v 11.07333228 12.89888844 -63.76999617
v 9.71155986 13.95297889 -63.76999617
v 8.25013313 14.86389246 -63.76999617
v 6.70404965 15.62228240 -63.76999617
v 5.08917309 16.22036658 -63.76999617
v 3.42207495 16.65200852 -63.76999617
v 1.71986152 16.91277884 -63.76999617
v 0.00000000 17.00000092 -63.76999617
v -1.71986152 16.91277884 -63.76999617
v -3.42207495 16.65200852 -63.76999617
v -5.08917309 16.22036658 -63.76999617
v -6.70404965 15.62228240 -63.76999617
v -8.25013313 14.86389246 -63.76999617
v -9.71155986 13.95297889 -63.76999617
v -11.07333228 12.89888844 -63.76999617
v -12.32147776 11.71243750 -63.76999617
v -13.44318781 10.40580217 -63.76999617
v -14.42695223 8.99238791 -63.76999617
v -15.26267733 7.48670055 -63.76999617
v -15.94178565 5.90418931 -63.76999617
v -16.45731181 4.26109321 -63.76999617
v -16.80396125 2.57427222 -63.76999617
v -16.97818004 0.86103589 -63.76999617
v -16.97818004 -0.86103589 -63.76999617
v -16.80396125 -2.57427222 -63.76999617
v -16.45731181 -4.26109321 -63.76999617
v -15.94178565 -5.90418931 -63.76999617
v -15.26267733 -7.48670055 -63.76999617
v -14.42695223 -8.99238791 -63.76999617
v -13.44318781 -10.40580217 -63.76999617
v -12.32147776 -11.71243750 -63.76999617
v -11.07333228 -12.89888844 -63.76999617
v -9.71155986 -13.95297889 -63.76999617
v -8.25013313 -14.86389246 -63.76999617
v -6.70404965 -15.62228240 -63.76999617
v -5.08917309 -16.22036658 -63.76999617
v -3.42207495 -16.65200852 -63.76999617
v -1.71986152 -16.91277884 -63.76999617
v 0.00000000 -17.00000092 -63.76999617
f 1 2 3
f 3 2 4
f 3 4 5
f 5 4 6
f 5 6 7
f 7 6 8
f 7 8 9
f 9 8 10
f 9 10 11
f 11 10 12
f 11 12 13
f 13 12 14
f 13 14 15
f 15 14 16
f 15 16 17
f 17 16 18
f 17 18 19
f 19 18 20
f 19 20 21
f 21 20 22
f 21 22 23
f 23 22 24
f 23 24 25
f 25 24 26
f 25 26 27
f 27 26 28
f 27 28 29
f 29 28 30
f 29 30 31
f 31 30 32
f 31 32 33
f 33 32 34
f 33 34 35
f 35 34 36
f 35 36 37
f 37 36 38
f 37 38 39
f 39 38 40
f 39 40 41
f 41 40 42
f 41 42 43
f 43 42 44
f 43 44 45
f 45 44 46
f 45 46 47
f 47 46 48
f 47 48 49
f 49 48 50
f 49 50 51
f 51 50 52
f 51 52 53
f 53 52 54
f 53 54 55
f 55 54 56
f 55 56 57
f 57 56 58
f 57 58 59
f 59 58 60
f 59 60 61
f 61 60 62
f 61 62 63
f 63 62 64
f 63 64 65
f 65 64 66
f 65 66 67
f 67 66 68
f 67 68 69
f 69 68 70
f 69 70 71
f 71 70 72
f 71 72 73
f 73 72 74
f 73 74 75
f 75 74 76
f 75 76 77
f 77 76 78
f 77 78 79
f 79 78 80
f 79 80 81
f 81 80 82
f 81 82 83
f 83 82 84
f 83 84 85
f 85 84 86
f 85 86 87
f 87 86 88
f 87 88 89
f 89 88 90
f 89 90 91
f 91 90 92
f 91 92 93
f 93 92 94
f 93 94 95
f 95 94 96
f 95 96 1
f 1 96 2
f 16 97 18
f 18 97 98
f 18 98 20
f 20 98 99
f 20 99 22
f 92 100 94
f 94 100 101
f 94 101 96
f 96 101 102
f 96 102 2
f 84 103 86
f 86 103 104
f 86 104 88
f 88 104 105
f 88 105 90
f 90 105 106
f 90 106 92
f 92 106 107
f 92 107 100
f 78 108 80
f 80 108 109
f 80 109 82
f 82 109 110
f 82 110 84
f 84 110 111
f 84 111 103
f 58 112 60
f 60 112 113
f 60 113 62
f 62 113 114
f 62 114 64
f 36 115 38
f 38 115 116
f 38 116 40
f 40 116 117
f 40 117 42
f 42 117 118
f 42 118 44
f 30 119 32
f 32 119 120
f 32 120 34
f 34 120 121
f 34 121 36
f 36 121 122
f 36 122 115
f 99 123 22
f 22 123 124
f 22 124 24
f 24 124 125
f 24 125 26
f 26 125 126
f 26 126 28
f 28 126 127
f 28 127 30
f 30 127 128
f 30 128 119
f 114 129 64
f 64 129 130
f 64 130 66
f 66 130 131
f 66 131 68
f 68 131 132
f 68 132 70
f 70 132 133
f 70 133 72
f 50 134 52
f 52 134 135
f 52 135 54
f 54 135 136
f 54 136 56
f 56 136 137
f 56 137 58
f 58 137 138
f 58 138 112
f 10 139 12
f 12 139 140
f 12 140 14
f 14 140 141
f 14 141 16
f 16 141 142
f 16 142 97
f 102 143 2
f 2 143 144
f 2 144 4
f 4 144 145
f 4 145 6
f 6 145 146
f 6 146 8
f 8 146 147
f 8 147 10
f 10 147 148
f 10 148 139
f 133 149 72
f 72 149 150
f 72 150 74
f 74 150 151
f 74 151 76
f 76 151 152
f 76 152 78
f 78 152 153
f 78 153 108
f 118 154 44
f 44 154 155
f 44 155 46
f 46 155 156
f 46 156 48
f 48 156 157
f 48 157 50
f 50 157 158
f 50 158 134
f 157 159 158
f 158 159 160
f 158 160 134
f 134 160 161
f 134 161 135
f 135 161 162
f 135 162 136
f 136 162 163
f 136 163 137
f 137 163 164
f 137 164 138
f 138 164 165
f 138 165 112
f 112 165 166
f 112 166 113
f 113 166 167
f 113 167 114
f 114 167 168
f 114 168 129
f 129 168 169
f 129 169 130
f 130 169 170
f 130 170 131
f 131 170 171
f 131 171 132
f 132 171 172
f 132 172 133
f 133 172 173
f 133 173 149
f 149 173 174
f 149 174 150
f 150 174 175
f 150 175 151
f 151 175 176
f 151 176 152
f 152 176 177
f 152 177 153
f 153 177 178
f 153 178 108
f 108 178 179
f 108 179 109
f 109 179 180
f 109 180 110
f 110 180 181
f 110 181 111
f 111 181 182
f 111 182 103
f 103 182 183
f 103 183 104
f 104 183 184
f 104 184 105
f 105 184 185
f 105 185 106
f 106 185 186
f 106 186 107
f 107 186 187
f 107 187 100
f 100 187 188
f 100 188 101
f 101 188 189
f 101 189 102
f 102 189 190
f 102 190 143
f 143 190 191
f 143 191 144
f 144 191 192
f 144 192 145
f 145 192 193
f 145 193 146
f 146 193 194
f 146 194 147
f 147 194 195
f 147 195 148
f 148 195 196
f 148 196 139
f 139 196 197
f 139 197 140
f 140 197 198
f 140 198 141
f 141 198 199
f 141 199 142
f 142 199 200
f 142 200 97
f 97 200 201
f 97 201 98
f 98 201 202
f 98 202 99
f 99 202 203
f 99 203 123
f 123 203 204
f 123 204 124
f 124 204 205
f 124 205 125
f 125 205 206
f 125 206 126
f 126 206 207
f 126 207 127
f 127 207 208
f 127 208 128
f 128 208 209
f 128 209 119
f 119 209 210
f 119 210 120
f 120 210 211
f 120 211 121
f 121 211 212
f 121 212 122
f 122 212 213
f 122 213 115
f 115 213 214
f 115 214 116
f 116 214 215
f 116 215 117
f 117 215 216
f 117 216 118
f 118 216 217
f 118 217 154
f 154 217 218
f 154 218 155
f 155 218 219
f 155 219 156
f 156 219 220
f 156 220 157
f 157 220 159
f 73 174 71
f 71 174 173
f 71 173 69
f 69 173 172
f 69 172 67
f 67 172 171
f 67 171 65
f 79 178 77
f 77 178 177
f 77 177 75
f 75 177 176
f 75 176 73
f 73 176 175
f 73 175 174
f 171 170 65
f 65 170 169
f 65 169 63
f 63 169 168
f 63 168 61
f 61 168 167
f 61 167 59
f 85 182 83
f 83 182 181
f 83 181 81
f 81 181 180
f 81 180 79
f 79 180 179
f 79 179 178
f 93 187 91
f 91 187 186
f 91 186 89
f 89 186 185
f 89 185 87
f 87 185 184
f 87 184 85
f 85 184 183
f 85 183 182
f 3 191 1
f 1 191 190
f 1 190 95
f 95 190 189
f 95 189 93
f 93 189 188
f 93 188 187
f 11 196 9
f 9 196 195
f 9 195 7
f 7 195 194
f 7 194 5
f 5 194 193
f 5 193 3
f 3 193 192
f 3 192 191
f 31 209 29
f 29 209 208
f 29 208 27
f 27 208 207
f 27 207 25
f 25 207 206
f 25 206 23
f 51 160 49
f 49 160 159
f 49 159 47
f 47 159 220
f 47 220 45
f 167 166 59
f 59 166 165
f 59 165 57
f 57 165 164
f 57 164 55
f 55 164 163
f 55 163 53
f 53 163 162
f 53 162 51
f 51 162 161
f 51 161 160
f 17 200 15
f 15 200 199
f 15 199 13
f 13 199 198
f 13 198 11
f 11 198 197
f 11 197 196
f 206 205 23
f 23 205 204
f 23 204 21
f 21 204 203
f 21 203 19
f 19 203 202
f 19 202 17
f 17 202 201
f 17 201 200
f 220 219 45
f 45 219 218
f 45 218 43
f 43 218 217
f 43 217 41
f 41 217 216
f 41 216 39
f 39 216 215
f 39 215 37
f 215 214 37
f 37 214 213
f 37 213 35
f 35 213 212
f 35 212 33
f 33 212 211
f 33 211 31
f 31 211 210
f 31 210 209

