# Exported by SolidWorks
g 
v 24.87159334 24.27785657 28.58999930
v 22.41176181 26.56462044 28.58999930
v 22.28924260 14.76215012 28.58999930
v 7.35981436 27.57635154 28.58999930
v 20.50509490 12.21412327 28.58999930
v 20.41943744 12.53380254 28.58999930
v 20.39059252 12.86350004 28.58999930
v 20.41943744 13.19319755 28.58999930
v 20.50509490 13.51287682 28.58999930
v 21.95954509 14.73330520 28.58999930
v 19.74266209 28.60324085 28.58999930
v 21.63986489 14.64764774 28.58999930
v 16.88922569 30.37467226 28.58999930
v 21.33991756 14.50777892 28.58999930
v 6.71702670 26.81030706 28.58999930
v 23.95060658 -25.18654987 28.58999930
v 26.37585066 -22.63519354 28.58999930
v 20.64496279 13.81282508 28.58999930
v 20.83479241 14.08392843 28.58999930
v 7.37500656 27.75000036 28.58999930
v 21.06881328 14.31795023 28.58999930
v 7.37500656 33.83609653 28.58999930
v 7.31469924 27.40797959 28.58999930
v 20.83479241 11.64307259 28.58999930
v 20.64496279 11.91417500 28.58999930
v 31.94279224 -13.70386593 28.58999930
v 6.87500648 26.88397467 28.58999930
v 30.39255179 -16.86424389 28.58999930
v 28.53053622 -19.85157095 28.58999930
v 6.54865475 26.76519193 28.58999930
v 0.00900666 -23.82835001 28.58999930
v 0.33870377 -23.85719493 28.58999930
v 0.65838319 -23.94285239 28.58999930
v -7.29668606 27.40797959 28.58999930
v -7.34180119 27.57635154 28.58999930
v -19.72464845 28.60324085 28.58999930
v -7.35699339 27.75000036 28.58999930
v -16.87121391 30.37467226 28.58999930
v 30.77674098 16.15267806 28.58999930
v 29.07370962 19.04745586 28.58999930
v 23.74369279 14.08392843 28.58999930
v 0.33870377 -27.59680524 28.58999930
v 0.00900666 -27.62565017 28.58999930
v 1.76906527 -34.70540419 28.58999930
v -6.99978042 26.98395588 28.58999930
v -34.02965888 -6.99512335 28.58999930
v -1.21142203 -24.27254990 28.58999930
v 7.46423611 33.93551335 28.58999930
v 7.44828954 33.93245861 28.58999930
v 7.37632485 33.85227919 28.58999930
v 7.24103209 27.24999934 28.58999930
v 7.14105088 27.10721269 28.58999930
v 7.01779407 26.98395588 28.58999930
v 0.95833169 -24.08272028 28.58999930
v 1.22943532 -24.27254990 28.58999930
v 1.46345689 -24.50657077 28.58999930
v 1.65328581 -24.77767505 28.58999930
v 1.46345689 -26.94742940 28.58999930
v 1.22943532 -27.18145028 28.58999930
v 8.71918257 -33.64067897 28.58999930
v -1.75105198 -34.70539674 28.58999930
v -6.69901352 26.81030706 28.58999930
v -0.64036989 -23.94285239 28.58999930
v -0.32069045 -23.85719493 28.58999930
v -0.94031834 -24.08272028 28.58999930
v -6.85699331 26.88397467 28.58999930
v -21.94153145 14.73330520 28.58999930
v -7.12303771 27.10721269 28.58999930
v -7.22301891 27.24999934 28.58999930
v -21.32190391 11.21922117 28.58999930
v -21.62185311 11.07935235 28.58999930
v -33.28934684 9.93891619 28.58999930
v -24.05537665 12.21412327 28.58999930
v -24.14103225 12.53380254 28.58999930
v 13.87810986 31.86236694 28.58999930
v 10.73743962 33.05242956 28.58999930
v 7.49655347 33.93374756 28.58999930
v 7.48046674 33.93594176 28.58999930
v 7.38666207 33.88294950 28.58999930
v 7.41891097 33.91887993 28.58999930
v 7.39540858 33.89662877 28.58999930
v 7.40625337 33.90870988 28.58999930
v 7.43304659 33.92686695 28.58999930
v 7.38024432 33.86803344 28.58999930
v 22.61894010 14.73330520 28.58999930
v 22.93861844 14.64764774 28.58999930
v 27.09917724 21.76430821 28.58999930
v 23.23856764 14.50777892 28.58999930
v 23.50967005 14.31795023 28.58999930
v 33.30736235 9.93891619 28.58999930
v 32.19236806 13.10701389 28.58999930
v 24.18789268 12.86350004 28.58999930
v -20.81677876 14.08392843 28.58999930
v -21.05079964 14.31795023 28.58999930
v -20.62694915 13.81282508 28.58999930
v -20.48708126 13.51287682 28.58999930
v -20.40142380 13.19319755 28.58999930
v -20.37257887 12.86350004 28.58999930
v -20.40142380 12.53380254 28.58999930
v -20.48708126 12.21412327 28.58999930
v -20.62694915 11.91417500 28.58999930
v -20.81677876 11.64307259 28.58999930
v -21.05079964 11.40904985 28.58999930
v -21.94153145 10.99369489 28.58999930
v -22.27122895 10.96484996 28.58999930
v -22.60092646 10.99369489 28.58999930
v -32.17435256 13.10701389 28.58999930
v -24.16987903 12.86350004 28.58999930
v -24.14103225 13.19319755 28.58999930
v -30.75872734 16.15267806 28.58999930
v -24.05537665 13.51287682 28.58999930
v -23.91550876 13.81282508 28.58999930
v -29.05569598 19.04745586 28.58999930
v 23.93352054 13.81282508 28.58999930
v 24.07339029 13.51287682 28.58999930
v 24.15904775 13.19319755 28.58999930
v 1.79315405 -25.07762425 28.58999930
v 1.87881186 -25.39730258 28.58999930
v 1.90765667 -25.72700009 28.58999930
v 5.27112186 -34.34927389 28.58999930
v 0.95833169 -27.37127990 28.58999930
v 0.65838319 -27.51114778 28.58999930
v -0.32069045 -27.59680524 28.58999930
v -0.64036989 -27.51114778 28.58999930
v -5.25310868 -34.34927389 28.58999930
v -0.94031834 -27.37127990 28.58999930
v -8.70116893 -33.64067897 28.58999930
v 6.37500687 26.75000019 28.58999930
v -6.35699322 26.75000019 28.58999930
v -6.53064158 26.76519193 28.58999930
v -21.62185311 14.64764774 28.58999930
v -21.32190391 14.50777892 28.58999930
v 22.28924260 10.96484996 28.58999930
v 21.95954509 10.99369489 28.58999930
v 21.63986489 11.07935235 28.58999930
v 21.33991756 11.21922117 28.58999930
v -22.92060480 11.07935235 28.58999930
v -23.22055399 11.21922117 28.58999930
v -34.56270322 -3.51559930 28.58999930
v -23.49165827 11.40904985 28.58999930
v -23.72567914 14.08392843 28.58999930
v -23.49165827 14.31795023 28.58999930
v -27.08116546 21.76430821 28.58999930
v -23.22055399 14.50777892 28.58999930
v -24.85357970 24.27785657 28.58999930
v -7.35831121 33.85227919 28.58999930
v -7.36223115 33.86803344 28.58999930
v -7.36864842 33.88294950 28.58999930
v -7.40089780 33.91887993 28.58999930
v -7.41503388 33.92686695 28.58999930
v -7.43027637 33.93245861 28.58999930
v -7.44622294 33.93551335 28.58999930
v -7.46245356 33.93594176 28.58999930
v -7.47854030 33.93374756 28.58999930
v -7.35699339 33.83609653 28.58999930
v -10.71942691 33.05242956 28.58999930
v -13.86009715 31.86236694 28.58999930
v 1.65328581 -26.67632513 28.58999930
v 12.07786426 -32.58688748 28.58999930
v 1.79315405 -26.37637593 28.58999930
v 15.31270333 -31.19870834 28.58999930
v 1.87881186 -26.05669759 28.58999930
v 18.39050651 -29.49038707 28.58999930
v 21.27968892 -27.47945674 28.58999930
v -1.21142203 -27.18145028 28.58999930
v -1.44544360 -26.94742940 28.58999930
v -12.05985062 -32.58688748 28.58999930
v -1.63527252 -26.67632513 28.58999930
v -15.29468969 -31.19870834 28.58999930
v -1.77514076 -26.37637593 28.58999930
v -18.37249286 -29.49038707 28.58999930
v -1.86079857 -26.05669759 28.58999930
v -21.26167715 -27.47945674 28.58999930
v -1.88964338 -25.72700009 28.58999930
v -23.93259294 -25.18654987 28.58999930
v -26.35783888 -22.63519354 28.58999930
v -1.86079857 -25.39730258 28.58999930
v -28.51252258 -19.85157095 28.58999930
v -30.37453815 -16.86424389 28.58999930
v -1.77514076 -25.07762425 28.58999930
v -31.92477673 -13.70386593 28.58999930
v -33.14733133 -10.40286850 28.58999930
v -1.63527252 -24.77767505 28.58999930
v -1.44544360 -24.50657077 28.58999930
v -23.91550876 11.91417500 28.58999930
v -34.09329802 6.67797634 28.58999930
v -23.72567914 11.64307259 28.58999930
v -34.57868844 3.35465628 28.58999930
v -34.74099189 -0.00000000 28.58999930
v -22.27122895 14.76215012 28.58999930
v -22.39374816 26.56462044 28.58999930
v -22.60092646 14.73330520 28.58999930
v -22.92060480 14.64764774 28.58999930
v -7.37739541 33.89662877 28.58999930
v -7.38824019 33.90870988 28.58999930
v 24.15904775 12.53380254 28.58999930
v 24.07339029 12.21412327 28.58999930
v 34.11130980 6.67797634 28.58999930
v 23.93352054 11.91417500 28.58999930
v 34.59670395 3.35465628 28.58999930
v 23.74369279 11.64307259 28.58999930
v 34.75900739 -0.00000000 28.58999930
v 23.50967005 11.40904985 28.58999930
v 34.58071500 -3.51559930 28.58999930
v 21.06881328 11.40904985 28.58999930
v 34.04767066 -6.99512335 28.58999930
v 23.23856764 11.21922117 28.58999930
v 33.16534683 -10.40286850 28.58999930
v 22.93861844 11.07935235 28.58999930
v 22.61894010 10.99369489 28.58999930
v 0.00900666 -23.82835001 23.59000035
v 0.33870377 -23.85719493 23.59000035
v 0.65838319 -23.94285239 23.59000035
v 0.95833169 -24.08272028 23.59000035
v 1.22943532 -24.27254990 23.59000035
v 1.46345689 -24.50657077 23.59000035
v 1.65328581 -24.77767505 23.59000035
v 1.79315405 -25.07762425 23.59000035
v 1.87881186 -25.39730258 23.59000035
v 1.90765667 -25.72700009 23.59000035
v 1.87881186 -26.05669759 23.59000035
v 1.79315405 -26.37637593 23.59000035
v 1.65328581 -26.67632513 23.59000035
v 1.46345689 -26.94742940 23.59000035
v 1.22943532 -27.18145028 23.59000035
v 0.95833169 -27.37127990 23.59000035
v 0.65838319 -27.51114778 23.59000035
v 0.33870377 -27.59680524 23.59000035
v 0.00900666 -27.62565017 23.59000035
v -0.32069045 -27.59680524 23.59000035
v -0.64036989 -27.51114778 23.59000035
v -0.94031834 -27.37127990 23.59000035
v -1.21142203 -27.18145028 23.59000035
v -1.44544360 -26.94742940 23.59000035
v -1.63527252 -26.67632513 23.59000035
v -1.77514076 -26.37637593 23.59000035
v -1.86079857 -26.05669759 23.59000035
v -1.88964338 -25.72700009 23.59000035
v -1.86079857 -25.39730258 23.59000035
v -1.77514076 -25.07762425 23.59000035
v -1.63527252 -24.77767505 23.59000035
v -1.44544360 -24.50657077 23.59000035
v -1.21142203 -24.27254990 23.59000035
v -0.94031834 -24.08272028 23.59000035
v -0.64036989 -23.94285239 23.59000035
v -0.32069045 -23.85719493 23.59000035
v 6.37500687 26.75000019 23.59000035
v 6.54865475 26.76519193 23.59000035
v 6.71702670 26.81030706 23.59000035
v 6.87500648 26.88397467 23.59000035
v 7.01779407 26.98395588 23.59000035
v 7.14105088 27.10721269 23.59000035
v 7.24103209 27.24999934 23.59000035
v 7.31469924 27.40797959 23.59000035
v 7.35981436 27.57635154 23.59000035
v 7.37500656 27.75000036 23.59000035
v 7.37500656 33.83609653 23.59000035
v 7.37632485 33.85227919 23.59000035
v 7.38024432 33.86803344 23.59000035
v 7.38666207 33.88294950 23.59000035
v 7.39540858 33.89662877 23.59000035
v 7.40625337 33.90870988 23.59000035
v 7.41891097 33.91887993 23.59000035
v 7.43304659 33.92686695 23.59000035
v 7.44828954 33.93245861 23.59000035
v 7.46423611 33.93551335 23.59000035
v 7.48046674 33.93594176 23.59000035
v 7.49655347 33.93374756 23.59000035
v 10.73743962 33.05242956 23.59000035
v 13.87810986 31.86236694 23.59000035
v 16.88922569 30.37467226 23.59000035
v 19.74266209 28.60324085 23.59000035
v 22.41176181 26.56462044 23.59000035
v 24.87159334 24.27785657 23.59000035
v 27.09917724 21.76430821 23.59000035
v 29.07370962 19.04745586 23.59000035
v 30.77674098 16.15267806 23.59000035
v 32.19236806 13.10701389 23.59000035
v 33.30736235 9.93891619 23.59000035
v 34.11130980 6.67797634 23.59000035
v 34.59670395 3.35465628 23.59000035
v 34.75900739 -0.00000000 23.59000035
v 34.58071500 -3.51559930 23.59000035
v 34.04767066 -6.99512335 23.59000035
v 33.16534683 -10.40286850 23.59000035
v 31.94279224 -13.70386593 23.59000035
v 30.39255179 -16.86424389 23.59000035
v 28.53053622 -19.85157095 23.59000035
v 26.37585066 -22.63519354 23.59000035
v 23.95060658 -25.18654987 23.59000035
v 21.27968892 -27.47945674 23.59000035
v 18.39050651 -29.49038707 23.59000035
v 15.31270333 -31.19870834 23.59000035
v 12.07786426 -32.58688748 23.59000035
v 8.71918257 -33.64067897 23.59000035
v 5.27112186 -34.34927389 23.59000035
v 1.76906527 -34.70540419 23.59000035
v -1.75105198 -34.70539674 23.59000035
v -5.25310868 -34.34927389 23.59000035
v -8.70116893 -33.64067897 23.59000035
v -12.05985062 -32.58688748 23.59000035
v -15.29468969 -31.19870834 23.59000035
v -18.37249286 -29.49038707 23.59000035
v -21.26167715 -27.47945674 23.59000035
v -23.93259294 -25.18654987 23.59000035
v -26.35783888 -22.63519354 23.59000035
v -28.51252258 -19.85157095 23.59000035
v -30.37453815 -16.86424389 23.59000035
v -31.92477673 -13.70386593 23.59000035
v -33.14733133 -10.40286850 23.59000035
v -34.02965888 -6.99512335 23.59000035
v -34.56270322 -3.51559930 23.59000035
v -34.74099189 -0.00000000 23.59000035
v -34.57868844 3.35465628 23.59000035
v -34.09329802 6.67797634 23.59000035
v -33.28934684 9.93891619 23.59000035
v -32.17435256 13.10701389 23.59000035
v -30.75872734 16.15267806 23.59000035
v -29.05569598 19.04745586 23.59000035
v -27.08116546 21.76430821 23.59000035
v -24.85357970 24.27785657 23.59000035
v -22.39374816 26.56462044 23.59000035
v -19.72464845 28.60324085 23.59000035
v -16.87121391 30.37467226 23.59000035
v -13.86009715 31.86236694 23.59000035
v -10.71942691 33.05242956 23.59000035
v -7.47854030 33.93374756 23.59000035
v -7.46245356 33.93594176 23.59000035
v -7.44622294 33.93551335 23.59000035
v -7.43027637 33.93245861 23.59000035
v -7.41503388 33.92686695 23.59000035
v -7.40089780 33.91887993 23.59000035
v -7.38824019 33.90870988 23.59000035
v -7.37739541 33.89662877 23.59000035
v -7.36864842 33.88294950 23.59000035
v -7.36223115 33.86803344 23.59000035
v -7.35831121 33.85227919 23.59000035
v -7.35699339 33.83609653 23.59000035
v -7.35699339 27.75000036 23.59000035
v -7.34180119 27.57635154 23.59000035
v -7.29668606 27.40797959 23.59000035
v -7.22301891 27.24999934 23.59000035
v -7.12303771 27.10721269 23.59000035
v -6.99978042 26.98395588 23.59000035
v -6.85699331 26.88397467 23.59000035
v -6.69901352 26.81030706 23.59000035
v -6.53064158 26.76519193 23.59000035
v -6.35699322 26.75000019 23.59000035
v -22.27122895 14.76215012 23.59000035
v -21.94153145 14.73330520 23.59000035
v -21.62185311 14.64764774 23.59000035
v -21.32190391 14.50777892 23.59000035
v -21.05079964 14.31795023 23.59000035
v -20.81677876 14.08392843 23.59000035
v -20.62694915 13.81282508 23.59000035
v -20.48708126 13.51287682 23.59000035
v -20.40142380 13.19319755 23.59000035
v -20.37257887 12.86350004 23.59000035
v -20.40142380 12.53380254 23.59000035
v -20.48708126 12.21412327 23.59000035
v -20.62694915 11.91417500 23.59000035
v -20.81677876 11.64307259 23.59000035
v -21.05079964 11.40904985 23.59000035
v -21.32190391 11.21922117 23.59000035
v -21.62185311 11.07935235 23.59000035
v -21.94153145 10.99369489 23.59000035
v -22.27122895 10.96484996 23.59000035
v -22.60092646 10.99369489 23.59000035
v -22.92060480 11.07935235 23.59000035
v -23.22055399 11.21922117 23.59000035
v -23.49165827 11.40904985 23.59000035
v -23.72567914 11.64307259 23.59000035
v -23.91550876 11.91417500 23.59000035
v -24.05537665 12.21412327 23.59000035
v -24.14103225 12.53380254 23.59000035
v -24.16987903 12.86350004 23.59000035
v -24.14103225 13.19319755 23.59000035
v -24.05537665 13.51287682 23.59000035
v -23.91550876 13.81282508 23.59000035
v -23.72567914 14.08392843 23.59000035
v -23.49165827 14.31795023 23.59000035
v -23.22055399 14.50777892 23.59000035
v -22.92060480 14.64764774 23.59000035
v -22.60092646 14.73330520 23.59000035
v 22.28924260 14.76215012 23.59000035
v 22.61894010 14.73330520 23.59000035
v 22.93861844 14.64764774 23.59000035
v 23.23856764 14.50777892 23.59000035
v 23.50967005 14.31795023 23.59000035
v 23.74369279 14.08392843 23.59000035
v 23.93352054 13.81282508 23.59000035
v 24.07339029 13.51287682 23.59000035
v 24.15904775 13.19319755 23.59000035
v 24.18789268 12.86350004 23.59000035
v 24.15904775 12.53380254 23.59000035
v 24.07339029 12.21412327 23.59000035
v 23.93352054 11.91417500 23.59000035
v 23.74369279 11.64307259 23.59000035
v 23.50967005 11.40904985 23.59000035
v 23.23856764 11.21922117 23.59000035
v 22.93861844 11.07935235 23.59000035
v 22.61894010 10.99369489 23.59000035
v 22.28924260 10.96484996 23.59000035
v 21.95954509 10.99369489 23.59000035
v 21.63986489 11.07935235 23.59000035
v 21.33991756 11.21922117 23.59000035
v 21.06881328 11.40904985 23.59000035
v 20.83479241 11.64307259 23.59000035
v 20.64496279 11.91417500 23.59000035
v 20.50509490 12.21412327 23.59000035
v 20.41943744 12.53380254 23.59000035
v 20.39059252 12.86350004 23.59000035
v 20.41943744 13.19319755 23.59000035
v 20.50509490 13.51287682 23.59000035
v 20.64496279 13.81282508 23.59000035
v 20.83479241 14.08392843 23.59000035
v 21.06881328 14.31795023 23.59000035
v 21.33991756 14.50777892 23.59000035
v 21.63986489 14.64764774 23.59000035
v 21.95954509 14.73330520 23.59000035
f 1 2 3
f 4 5 6
f 6 7 4
f 4 7 8
f 4 8 9
f 3 2 10
f 10 2 11
f 10 11 12
f 12 11 13
f 12 13 14
f 15 16 17
f 9 18 4
f 4 18 19
f 4 19 20
f 20 19 21
f 20 21 22
f 22 21 14
f 23 24 4
f 4 24 25
f 4 25 5
f 26 27 28
f 28 27 15
f 28 15 29
f 29 15 17
f 30 31 15
f 15 31 32
f 15 32 33
f 34 35 36
f 36 35 37
f 36 37 38
f 39 40 41
f 42 43 44
f 45 46 47
f 48 49 50
f 51 52 26
f 26 52 53
f 26 53 27
f 33 54 15
f 15 54 55
f 15 55 16
f 16 55 56
f 16 56 57
f 58 59 60
f 44 43 61
f 62 63 64
f 47 65 45
f 45 65 63
f 45 63 66
f 66 63 62
f 67 68 69
f 70 71 46
f 72 73 74
f 13 75 14
f 14 75 76
f 14 76 22
f 22 76 77
f 22 77 50
f 50 77 78
f 50 78 48
f 79 80 81
f 81 80 82
f 49 83 50
f 50 83 80
f 50 80 84
f 84 80 79
f 3 85 1
f 1 85 86
f 1 86 87
f 87 86 88
f 87 88 40
f 40 88 89
f 40 89 41
f 90 91 92
f 93 45 94
f 94 45 68
f 93 95 45
f 45 95 96
f 45 96 97
f 97 98 45
f 45 98 99
f 45 99 100
f 100 101 45
f 45 101 102
f 45 102 46
f 46 102 103
f 46 103 70
f 71 104 46
f 46 104 105
f 46 105 106
f 72 74 107
f 74 108 107
f 107 108 109
f 107 109 110
f 109 111 110
f 110 111 112
f 110 112 113
f 41 114 39
f 39 114 115
f 39 115 91
f 91 115 116
f 91 116 92
f 57 117 16
f 16 117 118
f 16 118 119
f 60 59 120
f 120 59 121
f 120 121 44
f 44 121 122
f 44 122 42
f 43 123 61
f 61 123 124
f 61 124 125
f 125 124 126
f 125 126 127
f 30 128 31
f 31 128 129
f 31 129 64
f 64 129 130
f 64 130 62
f 67 131 68
f 68 131 132
f 68 132 94
f 133 134 26
f 26 134 135
f 26 135 136
f 106 137 46
f 46 137 138
f 46 138 139
f 139 138 140
f 112 141 113
f 113 141 142
f 113 142 143
f 143 142 144
f 143 144 145
f 146 147 148
f 149 150 146
f 146 150 151
f 146 151 152
f 152 153 146
f 146 153 154
f 146 154 155
f 155 154 156
f 155 156 37
f 37 156 157
f 37 157 38
f 58 60 158
f 158 60 159
f 158 159 160
f 160 159 161
f 160 161 162
f 162 161 163
f 162 163 119
f 119 163 164
f 119 164 16
f 126 165 127
f 127 165 166
f 127 166 167
f 167 166 168
f 167 168 169
f 169 168 170
f 169 170 171
f 171 170 172
f 171 172 173
f 173 172 174
f 173 174 175
f 175 174 176
f 176 174 177
f 176 177 178
f 178 177 179
f 179 177 180
f 179 180 181
f 181 180 182
f 182 180 183
f 182 183 46
f 46 183 184
f 46 184 47
f 73 72 185
f 185 72 186
f 185 186 187
f 187 186 188
f 187 188 140
f 140 188 189
f 140 189 139
f 69 34 67
f 67 34 36
f 67 36 190
f 190 36 191
f 190 191 192
f 192 191 145
f 192 145 193
f 193 145 144
f 148 194 146
f 146 194 195
f 146 195 149
f 92 196 90
f 90 196 197
f 90 197 198
f 198 197 199
f 198 199 200
f 200 199 201
f 200 201 202
f 202 201 203
f 202 203 204
f 136 205 26
f 26 205 24
f 26 24 51
f 51 24 23
f 204 203 206
f 206 203 207
f 206 207 208
f 208 207 209
f 208 209 26
f 26 209 210
f 26 210 133
f 31 211 32
f 32 211 212
f 32 212 33
f 33 212 213
f 33 213 54
f 54 213 214
f 54 214 55
f 55 214 215
f 55 215 56
f 56 215 216
f 56 216 57
f 57 216 217
f 57 217 117
f 117 217 218
f 117 218 118
f 118 218 219
f 118 219 119
f 119 219 220
f 119 220 162
f 162 220 221
f 162 221 160
f 160 221 222
f 160 222 158
f 158 222 223
f 158 223 58
f 58 223 224
f 58 224 59
f 59 224 225
f 59 225 121
f 121 225 226
f 121 226 122
f 122 226 227
f 122 227 42
f 42 227 228
f 42 228 43
f 43 228 229
f 43 229 123
f 123 229 230
f 123 230 124
f 124 230 231
f 124 231 126
f 126 231 232
f 126 232 165
f 165 232 233
f 165 233 166
f 166 233 234
f 166 234 168
f 168 234 235
f 168 235 170
f 170 235 236
f 170 236 172
f 172 236 237
f 172 237 174
f 174 237 238
f 174 238 177
f 177 238 239
f 177 239 180
f 180 239 240
f 180 240 183
f 183 240 241
f 183 241 184
f 184 241 242
f 184 242 47
f 47 242 243
f 47 243 65
f 65 243 244
f 65 244 63
f 63 244 245
f 63 245 64
f 64 245 246
f 64 246 31
f 31 246 211
f 247 128 248
f 248 128 30
f 248 30 249
f 249 30 15
f 249 15 250
f 250 15 27
f 250 27 251
f 251 27 53
f 251 53 252
f 252 53 52
f 252 52 253
f 253 52 51
f 253 51 254
f 254 51 23
f 254 23 255
f 255 23 4
f 255 4 256
f 256 4 20
f 256 20 257
f 257 20 22
f 257 22 50
f 257 50 258
f 258 50 84
f 258 84 259
f 259 84 79
f 259 79 260
f 260 79 81
f 260 81 261
f 261 81 82
f 261 82 262
f 262 82 80
f 262 80 263
f 263 80 83
f 263 83 264
f 264 83 49
f 264 49 265
f 265 49 48
f 265 48 266
f 266 48 78
f 266 78 267
f 267 78 77
f 267 77 268
f 268 77 76
f 268 76 269
f 269 76 75
f 269 75 270
f 270 75 13
f 270 13 271
f 271 13 11
f 271 11 272
f 272 11 2
f 272 2 273
f 273 2 1
f 273 1 274
f 274 1 87
f 274 87 275
f 275 87 40
f 275 40 276
f 276 40 39
f 276 39 277
f 277 39 91
f 277 91 278
f 278 91 90
f 278 90 279
f 279 90 198
f 279 198 280
f 280 198 200
f 280 200 281
f 281 200 202
f 281 202 282
f 282 202 204
f 282 204 283
f 283 204 206
f 283 206 284
f 284 206 208
f 284 208 285
f 285 208 26
f 285 26 286
f 286 26 28
f 286 28 287
f 287 28 29
f 287 29 288
f 288 29 17
f 288 17 289
f 289 17 16
f 289 16 290
f 290 16 164
f 290 164 291
f 291 164 163
f 291 163 292
f 292 163 161
f 292 161 293
f 293 161 159
f 293 159 294
f 294 159 60
f 294 60 295
f 295 60 120
f 295 120 296
f 296 120 44
f 296 44 297
f 297 44 61
f 297 61 298
f 298 61 125
f 298 125 299
f 299 125 127
f 299 127 300
f 300 127 167
f 300 167 301
f 301 167 169
f 301 169 302
f 302 169 171
f 302 171 303
f 303 171 173
f 303 173 304
f 304 173 175
f 304 175 305
f 305 175 176
f 305 176 306
f 306 176 178
f 306 178 307
f 307 178 179
f 307 179 308
f 308 179 181
f 308 181 309
f 309 181 182
f 309 182 310
f 310 182 46
f 310 46 311
f 311 46 139
f 311 139 312
f 312 139 189
f 312 189 313
f 313 189 188
f 313 188 314
f 314 188 186
f 314 186 315
f 315 186 72
f 315 72 316
f 316 72 107
f 316 107 317
f 317 107 110
f 317 110 318
f 318 110 113
f 318 113 319
f 319 113 143
f 319 143 320
f 320 143 145
f 320 145 321
f 321 145 191
f 321 191 322
f 322 191 36
f 322 36 323
f 323 36 38
f 323 38 324
f 324 38 157
f 324 157 325
f 325 157 156
f 325 156 326
f 326 156 154
f 326 154 327
f 327 154 153
f 327 153 328
f 328 153 152
f 328 152 329
f 329 152 151
f 329 151 330
f 330 151 150
f 330 150 331
f 331 150 149
f 331 149 332
f 332 149 195
f 332 195 333
f 333 195 194
f 333 194 334
f 334 194 148
f 334 148 335
f 335 148 147
f 335 147 336
f 336 147 146
f 336 146 337
f 337 146 155
f 337 155 338
f 37 339 155
f 155 339 338
f 339 37 340
f 340 37 35
f 340 35 341
f 341 35 34
f 341 34 342
f 342 34 69
f 342 69 343
f 343 69 68
f 343 68 344
f 344 68 45
f 344 45 345
f 345 45 66
f 345 66 346
f 346 66 62
f 346 62 347
f 347 62 130
f 347 130 348
f 348 130 129
f 348 129 247
f 247 129 128
f 190 349 67
f 67 349 350
f 67 350 131
f 131 350 351
f 131 351 132
f 132 351 352
f 132 352 94
f 94 352 353
f 94 353 93
f 93 353 354
f 93 354 95
f 95 354 355
f 95 355 96
f 96 355 356
f 96 356 97
f 97 356 357
f 97 357 98
f 98 357 358
f 98 358 99
f 99 358 359
f 99 359 100
f 100 359 360
f 100 360 101
f 101 360 361
f 101 361 102
f 102 361 362
f 102 362 103
f 103 362 363
f 103 363 70
f 70 363 364
f 70 364 71
f 71 364 365
f 71 365 104
f 104 365 366
f 104 366 105
f 105 366 367
f 105 367 106
f 106 367 368
f 106 368 137
f 137 368 369
f 137 369 138
f 138 369 370
f 138 370 140
f 140 370 371
f 140 371 187
f 187 371 372
f 187 372 185
f 185 372 373
f 185 373 73
f 73 373 374
f 73 374 74
f 74 374 375
f 74 375 108
f 108 375 376
f 108 376 109
f 109 376 377
f 109 377 111
f 111 377 378
f 111 378 112
f 112 378 379
f 112 379 141
f 141 379 380
f 141 380 142
f 142 380 381
f 142 381 144
f 144 381 382
f 144 382 193
f 193 382 383
f 193 383 192
f 192 383 384
f 192 384 190
f 190 384 349
f 3 385 85
f 85 385 386
f 85 386 86
f 86 386 387
f 86 387 88
f 88 387 388
f 88 388 89
f 89 388 389
f 89 389 41
f 41 389 390
f 41 390 114
f 114 390 391
f 114 391 115
f 115 391 392
f 115 392 116
f 116 392 393
f 116 393 92
f 92 393 394
f 92 394 196
f 196 394 395
f 196 395 197
f 197 395 396
f 197 396 199
f 199 396 397
f 199 397 201
f 201 397 398
f 201 398 203
f 203 398 399
f 203 399 207
f 207 399 400
f 207 400 209
f 209 400 401
f 209 401 210
f 210 401 402
f 210 402 133
f 133 402 403
f 133 403 134
f 134 403 404
f 134 404 135
f 135 404 405
f 135 405 136
f 136 405 406
f 136 406 205
f 205 406 407
f 205 407 24
f 24 407 408
f 24 408 25
f 25 408 409
f 25 409 5
f 5 409 410
f 5 410 6
f 6 410 411
f 6 411 7
f 7 411 412
f 7 412 8
f 8 412 413
f 8 413 9
f 9 413 414
f 9 414 18
f 18 414 415
f 18 415 19
f 19 415 416
f 19 416 21
f 21 416 417
f 21 417 14
f 14 417 418
f 14 418 12
f 12 418 419
f 12 419 10
f 10 419 420
f 10 420 3
f 3 420 385
f 213 372 371
f 213 368 367
f 279 396 395
f 371 370 213
f 213 370 369
f 213 369 368
f 418 417 358
f 279 395 278
f 351 350 342
f 250 389 388
f 297 228 227
f 345 346 358
f 358 346 347
f 358 347 348
f 395 394 278
f 278 394 393
f 278 393 277
f 393 392 277
f 277 392 391
f 277 391 276
f 385 420 358
f 358 420 419
f 358 419 418
f 417 416 358
f 358 416 415
f 358 415 414
f 363 362 410
f 367 366 213
f 213 366 365
f 213 365 409
f 403 402 288
f 399 283 400
f 400 283 284
f 400 284 401
f 341 319 320
f 345 358 344
f 344 358 357
f 344 357 356
f 372 213 373
f 373 213 212
f 373 212 211
f 297 227 296
f 296 227 226
f 296 226 295
f 388 387 250
f 250 387 386
f 250 386 249
f 249 386 385
f 249 385 248
f 248 385 358
f 248 358 247
f 247 358 348
f 250 251 389
f 389 251 252
f 389 252 253
f 362 361 410
f 410 361 360
f 410 360 359
f 215 404 216
f 216 404 217
f 284 285 401
f 401 285 286
f 401 286 402
f 402 286 287
f 402 287 288
f 396 279 397
f 397 279 280
f 397 280 398
f 398 280 281
f 398 281 399
f 399 281 282
f 399 282 283
f 350 349 342
f 342 349 384
f 342 384 383
f 382 381 317
f 298 299 232
f 409 365 410
f 410 365 364
f 410 364 363
f 339 326 338
f 338 326 327
f 211 246 373
f 373 246 245
f 373 245 244
f 232 299 233
f 233 299 300
f 233 300 234
f 253 254 389
f 389 254 276
f 389 276 390
f 390 276 391
f 271 272 256
f 256 272 273
f 256 273 255
f 255 273 274
f 255 274 254
f 254 274 275
f 254 275 276
f 414 413 358
f 358 413 412
f 358 412 359
f 359 412 411
f 359 411 410
f 288 289 403
f 403 289 290
f 403 290 404
f 404 290 218
f 404 218 217
f 409 408 213
f 213 408 407
f 213 407 214
f 214 407 406
f 214 406 215
f 215 406 405
f 215 405 404
f 341 320 340
f 340 320 321
f 340 321 339
f 339 321 322
f 339 322 323
f 356 355 344
f 344 355 354
f 344 354 343
f 343 354 353
f 343 353 342
f 342 353 352
f 342 352 351
f 319 341 318
f 318 341 342
f 318 342 317
f 317 342 383
f 317 383 382
f 381 380 317
f 317 380 379
f 317 379 378
f 378 377 317
f 317 377 376
f 317 376 316
f 316 376 375
f 313 314 242
f 232 231 298
f 298 231 230
f 298 230 297
f 297 230 229
f 297 229 228
f 226 225 295
f 295 225 224
f 295 224 294
f 294 224 223
f 294 223 293
f 293 223 222
f 293 222 292
f 292 222 221
f 292 221 291
f 291 221 220
f 291 220 290
f 290 220 219
f 290 219 218
f 257 269 256
f 256 269 270
f 256 270 271
f 264 265 257
f 257 265 266
f 323 324 339
f 339 324 325
f 339 325 326
f 244 243 373
f 373 243 316
f 373 316 374
f 374 316 375
f 242 314 243
f 243 314 315
f 243 315 316
f 234 300 235
f 235 300 301
f 235 301 236
f 236 301 302
f 236 302 237
f 237 302 303
f 237 303 238
f 266 267 257
f 257 267 268
f 257 268 269
f 240 239 307
f 258 259 257
f 257 259 260
f 257 260 261
f 330 331 329
f 329 331 328
f 331 332 328
f 328 332 333
f 328 333 327
f 327 333 334
f 327 334 335
f 335 336 327
f 327 336 337
f 327 337 338
f 241 311 242
f 242 311 312
f 242 312 313
f 307 308 240
f 240 308 309
f 240 309 241
f 241 309 310
f 241 310 311
f 303 304 238
f 238 304 305
f 238 305 239
f 239 305 306
f 239 306 307
f 261 262 257
f 257 262 263
f 257 263 264

