# Exported by SolidWorks
g 
v -0.00000000 -30.75000085 -1.26999838
v -0.00000000 -30.75000085 23.62200059
v 3.32465977 -30.56974150 -1.26999838
v 3.32465977 -30.56974150 23.62200059
v 6.61034090 -30.03108129 -1.26999838
v 6.61034090 -30.03108129 23.62200059
v 9.81852226 -29.14033458 -1.26999838
v 9.81852226 -29.14033458 23.62200059
v 12.91158982 -27.90794335 -1.26999838
v 12.91158982 -27.90794335 23.62200059
v 15.85328020 -26.34835802 -1.26999838
v 15.85328020 -26.34835802 23.62200059
v 18.60910654 -24.47986230 -1.26999838
v 18.60910654 -24.47986230 23.62200059
v 21.14675753 -22.32436091 -1.26999838
v 21.14675753 -22.32436091 23.62200059
v 23.43648300 -19.90712807 -1.26999838
v 23.43648300 -19.90712807 23.62200059
v 25.45143664 -17.25650206 -1.26999838
v 25.45143664 -17.25650206 23.62200059
v 27.16799453 -14.40355927 -1.26999838
v 27.16799453 -14.40355927 23.62200059
v 28.56603451 -11.38174813 -1.26999838
v 28.56603451 -11.38174813 23.62200059
v 29.62916158 -8.22649617 -1.26999838
v 29.62916158 -8.22649617 23.62200059
v 30.34491464 -4.97479644 -1.26999838
v 30.34491464 -4.97479644 23.62200059
v 30.70490249 -1.66477147 -1.26999838
v 30.70490249 -1.66477147 23.62200059
v 30.70490249 1.66477147 -1.26999838
v 30.70490249 1.66477147 23.62200059
v 30.34491464 4.97479644 -1.26999838
v 30.34491464 4.97479644 23.62200059
v 29.62916158 8.22649617 -1.26999838
v 29.62916158 8.22649617 23.62200059
v 28.56603451 11.38174813 -1.26999838
v 28.56603451 11.38174813 23.62200059
v 27.16799453 14.40355927 -1.26999838
v 27.16799453 14.40355927 23.62200059
v 25.45143664 17.25650206 -1.26999838
v 25.45143664 17.25650206 23.62200059
v 23.43648300 19.90712807 -1.26999838
v 23.43648300 19.90712807 23.62200059
v 21.14675753 22.32436091 -1.26999838
v 21.14675753 22.32436091 23.62200059
v 18.60910654 24.47986230 -1.26999838
v 18.60910654 24.47986230 23.62200059
v 15.85328020 26.34835802 -1.26999838
v 15.85328020 26.34835802 23.62200059
v 12.91158982 27.90794335 -1.26999838
v 12.91158982 27.90794335 23.62200059
v 9.81852226 29.14033458 -1.26999838
v 9.81852226 29.14033458 23.62200059
v 6.61034090 30.03108129 -1.26999838
v 6.61034090 30.03108129 23.62200059
v 3.32465977 30.56974150 -1.26999838
v 3.32465977 30.56974150 23.62200059
v 0.00000000 30.75000085 -1.26999838
v 0.00000000 30.75000085 23.62200059
v -3.32465977 30.56974150 -1.26999838
v -3.32465977 30.56974150 23.62200059
v -6.61034090 30.03108129 -1.26999838
v -6.61034090 30.03108129 23.62200059
v -9.81852226 29.14033458 -1.26999838
v -9.81852226 29.14033458 23.62200059
v -12.91158982 27.90794335 -1.26999838
v -12.91158982 27.90794335 23.62200059
v -15.85328020 26.34835802 -1.26999838
v -15.85328020 26.34835802 23.62200059
v -18.60910654 24.47986230 -1.26999838
v -18.60910654 24.47986230 23.62200059
v -21.14675753 22.32436091 -1.26999838
v -21.14675753 22.32436091 23.62200059
v -23.43648300 19.90712807 -1.26999838
v -23.43648300 19.90712807 23.62200059
v -25.45143664 17.25650206 -1.26999838
v -25.45143664 17.25650206 23.62200059
v -27.16799453 14.40355927 -1.26999838
v -27.16799453 14.40355927 23.62200059
v -28.56603451 11.38174813 -1.26999838
v -28.56603451 11.38174813 23.62200059
v -29.62916158 8.22649617 -1.26999838
v -29.62916158 8.22649617 23.62200059
v -30.34491464 4.97479644 -1.26999838
v -30.34491464 4.97479644 23.62200059
v -30.70490249 1.66477147 -1.26999838
v -30.70490249 1.66477147 23.62200059
v -30.70490249 -1.66477147 -1.26999838
v -30.70490249 -1.66477147 23.62200059
v -30.34491464 -4.97479644 -1.26999838
v -30.34491464 -4.97479644 23.62200059
v -29.62916158 -8.22649617 -1.26999838
v -29.62916158 -8.22649617 23.62200059
v -28.56603451 -11.38174813 -1.26999838
v -28.56603451 -11.38174813 23.62200059
v -27.16799453 -14.40355927 -1.26999838
v -27.16799453 -14.40355927 23.62200059
v -25.45143664 -17.25650206 -1.26999838
v -25.45143664 -17.25650206 23.62200059
v -23.43648300 -19.90712807 -1.26999838
v -23.43648300 -19.90712807 23.62200059
v -21.14675753 -22.32436091 -1.26999838
v -21.14675753 -22.32436091 23.62200059
v -18.60910654 -24.47986230 -1.26999838
v -18.60910654 -24.47986230 23.62200059
v -15.85328020 -26.34835802 -1.26999838
v -15.85328020 -26.34835802 23.62200059
v -12.91158982 -27.90794335 -1.26999838
v -12.91158982 -27.90794335 23.62200059
v -9.81852226 -29.14033458 -1.26999838
v -9.81852226 -29.14033458 23.62200059
v -6.61034090 -30.03108129 -1.26999838
v -6.61034090 -30.03108129 23.62200059
v -3.32465977 -30.56974150 -1.26999838
v -3.32465977 -30.56974150 23.62200059
v -1.78888673 -34.70392525 23.62200059
v 1.78888673 -34.70392525 23.62200059
v 5.34769753 -34.33605283 23.62200059
v 8.84982105 -33.60421211 23.62200059
v 12.25813478 -32.51615912 23.62200059
v 15.53650945 -31.08342551 23.62200059
v 18.65019277 -29.32120115 23.62200059
v 21.56617865 -27.24816278 23.62200059
v 24.25356023 -24.88628775 23.62200059
v 26.68384463 -22.26061374 23.62200059
v 28.83127704 -19.39896867 23.62200059
v 30.67308851 -16.33169129 23.62200059
v 32.18975663 -13.09129409 23.62200059
v 33.36520866 -9.71212611 23.62200059
v 34.18697789 -6.23000693 23.62200059
v 34.64635834 -2.68184720 23.62200059
v 34.73848104 0.89473999 23.62200059
v 34.46236253 4.46184305 23.62200059
v 33.82093832 7.98164867 23.62200059
v 32.82099962 11.41684782 23.62200059
v 31.47315234 14.73102532 23.62200059
v 29.79168296 17.88905077 23.62200059
v 27.79441327 20.85744590 23.62200059
v 25.50251596 23.60474877 23.62200059
v 22.94028550 26.10183507 23.62200059
v 20.13488300 28.32223475 23.62200059
v 17.11604558 30.24241142 23.62200059
v 13.91577348 31.84201196 23.62200059
v 10.56799013 33.10408071 23.62200059
v 7.10818451 34.01523456 23.62200059
v 3.57302953 34.56582129 23.62200059
v 0.00000000 34.74999964 23.62200059
v -3.57302953 34.56582129 23.62200059
v -7.10818451 34.01523456 23.62200059
v -10.56799013 33.10408071 23.62200059
v -13.91577348 31.84201196 23.62200059
v -17.11604558 30.24241142 23.62200059
v -20.13488300 28.32223475 23.62200059
v -22.94028550 26.10183507 23.62200059
v -25.50251596 23.60474877 23.62200059
v -27.79441327 20.85744590 23.62200059
v -29.79168296 17.88905077 23.62200059
v -31.47315234 14.73102532 23.62200059
v -32.82099962 11.41684782 23.62200059
v -33.82093832 7.98164867 23.62200059
v -34.46236253 4.46184305 23.62200059
v -34.73848104 0.89473999 23.62200059
v -34.64635834 -2.68184720 23.62200059
v -34.18697789 -6.23000693 23.62200059
v -33.36520866 -9.71212611 23.62200059
v -32.18975663 -13.09129409 23.62200059
v -30.67308851 -16.33169129 23.62200059
v -28.83127704 -19.39896867 23.62200059
v -26.68384463 -22.26061374 23.62200059
v -24.25356023 -24.88628775 23.62200059
v -21.56617865 -27.24816278 23.62200059
v -18.65019277 -29.32120115 23.62200059
v -15.53650945 -31.08342551 23.62200059
v -12.25813478 -32.51615912 23.62200059
v -8.84982105 -33.60421211 23.62200059
v -5.34769753 -34.33605283 23.62200059
v -3.57302953 34.56582129 -1.26999838
v -7.10818451 34.01523456 -1.26999838
v -10.56799013 33.10408071 -1.26999838
v -13.91577348 31.84201196 -1.26999838
v -17.11604558 30.24241142 -1.26999838
v -20.13488300 28.32223475 -1.26999838
v -22.94028550 26.10183507 -1.26999838
v -25.50251596 23.60474877 -1.26999838
v -27.79441327 20.85744590 -1.26999838
v -29.79168296 17.88905077 -1.26999838
v -31.47315234 14.73102532 -1.26999838
v -32.82099962 11.41684782 -1.26999838
v -33.82093832 7.98164867 -1.26999838
v -34.46236253 4.46184305 -1.26999838
v -34.73848104 0.89473999 -1.26999838
v -34.64635834 -2.68184720 -1.26999838
v -34.18697789 -6.23000693 -1.26999838
v -33.36520866 -9.71212611 -1.26999838
v -32.18975663 -13.09129409 -1.26999838
v -30.67308851 -16.33169129 -1.26999838
v -28.83127704 -19.39896867 -1.26999838
v -26.68384463 -22.26061374 -1.26999838
v -24.25356023 -24.88628775 -1.26999838
v -21.56617865 -27.24816278 -1.26999838
v -18.65019277 -29.32120115 -1.26999838
v -15.53650945 -31.08342551 -1.26999838
v -12.25813478 -32.51615912 -1.26999838
v -8.84982105 -33.60421211 -1.26999838
v -5.34769753 -34.33605283 -1.26999838
v -1.78888673 -34.70392525 -1.26999838
v 1.78888673 -34.70392525 -1.26999838
v 5.34769753 -34.33605283 -1.26999838
v 8.84982105 -33.60421211 -1.26999838
v 12.25813478 -32.51615912 -1.26999838
v 15.53650945 -31.08342551 -1.26999838
v 18.65019277 -29.32120115 -1.26999838
v 21.56617865 -27.24816278 -1.26999838
v 24.25356023 -24.88628775 -1.26999838
v 26.68384463 -22.26061374 -1.26999838
v 28.83127704 -19.39896867 -1.26999838
v 30.67308851 -16.33169129 -1.26999838
v 32.18975663 -13.09129409 -1.26999838
v 33.36520866 -9.71212611 -1.26999838
v 34.18697789 -6.23000693 -1.26999838
v 34.64635834 -2.68184720 -1.26999838
v 34.73848104 0.89473999 -1.26999838
v 34.46236253 4.46184305 -1.26999838
v 33.82093832 7.98164867 -1.26999838
v 32.82099962 11.41684782 -1.26999838
v 31.47315234 14.73102532 -1.26999838
v 29.79168296 17.88905077 -1.26999838
v 27.79441327 20.85744590 -1.26999838
v 25.50251596 23.60474877 -1.26999838
v 22.94028550 26.10183507 -1.26999838
v 20.13488300 28.32223475 -1.26999838
v 17.11604558 30.24241142 -1.26999838
v 13.91577348 31.84201196 -1.26999838
v 10.56799013 33.10408071 -1.26999838
v 7.10818451 34.01523456 -1.26999838
v 3.57302953 34.56582129 -1.26999838
v 0.00000000 34.74999964 -1.26999838
f 1 2 3
f 3 2 4
f 3 4 5
f 5 4 6
f 5 6 7
f 7 6 8
f 7 8 9
f 9 8 10
f 9 10 11
f 11 10 12
f 11 12 13
f 13 12 14
f 13 14 15
f 15 14 16
f 15 16 17
f 17 16 18
f 17 18 19
f 19 18 20
f 19 20 21
f 21 20 22
f 21 22 23
f 23 22 24
f 23 24 25
f 25 24 26
f 25 26 27
f 27 26 28
f 27 28 29
f 29 28 30
f 29 30 31
f 31 30 32
f 31 32 33
f 33 32 34
f 33 34 35
f 35 34 36
f 35 36 37
f 37 36 38
f 37 38 39
f 39 38 40
f 39 40 41
f 41 40 42
f 41 42 43
f 43 42 44
f 43 44 45
f 45 44 46
f 45 46 47
f 47 46 48
f 47 48 49
f 49 48 50
f 49 50 51
f 51 50 52
f 51 52 53
f 53 52 54
f 53 54 55
f 55 54 56
f 55 56 57
f 57 56 58
f 57 58 59
f 59 58 60
f 59 60 61
f 61 60 62
f 61 62 63
f 63 62 64
f 63 64 65
f 65 64 66
f 65 66 67
f 67 66 68
f 67 68 69
f 69 68 70
f 69 70 71
f 71 70 72
f 71 72 73
f 73 72 74
f 73 74 75
f 75 74 76
f 75 76 77
f 77 76 78
f 77 78 79
f 79 78 80
f 79 80 81
f 81 80 82
f 81 82 83
f 83 82 84
f 83 84 85
f 85 84 86
f 85 86 87
f 87 86 88
f 87 88 89
f 89 88 90
f 89 90 91
f 91 90 92
f 91 92 93
f 93 92 94
f 93 94 95
f 95 94 96
f 95 96 97
f 97 96 98
f 97 98 99
f 99 98 100
f 99 100 101
f 101 100 102
f 101 102 103
f 103 102 104
f 103 104 105
f 105 104 106
f 105 106 107
f 107 106 108
f 107 108 109
f 109 108 110
f 109 110 111
f 111 110 112
f 111 112 113
f 113 112 114
f 113 114 115
f 115 114 116
f 115 116 1
f 1 116 2
f 116 117 2
f 2 117 118
f 2 118 4
f 4 118 119
f 4 119 6
f 6 119 120
f 6 120 8
f 8 120 121
f 8 121 10
f 10 121 122
f 10 122 12
f 12 122 123
f 12 123 14
f 14 123 124
f 14 124 16
f 16 124 125
f 16 125 18
f 18 125 126
f 18 126 20
f 20 126 127
f 20 127 22
f 22 127 128
f 22 128 24
f 24 128 129
f 24 129 26
f 26 129 130
f 26 130 28
f 28 130 131
f 28 131 30
f 30 131 132
f 30 132 32
f 32 132 133
f 32 133 34
f 34 133 134
f 34 134 36
f 36 134 135
f 36 135 38
f 38 135 136
f 38 136 40
f 136 137 40
f 40 137 138
f 40 138 42
f 42 138 139
f 42 139 44
f 44 139 140
f 44 140 46
f 46 140 141
f 46 141 48
f 48 141 142
f 48 142 50
f 50 142 143
f 50 143 52
f 52 143 144
f 52 144 54
f 54 144 145
f 54 145 56
f 56 145 146
f 56 146 58
f 58 146 147
f 58 147 60
f 60 147 148
f 60 148 62
f 62 148 149
f 62 149 64
f 64 149 150
f 64 150 66
f 66 150 151
f 66 151 68
f 68 151 152
f 68 152 70
f 70 152 153
f 70 153 72
f 72 153 154
f 72 154 74
f 74 154 155
f 74 155 76
f 76 155 156
f 76 156 78
f 156 157 78
f 78 157 158
f 78 158 80
f 80 158 159
f 80 159 82
f 82 159 160
f 82 160 84
f 84 160 161
f 84 161 86
f 86 161 162
f 86 162 88
f 88 162 163
f 88 163 90
f 90 163 164
f 90 164 92
f 92 164 165
f 92 165 94
f 94 165 166
f 94 166 96
f 96 166 167
f 96 167 98
f 98 167 168
f 98 168 100
f 100 168 169
f 100 169 102
f 102 169 170
f 102 170 104
f 104 170 171
f 104 171 106
f 106 171 172
f 106 172 108
f 108 172 173
f 108 173 110
f 110 173 174
f 110 174 112
f 112 174 175
f 112 175 114
f 114 175 176
f 114 176 116
f 116 176 177
f 116 177 117
f 148 178 149
f 149 178 179
f 149 179 150
f 150 179 180
f 150 180 151
f 151 180 181
f 151 181 152
f 152 181 182
f 152 182 153
f 153 182 183
f 153 183 154
f 154 183 184
f 154 184 155
f 155 184 185
f 155 185 156
f 156 185 186
f 156 186 157
f 157 186 187
f 157 187 158
f 158 187 188
f 158 188 159
f 159 188 189
f 159 189 160
f 160 189 190
f 160 190 161
f 161 190 191
f 161 191 162
f 162 191 192
f 162 192 163
f 163 192 193
f 163 193 164
f 164 193 194
f 164 194 165
f 165 194 195
f 165 195 166
f 166 195 196
f 166 196 167
f 167 196 197
f 167 197 168
f 168 197 198
f 168 198 169
f 169 198 199
f 169 199 170
f 170 199 200
f 170 200 171
f 171 200 201
f 171 201 172
f 172 201 202
f 172 202 173
f 173 202 203
f 173 203 174
f 174 203 204
f 174 204 175
f 175 204 205
f 175 205 176
f 176 205 206
f 176 206 177
f 177 206 207
f 177 207 117
f 117 207 208
f 117 208 118
f 118 208 209
f 118 209 119
f 119 209 210
f 119 210 120
f 120 210 211
f 120 211 121
f 121 211 212
f 121 212 122
f 122 212 213
f 122 213 123
f 123 213 214
f 123 214 124
f 124 214 215
f 124 215 125
f 125 215 216
f 125 216 126
f 126 216 217
f 126 217 127
f 127 217 218
f 127 218 128
f 128 218 219
f 128 219 129
f 129 219 220
f 129 220 130
f 130 220 221
f 130 221 131
f 131 221 222
f 131 222 132
f 132 222 223
f 132 223 133
f 133 223 224
f 133 224 134
f 134 224 225
f 134 225 135
f 135 225 226
f 135 226 136
f 136 226 227
f 136 227 137
f 137 227 228
f 137 228 138
f 138 228 229
f 138 229 139
f 139 229 230
f 139 230 140
f 140 230 231
f 140 231 141
f 141 231 232
f 141 232 142
f 142 232 233
f 142 233 143
f 143 233 234
f 143 234 144
f 144 234 235
f 144 235 145
f 145 235 236
f 145 236 146
f 146 236 237
f 146 237 147
f 147 237 238
f 147 238 148
f 148 238 178
f 79 187 77
f 77 187 186
f 77 186 75
f 75 186 185
f 75 185 73
f 73 185 184
f 73 184 71
f 71 184 183
f 71 183 69
f 69 183 182
f 69 182 67
f 67 182 181
f 67 181 65
f 65 181 180
f 65 180 63
f 63 180 179
f 63 179 61
f 61 179 178
f 61 178 59
f 59 178 238
f 59 238 57
f 57 238 237
f 57 237 55
f 55 237 236
f 55 236 53
f 53 236 235
f 53 235 51
f 51 235 234
f 51 234 49
f 49 234 233
f 49 233 47
f 47 233 232
f 47 232 45
f 45 232 231
f 45 231 43
f 43 231 230
f 43 230 41
f 230 229 41
f 41 229 228
f 41 228 39
f 39 228 227
f 39 227 37
f 37 227 226
f 37 226 35
f 35 226 225
f 35 225 33
f 33 225 224
f 33 224 31
f 31 224 223
f 31 223 29
f 29 223 222
f 29 222 27
f 27 222 221
f 27 221 25
f 25 221 220
f 25 220 23
f 23 220 219
f 23 219 21
f 21 219 218
f 21 218 19
f 19 218 217
f 19 217 17
f 17 217 216
f 17 216 15
f 15 216 215
f 15 215 13
f 13 215 214
f 13 214 11
f 11 214 213
f 11 213 9
f 9 213 212
f 9 212 7
f 7 212 211
f 7 211 5
f 5 211 210
f 5 210 3
f 3 210 209
f 3 209 1
f 209 208 1
f 1 208 207
f 1 207 115
f 115 207 206
f 115 206 113
f 113 206 205
f 113 205 111
f 111 205 204
f 111 204 109
f 109 204 203
f 109 203 107
f 107 203 202
f 107 202 105
f 105 202 201
f 105 201 103
f 103 201 200
f 103 200 101
f 101 200 199
f 101 199 99
f 99 199 198
f 99 198 97
f 97 198 197
f 97 197 95
f 95 197 196
f 95 196 93
f 93 196 195
f 93 195 91
f 91 195 194
f 91 194 89
f 89 194 193
f 89 193 87
f 87 193 192
f 87 192 85
f 85 192 191
f 85 191 83
f 83 191 190
f 83 190 81
f 81 190 189
f 81 189 79
f 79 189 188
f 79 188 187

