# Exported by SolidWorks
g 
v 1.85000000 -25.72700009 -1.26999838
v 1.85000000 -25.72700009 -2.77000130
v 1.82189432 -26.04824863 -1.26999838
v 1.82189432 -26.04824863 -2.77000130
v 1.73843140 -26.35973692 -1.26999838
v 1.73843140 -26.35973692 -2.77000130
v 1.60214701 -26.65200084 -1.26999838
v 1.60214701 -26.65200084 -2.77000130
v 1.41718227 -26.91615745 -1.26999838
v 1.41718227 -26.91615745 -2.77000130
v 1.18915713 -27.14418247 -1.26999838
v 1.18915713 -27.14418247 -2.77000130
v 0.92500000 -27.32914686 -1.26999838
v 0.92500000 -27.32914686 -2.77000130
v 0.63273724 -27.46543102 -1.26999838
v 0.63273724 -27.46543102 -2.77000130
v 0.32124913 -27.54889429 -1.26999838
v 0.32124913 -27.54889429 -2.77000130
v -0.00000000 -27.57699974 -1.26999838
v -0.00000000 -27.57699974 -2.77000130
v -0.32124913 -27.54889429 -1.26999838
v -0.32124913 -27.54889429 -2.77000130
v -0.63273724 -27.46543102 -1.26999838
v -0.63273724 -27.46543102 -2.77000130
v -0.92500000 -27.32914686 -1.26999838
v -0.92500000 -27.32914686 -2.77000130
v -1.18915713 -27.14418247 -1.26999838
v -1.18915713 -27.14418247 -2.77000130
v -1.41718227 -26.91615745 -1.26999838
v -1.41718227 -26.91615745 -2.77000130
v -1.60214701 -26.65200084 -1.26999838
v -1.60214701 -26.65200084 -2.77000130
v -1.73843140 -26.35973692 -1.26999838
v -1.73843140 -26.35973692 -2.77000130
v -1.82189432 -26.04824863 -1.26999838
v -1.82189432 -26.04824863 -2.77000130
v -1.85000000 -25.72700009 -1.26999838
v -1.85000000 -25.72700009 -2.77000130
v -1.82189432 -25.40575154 -1.26999838
v -1.82189432 -25.40575154 -2.77000130
v -1.73843140 -25.09426326 -1.26999838
v -1.73843140 -25.09426326 -2.77000130
v -1.60214701 -24.80199933 -1.26999838
v -1.60214701 -24.80199933 -2.77000130
v -1.41718227 -24.53784272 -1.26999838
v -1.41718227 -24.53784272 -2.77000130
v -1.18915713 -24.30981770 -1.26999838
v -1.18915713 -24.30981770 -2.77000130
v -0.92500000 -24.12485331 -1.26999838
v -0.92500000 -24.12485331 -2.77000130
v -0.63273724 -23.98856916 -1.26999838
v -0.63273724 -23.98856916 -2.77000130
v -0.32124913 -23.90510589 -1.26999838
v -0.32124913 -23.90510589 -2.77000130
v -0.00000000 -23.87700044 -1.26999838
v -0.00000000 -23.87700044 -2.77000130
v 0.32124913 -23.90510589 -1.26999838
v 0.32124913 -23.90510589 -2.77000130
v 0.63273724 -23.98856916 -1.26999838
v 0.63273724 -23.98856916 -2.77000130
v 0.92500000 -24.12485331 -1.26999838
v 0.92500000 -24.12485331 -2.77000130
v 1.18915713 -24.30981770 -1.26999838
v 1.18915713 -24.30981770 -2.77000130
v 1.41718227 -24.53784272 -1.26999838
v 1.41718227 -24.53784272 -2.77000130
v 1.60214701 -24.80199933 -1.26999838
v 1.60214701 -24.80199933 -2.77000130
v 1.73843140 -25.09426326 -1.26999838
v 1.73843140 -25.09426326 -2.77000130
v 1.82189432 -25.40575154 -1.26999838
v 1.82189432 -25.40575154 -2.77000130
v 8.80951155 -7.39205768 -2.77000130
v 9.95929260 -5.75000001 -2.77000130
v 34.74999964 -0.00000000 -2.77000130
v -8.80951155 -7.39205768 -2.77000130
v -7.39205768 -8.80951155 -2.77000130
v -5.75000001 -9.95929260 -2.77000130
v 30.38354404 16.86424389 -2.77000130
v 31.93378448 13.70386593 -2.77000130
v 24.10212904 13.18474952 -2.77000130
v 24.01866764 13.49623688 -2.77000130
v 23.88238348 13.78849987 -2.77000130
v 28.52153033 19.85157095 -2.77000130
v 26.36684477 -22.63519354 -2.77000130
v 7.39205768 -8.80951155 -2.77000130
v 10.80646552 -3.93323181 -2.77000130
v 11.32528950 -1.99695397 -2.77000130
v 11.50000002 -0.00000000 -2.77000130
v -3.93323181 -10.80646552 -2.77000130
v -1.99695397 -11.32528950 -2.77000130
v -0.00000000 -11.50000002 -2.77000130
v 1.99695397 -11.32528950 -2.77000130
v -26.36684477 22.63519354 -2.77000130
v -22.91297354 14.60193098 -2.77000130
v -23.20523560 14.46564682 -2.77000130
v -1.76005857 -34.70539674 -2.77000130
v 1.76005857 -34.70540419 -2.77000130
v 5.26211504 -34.34927389 -2.77000130
v 8.71017575 -33.64067897 -2.77000130
v 12.06885744 -32.58688748 -2.77000130
v 15.30369651 -31.19870834 -2.77000130
v 18.38149875 -29.49038707 -2.77000130
v 21.27068304 -27.47945674 -2.77000130
v 23.94160070 -25.18654987 -2.77000130
v 3.93323181 -10.80646552 -2.77000130
v 5.75000001 -9.95929260 -2.77000130
v 34.57170725 -3.51559930 -2.77000130
v 23.20523560 14.46564682 -2.77000130
v 26.36684477 22.63519354 -2.77000130
v 23.46939221 14.28068243 -2.77000130
v 23.69741723 14.05265741 -2.77000130
v 1.76005857 34.70539674 -2.77000130
v 5.26211504 34.34927389 -2.77000130
v -20.86305246 14.05265741 -2.77000130
v -28.52153033 19.85157095 -2.77000130
v -23.46939221 14.28068243 -2.77000130
v -23.69741723 14.05265741 -2.77000130
v -30.38354404 16.86424389 -2.77000130
v 30.38354404 -16.86424389 -2.77000130
v 28.52153033 -19.85157095 -2.77000130
v 34.03866664 -6.99512335 -2.77000130
v 33.15633908 -10.40286850 -2.77000130
v 31.93378448 -13.70386593 -2.77000130
v 21.64749801 11.12506911 -2.77000130
v 21.95898630 11.04160585 -2.77000130
v 22.28023484 11.01350039 -2.77000130
v 22.60148712 11.04160585 -2.77000130
v 22.91297354 11.12506911 -2.77000130
v 23.20523560 11.26135327 -2.77000130
v 23.46939221 11.44631766 -2.77000130
v 34.57170725 3.51559930 -2.77000130
v 23.69741723 11.67434268 -2.77000130
v 34.03866664 6.99512335 -2.77000130
v 22.91297354 14.60193098 -2.77000130
v 22.60148712 14.68539424 -2.77000130
v 22.28023484 14.71349970 -2.77000130
v 23.94160070 25.18654987 -2.77000130
v -20.45833878 13.18474952 -2.77000130
v 21.27068304 27.47945674 -2.77000130
v -20.54180391 13.49623688 -2.77000130
v 18.38149875 29.49038707 -2.77000130
v 23.88238348 11.93850022 -2.77000130
v 24.01866764 12.23076228 -2.77000130
v 33.15633908 10.40286850 -2.77000130
v 24.10212904 12.54225057 -2.77000130
v 24.13023636 12.86350004 -2.77000130
v -20.67808807 13.78849987 -2.77000130
v -21.64749801 11.12506911 -2.77000130
v 8.71017575 33.64067897 -2.77000130
v 12.06885744 32.58688748 -2.77000130
v 15.30369651 31.19870834 -2.77000130
v -21.09107934 14.28068243 -2.77000130
v -5.26211504 34.34927389 -2.77000130
v -1.76005857 34.70540419 -2.77000130
v -22.60148339 14.68539424 -2.77000130
v -23.94160070 25.18654987 -2.77000130
v -22.28023484 14.71349970 -2.77000130
v -21.27068304 27.47945674 -2.77000130
v -21.95898630 14.68539424 -2.77000130
v -18.38149875 29.49038707 -2.77000130
v -21.64749801 14.60193098 -2.77000130
v -15.30369651 31.19870834 -2.77000130
v -21.35523595 14.46564682 -2.77000130
v -12.06885744 32.58688748 -2.77000130
v -8.71017575 33.64067897 -2.77000130
v 21.64749801 14.60193098 -2.77000130
v 21.35523595 14.46564682 -2.77000130
v 7.39205768 8.80951155 -2.77000130
v 21.09107934 14.28068243 -2.77000130
v 20.86305246 14.05265741 -2.77000130
v -31.93378448 13.70386593 -2.77000130
v -24.13023636 12.86350004 -2.77000130
v -33.15633908 10.40286850 -2.77000130
v -24.10212904 12.54225057 -2.77000130
v -34.03866664 6.99512335 -2.77000130
v -5.26211504 -34.34927389 -2.77000130
v -11.50000002 0.00000000 -2.77000130
v -11.32528950 -1.99695397 -2.77000130
v -21.35523595 11.26135327 -2.77000130
v -10.80646552 -3.93323181 -2.77000130
v 1.99695397 11.32528950 -2.77000130
v 21.95898630 14.68539424 -2.77000130
v 3.93323181 10.80646552 -2.77000130
v 5.75000001 9.95929260 -2.77000130
v 20.67808807 13.78849987 -2.77000130
v 20.54180391 13.49623688 -2.77000130
v 20.45834251 13.18474952 -2.77000130
v -23.88238348 13.78849987 -2.77000130
v -24.01866764 13.49623688 -2.77000130
v -24.10212904 13.18474952 -2.77000130
v -24.01866764 12.23076228 -2.77000130
v -23.88238348 11.93850022 -2.77000130
v -34.57170725 3.51559930 -2.77000130
v -23.69741723 11.67434268 -2.77000130
v -34.74999964 0.00000000 -2.77000130
v -23.46939221 11.44631766 -2.77000130
v -34.57170725 -3.51559930 -2.77000130
v -9.95929260 -5.75000001 -2.77000130
v -20.43023519 12.86350004 -2.77000130
v -5.75000001 9.95929260 -2.77000130
v -7.39205768 8.80951155 -2.77000130
v 20.43023519 12.86350004 -2.77000130
v 20.45834251 12.54225057 -2.77000130
v 8.80951155 7.39205768 -2.77000130
v 20.54180391 12.23076228 -2.77000130
v 9.95929260 5.75000001 -2.77000130
v 20.67808807 11.93850022 -2.77000130
v 10.80646552 3.93323181 -2.77000130
v 20.86305246 11.67434268 -2.77000130
v 11.32528950 1.99695397 -2.77000130
v 21.09107934 11.44631766 -2.77000130
v 21.35523595 11.26135327 -2.77000130
v -0.00000000 11.50000002 -2.77000130
v -1.99695397 11.32528950 -2.77000130
v -3.93323181 10.80646552 -2.77000130
v -34.03866664 -6.99512335 -2.77000130
v -23.20523560 11.26135327 -2.77000130
v -33.15633908 -10.40286850 -2.77000130
v -22.91297354 11.12506911 -2.77000130
v -31.93378448 -13.70386593 -2.77000130
v -30.38354404 -16.86424389 -2.77000130
v -22.60148339 11.04160585 -2.77000130
v -28.52153033 -19.85157095 -2.77000130
v -26.36684477 -22.63519354 -2.77000130
v -22.28023484 11.01350039 -2.77000130
v -23.94160070 -25.18654987 -2.77000130
v -21.95898630 11.04160585 -2.77000130
v -18.38149875 -29.49038707 -2.77000130
v -21.27068304 -27.47945674 -2.77000130
v -8.71017575 -33.64067897 -2.77000130
v -12.06885744 -32.58688748 -2.77000130
v -15.30369651 -31.19870834 -2.77000130
v -11.32528950 1.99695397 -2.77000130
v -21.09107934 11.44631766 -2.77000130
v -10.80646552 3.93323181 -2.77000130
v -20.86305246 11.67434268 -2.77000130
v -9.95929260 5.75000001 -2.77000130
v -20.67808807 11.93850022 -2.77000130
v -8.80951155 7.39205768 -2.77000130
v -20.54180391 12.23076228 -2.77000130
v -20.45833878 12.54225057 -2.77000130
v 11.50000002 -0.00000000 -1.26999838
v 11.32528950 -1.99695397 -1.26999838
v 10.80646552 -3.93323181 -1.26999838
v 9.95929260 -5.75000001 -1.26999838
v 8.80951155 -7.39205768 -1.26999838
v 7.39205768 -8.80951155 -1.26999838
v 5.75000001 -9.95929260 -1.26999838
v 3.93323181 -10.80646552 -1.26999838
v 1.99695397 -11.32528950 -1.26999838
v -0.00000000 -11.50000002 -1.26999838
v -1.99695397 -11.32528950 -1.26999838
v -3.93323181 -10.80646552 -1.26999838
v -5.75000001 -9.95929260 -1.26999838
v -7.39205768 -8.80951155 -1.26999838
v -8.80951155 -7.39205768 -1.26999838
v -9.95929260 -5.75000001 -1.26999838
v -10.80646552 -3.93323181 -1.26999838
v -11.32528950 -1.99695397 -1.26999838
v -11.50000002 0.00000000 -1.26999838
v -11.32528950 1.99695397 -1.26999838
v -10.80646552 3.93323181 -1.26999838
v -9.95929260 5.75000001 -1.26999838
v -8.80951155 7.39205768 -1.26999838
v -7.39205768 8.80951155 -1.26999838
v -5.75000001 9.95929260 -1.26999838
v -3.93323181 10.80646552 -1.26999838
v -1.99695397 11.32528950 -1.26999838
v -0.00000000 11.50000002 -1.26999838
v 1.99695397 11.32528950 -1.26999838
v 3.93323181 10.80646552 -1.26999838
v 5.75000001 9.95929260 -1.26999838
v 7.39205768 8.80951155 -1.26999838
v 8.80951155 7.39205768 -1.26999838
v 9.95929260 5.75000001 -1.26999838
v 10.80646552 3.93323181 -1.26999838
v 11.32528950 1.99695397 -1.26999838
v -23.20523560 11.26135327 -1.26999838
v -23.46939221 11.44631766 -1.26999838
v -23.69741723 11.67434268 -1.26999838
v -23.88238348 11.93850022 -1.26999838
v -24.01866764 12.23076228 -1.26999838
v -24.10212904 12.54225057 -1.26999838
v -24.13023636 12.86350004 -1.26999838
v -24.10212904 13.18474952 -1.26999838
v -24.01866764 13.49623688 -1.26999838
v -23.88238348 13.78849987 -1.26999838
v -23.69741723 14.05265741 -1.26999838
v -23.46939221 14.28068243 -1.26999838
v -23.20523560 14.46564682 -1.26999838
v -22.91297354 14.60193098 -1.26999838
v -22.60148339 14.68539424 -1.26999838
v -22.28023484 14.71349970 -1.26999838
v -21.95898630 14.68539424 -1.26999838
v -21.64749801 14.60193098 -1.26999838
v -21.35523595 14.46564682 -1.26999838
v -21.09107934 14.28068243 -1.26999838
v -20.86305246 14.05265741 -1.26999838
v -20.67808807 13.78849987 -1.26999838
v -20.54180391 13.49623688 -1.26999838
v -20.45833878 13.18474952 -1.26999838
v -20.43023519 12.86350004 -1.26999838
v -20.45833878 12.54225057 -1.26999838
v -20.54180391 12.23076228 -1.26999838
v -20.67808807 11.93850022 -1.26999838
v -20.86305246 11.67434268 -1.26999838
v -21.09107934 11.44631766 -1.26999838
v -21.35523595 11.26135327 -1.26999838
v -21.64749801 11.12506911 -1.26999838
v -21.95898630 11.04160585 -1.26999838
v -22.28023484 11.01350039 -1.26999838
v -22.60148339 11.04160585 -1.26999838
v -22.91297354 11.12506911 -1.26999838
v 21.35523595 14.46564682 -1.26999838
v 21.64749801 14.60193098 -1.26999838
v 21.95898630 14.68539424 -1.26999838
v 22.28023484 14.71349970 -1.26999838
v 22.60148712 14.68539424 -1.26999838
v 22.91297354 14.60193098 -1.26999838
v 23.20523560 14.46564682 -1.26999838
v 23.46939221 14.28068243 -1.26999838
v 23.69741723 14.05265741 -1.26999838
v 23.88238348 13.78849987 -1.26999838
v 24.01866764 13.49623688 -1.26999838
v 24.10212904 13.18474952 -1.26999838
v 24.13023636 12.86350004 -1.26999838
v 24.10212904 12.54225057 -1.26999838
v 24.01866764 12.23076228 -1.26999838
v 23.88238348 11.93850022 -1.26999838
v 23.69741723 11.67434268 -1.26999838
v 23.46939221 11.44631766 -1.26999838
v 23.20523560 11.26135327 -1.26999838
v 22.91297354 11.12506911 -1.26999838
v 22.60148712 11.04160585 -1.26999838
v 22.28023484 11.01350039 -1.26999838
v 21.95898630 11.04160585 -1.26999838
v 21.64749801 11.12506911 -1.26999838
v 21.35523595 11.26135327 -1.26999838
v 21.09107934 11.44631766 -1.26999838
v 20.86305246 11.67434268 -1.26999838
v 20.67808807 11.93850022 -1.26999838
v 20.54180391 12.23076228 -1.26999838
v 20.45834251 12.54225057 -1.26999838
v 20.43023519 12.86350004 -1.26999838
v 20.45834251 13.18474952 -1.26999838
v 20.54180391 13.49623688 -1.26999838
v 20.67808807 13.78849987 -1.26999838
v 20.86305246 14.05265741 -1.26999838
v 21.09107934 14.28068243 -1.26999838
v -17.37499982 30.09438328 -1.26999838
v -15.30369651 31.19870834 -1.26999838
v -12.06885744 32.58688748 -1.26999838
v -8.71017575 33.64067897 -1.26999838
v -5.26211504 34.34927389 -1.26999838
v -1.76005857 34.70540419 -1.26999838
v 1.76005857 34.70539674 -1.26999838
v 5.26211504 34.34927389 -1.26999838
v 8.71017575 33.64067897 -1.26999838
v 12.06885744 32.58688748 -1.26999838
v 15.30369651 31.19870834 -1.26999838
v 18.38149875 29.49038707 -1.26999838
v 21.27068304 27.47945674 -1.26999838
v 23.94160070 25.18654987 -1.26999838
v 26.36684477 22.63519354 -1.26999838
v 28.52153033 19.85157095 -1.26999838
v 30.38354404 16.86424389 -1.26999838
v 31.93378448 13.70386593 -1.26999838
v 33.15633908 10.40286850 -1.26999838
v 34.03866664 6.99512335 -1.26999838
v 34.57170725 3.51559930 -1.26999838
v 34.74999964 -0.00000000 -1.26999838
v 34.57170725 -3.51559930 -1.26999838
v 34.03866664 -6.99512335 -1.26999838
v 33.15633908 -10.40286850 -1.26999838
v 31.93378448 -13.70386593 -1.26999838
v 30.38354404 -16.86424389 -1.26999838
v 28.52153033 -19.85157095 -1.26999838
v 26.36684477 -22.63519354 -1.26999838
v 23.94160070 -25.18654987 -1.26999838
v 21.27068304 -27.47945674 -1.26999838
v 18.38149875 -29.49038707 -1.26999838
v 15.30369651 -31.19870834 -1.26999838
v 12.06885744 -32.58688748 -1.26999838
v 8.71017575 -33.64067897 -1.26999838
v 5.26211504 -34.34927389 -1.26999838
v 1.76005857 -34.70540419 -1.26999838
v -1.76005857 -34.70539674 -1.26999838
v -5.26211504 -34.34927389 -1.26999838
v -8.71017575 -33.64067897 -1.26999838
v -12.06885744 -32.58688748 -1.26999838
v -15.30369651 -31.19870834 -1.26999838
v -18.38149875 -29.49038707 -1.26999838
v -21.27068304 -27.47945674 -1.26999838
v -23.94160070 -25.18654987 -1.26999838
v -26.36684477 -22.63519354 -1.26999838
v -28.52153033 -19.85157095 -1.26999838
v -30.38354404 -16.86424389 -1.26999838
v -31.93378448 -13.70386593 -1.26999838
v -33.15633908 -10.40286850 -1.26999838
v -34.03866664 -6.99512335 -1.26999838
v -34.57170725 -3.51559930 -1.26999838
v -34.74999964 0.00000000 -1.26999838
v -34.57170725 3.51559930 -1.26999838
v -34.03866664 6.99512335 -1.26999838
v -33.15633908 10.40286850 -1.26999838
v -31.93378448 13.70386593 -1.26999838
v -30.38354404 16.86424389 -1.26999838
v -28.52153033 19.85157095 -1.26999838
v -26.36684477 22.63519354 -1.26999838
v -23.94160070 25.18654987 -1.26999838
v -21.27068304 27.47945674 -1.26999838
v -18.38149875 29.49038707 -1.26999838
f 1 2 3
f 3 2 4
f 3 4 5
f 5 4 6
f 5 6 7
f 7 6 8
f 7 8 9
f 9 8 10
f 9 10 11
f 11 10 12
f 11 12 13
f 13 12 14
f 13 14 15
f 15 14 16
f 15 16 17
f 17 16 18
f 17 18 19
f 19 18 20
f 19 20 21
f 21 20 22
f 21 22 23
f 23 22 24
f 23 24 25
f 25 24 26
f 25 26 27
f 27 26 28
f 27 28 29
f 29 28 30
f 29 30 31
f 31 30 32
f 31 32 33
f 33 32 34
f 33 34 35
f 35 34 36
f 35 36 37
f 37 36 38
f 37 38 39
f 39 38 40
f 39 40 41
f 41 40 42
f 41 42 43
f 43 42 44
f 43 44 45
f 45 44 46
f 45 46 47
f 47 46 48
f 47 48 49
f 49 48 50
f 49 50 51
f 51 50 52
f 51 52 53
f 53 52 54
f 53 54 55
f 55 54 56
f 55 56 57
f 57 56 58
f 57 58 59
f 59 58 60
f 59 60 61
f 61 60 62
f 61 62 63
f 63 62 64
f 63 64 65
f 65 64 66
f 65 66 67
f 67 66 68
f 67 68 69
f 69 68 70
f 69 70 71
f 71 70 72
f 71 72 1
f 1 72 2
f 73 74 75
f 76 77 54
f 54 77 78
f 79 80 81
f 81 82 79
f 79 82 83
f 79 83 84
f 2 72 85
f 73 75 86
f 74 87 75
f 75 87 88
f 75 88 89
f 78 90 54
f 54 90 91
f 54 91 56
f 56 91 92
f 56 92 58
f 58 92 93
f 58 93 60
f 94 95 96
f 24 22 97
f 97 22 20
f 97 20 98
f 20 18 98
f 98 18 16
f 98 16 99
f 99 16 14
f 99 14 100
f 14 12 100
f 100 12 10
f 100 10 101
f 101 10 8
f 101 8 102
f 102 8 6
f 102 6 103
f 103 6 4
f 103 4 104
f 104 4 2
f 104 2 105
f 105 2 85
f 93 106 60
f 60 106 107
f 60 107 62
f 62 107 86
f 62 86 64
f 64 86 75
f 64 75 66
f 66 75 108
f 66 108 68
f 109 110 111
f 111 110 84
f 111 84 112
f 112 84 83
f 113 114 115
f 94 96 116
f 96 117 116
f 116 117 118
f 116 118 119
f 70 120 72
f 72 120 121
f 72 121 85
f 108 122 68
f 68 122 123
f 68 123 70
f 70 123 124
f 70 124 120
f 125 126 89
f 89 126 127
f 89 127 75
f 75 127 128
f 75 128 129
f 129 130 75
f 75 130 131
f 75 131 132
f 132 131 133
f 132 133 134
f 109 135 110
f 110 135 136
f 110 136 137
f 138 139 140
f 140 139 141
f 140 141 142
f 133 143 134
f 134 143 144
f 134 144 145
f 145 144 146
f 145 146 80
f 80 146 147
f 80 147 81
f 115 114 148
f 46 44 149
f 149 44 42
f 114 150 148
f 148 150 151
f 148 151 141
f 141 151 152
f 141 152 142
f 153 154 115
f 115 154 155
f 115 155 113
f 95 94 156
f 156 94 157
f 156 157 158
f 158 157 159
f 158 159 160
f 160 159 161
f 160 161 162
f 162 161 163
f 162 163 164
f 164 163 165
f 164 165 153
f 153 165 166
f 153 166 154
f 167 168 169
f 169 168 170
f 169 170 171
f 172 173 174
f 174 173 175
f 174 175 176
f 24 97 26
f 26 97 177
f 26 177 28
f 178 179 180
f 180 179 181
f 182 183 184
f 184 183 167
f 184 167 185
f 185 167 169
f 171 186 169
f 169 186 187
f 169 187 188
f 118 189 119
f 119 189 190
f 119 190 172
f 172 190 191
f 172 191 173
f 175 192 176
f 176 192 193
f 176 193 194
f 194 193 195
f 194 195 196
f 196 195 197
f 196 197 198
f 76 54 199
f 199 54 52
f 199 52 50
f 200 201 202
f 188 203 169
f 169 203 204
f 169 204 205
f 205 204 206
f 205 206 207
f 207 206 208
f 207 208 209
f 209 208 210
f 209 210 211
f 211 210 212
f 211 212 89
f 89 212 213
f 89 213 125
f 42 40 149
f 149 40 38
f 149 38 177
f 177 38 36
f 177 36 34
f 214 215 200
f 200 215 216
f 200 216 201
f 198 197 217
f 217 197 218
f 217 218 219
f 219 218 220
f 219 220 221
f 221 220 222
f 222 220 223
f 222 223 224
f 224 223 225
f 225 223 226
f 225 226 227
f 228 229 226
f 226 229 230
f 226 230 227
f 177 231 149
f 149 231 232
f 149 232 228
f 228 232 233
f 228 233 229
f 34 32 177
f 177 32 30
f 177 30 28
f 181 199 180
f 180 199 50
f 180 50 149
f 149 50 48
f 149 48 46
f 138 110 139
f 139 110 137
f 139 137 200
f 200 137 183
f 200 183 214
f 214 183 182
f 178 180 234
f 234 180 235
f 234 235 236
f 236 235 237
f 236 237 238
f 238 237 239
f 238 239 240
f 240 239 241
f 240 241 202
f 202 241 242
f 202 242 200
f 243 89 244
f 244 89 88
f 244 88 245
f 245 88 87
f 245 87 246
f 246 87 74
f 246 74 247
f 247 74 73
f 247 73 248
f 248 73 86
f 248 86 249
f 249 86 107
f 249 107 250
f 250 107 106
f 250 106 251
f 251 106 93
f 251 93 252
f 252 93 92
f 252 92 253
f 253 92 91
f 253 91 254
f 254 91 90
f 254 90 255
f 255 90 78
f 255 78 256
f 256 78 77
f 256 77 257
f 257 77 76
f 257 76 258
f 258 76 199
f 258 199 259
f 259 199 181
f 259 181 260
f 260 181 179
f 260 179 261
f 261 179 178
f 261 178 262
f 262 178 234
f 262 234 263
f 263 234 236
f 263 236 264
f 264 236 238
f 264 238 265
f 265 238 240
f 265 240 266
f 266 240 202
f 266 202 267
f 267 202 201
f 267 201 268
f 268 201 216
f 268 216 269
f 269 216 215
f 269 215 270
f 270 215 214
f 270 214 271
f 271 214 182
f 271 182 272
f 272 182 184
f 272 184 273
f 273 184 185
f 273 185 274
f 274 185 169
f 274 169 275
f 275 169 205
f 275 205 276
f 276 205 207
f 276 207 277
f 277 207 209
f 277 209 278
f 278 209 211
f 278 211 243
f 243 211 89
f 279 218 280
f 280 218 197
f 280 197 281
f 281 197 195
f 281 195 282
f 282 195 193
f 282 193 283
f 283 193 192
f 283 192 284
f 284 192 175
f 284 175 285
f 285 175 173
f 285 173 286
f 286 173 191
f 286 191 287
f 287 191 190
f 287 190 288
f 288 190 189
f 288 189 289
f 289 189 118
f 289 118 290
f 290 118 117
f 290 117 291
f 291 117 96
f 291 96 292
f 292 96 95
f 292 95 293
f 293 95 156
f 293 156 294
f 294 156 158
f 294 158 295
f 295 158 160
f 295 160 296
f 296 160 162
f 296 162 297
f 297 162 164
f 297 164 298
f 298 164 153
f 298 153 299
f 299 153 115
f 299 115 300
f 300 115 148
f 300 148 301
f 301 148 141
f 301 141 302
f 302 141 139
f 302 139 303
f 303 139 200
f 303 200 304
f 304 200 242
f 304 242 305
f 305 242 241
f 305 241 306
f 306 241 239
f 306 239 307
f 307 239 237
f 307 237 308
f 308 237 235
f 308 235 309
f 309 235 180
f 309 180 310
f 310 180 149
f 310 149 311
f 311 149 228
f 311 228 312
f 312 228 226
f 312 226 313
f 313 226 223
f 313 223 314
f 314 223 220
f 314 220 279
f 279 220 218
f 315 168 316
f 316 168 167
f 316 167 317
f 317 167 183
f 317 183 318
f 318 183 137
f 318 137 319
f 319 137 136
f 319 136 320
f 320 136 135
f 320 135 321
f 321 135 109
f 321 109 322
f 322 109 111
f 322 111 323
f 323 111 112
f 323 112 324
f 324 112 83
f 324 83 325
f 325 83 82
f 325 82 326
f 326 82 81
f 326 81 327
f 327 81 147
f 327 147 328
f 328 147 146
f 328 146 329
f 329 146 144
f 329 144 330
f 330 144 143
f 330 143 331
f 331 143 133
f 331 133 332
f 332 133 131
f 332 131 333
f 333 131 130
f 333 130 334
f 334 130 129
f 334 129 335
f 335 129 128
f 335 128 336
f 336 128 127
f 336 127 337
f 337 127 126
f 337 126 338
f 338 126 125
f 338 125 339
f 339 125 213
f 339 213 340
f 340 213 212
f 340 212 341
f 341 212 210
f 341 210 342
f 342 210 208
f 342 208 343
f 343 208 206
f 343 206 344
f 344 206 204
f 344 204 345
f 345 204 203
f 345 203 346
f 346 203 188
f 346 188 347
f 347 188 187
f 347 187 348
f 348 187 186
f 348 186 349
f 349 186 171
f 349 171 350
f 350 171 170
f 350 170 315
f 315 170 168
f 351 352 163
f 163 352 353
f 163 353 165
f 165 353 354
f 165 354 166
f 166 354 355
f 166 355 154
f 154 355 356
f 154 356 155
f 155 356 357
f 155 357 113
f 113 357 358
f 113 358 114
f 114 358 359
f 114 359 150
f 150 359 360
f 150 360 151
f 151 360 361
f 151 361 152
f 152 361 362
f 152 362 142
f 142 362 363
f 142 363 140
f 140 363 364
f 140 364 138
f 138 364 365
f 138 365 110
f 110 365 366
f 110 366 84
f 84 366 367
f 84 367 79
f 79 367 368
f 79 368 80
f 80 368 369
f 80 369 145
f 145 369 370
f 145 370 134
f 134 370 371
f 134 371 132
f 132 371 372
f 132 372 75
f 75 372 373
f 75 373 108
f 108 373 374
f 108 374 122
f 122 374 375
f 122 375 123
f 123 375 376
f 123 376 124
f 124 376 377
f 124 377 120
f 120 377 378
f 120 378 121
f 121 378 379
f 121 379 85
f 85 379 380
f 85 380 105
f 105 380 381
f 105 381 104
f 104 381 382
f 104 382 103
f 103 382 383
f 103 383 102
f 102 383 384
f 102 384 101
f 101 384 385
f 101 385 100
f 100 385 386
f 100 386 99
f 99 386 387
f 99 387 98
f 98 387 388
f 98 388 97
f 97 388 389
f 97 389 177
f 177 389 390
f 177 390 231
f 231 390 391
f 231 391 232
f 232 391 392
f 232 392 233
f 233 392 393
f 233 393 229
f 229 393 394
f 229 394 230
f 230 394 395
f 230 395 227
f 227 395 396
f 227 396 225
f 225 396 397
f 225 397 224
f 224 397 398
f 224 398 222
f 222 398 399
f 222 399 221
f 221 399 400
f 221 400 219
f 219 400 401
f 219 401 217
f 217 401 402
f 217 402 198
f 198 402 403
f 198 403 196
f 196 403 404
f 196 404 194
f 194 404 405
f 194 405 176
f 176 405 406
f 176 406 174
f 174 406 407
f 174 407 172
f 172 407 408
f 172 408 119
f 119 408 409
f 119 409 116
f 116 409 410
f 116 410 94
f 94 410 411
f 94 411 157
f 157 411 412
f 157 412 159
f 159 412 413
f 159 413 161
f 161 413 351
f 161 351 163
f 320 321 365
f 387 17 388
f 388 17 19
f 367 366 323
f 328 369 327
f 327 369 368
f 405 283 406
f 406 283 284
f 406 284 407
f 390 29 391
f 391 29 31
f 391 31 392
f 392 31 33
f 392 33 393
f 393 33 35
f 393 35 394
f 394 35 37
f 394 37 395
f 409 408 288
f 365 321 366
f 366 321 322
f 366 322 323
f 297 298 345
f 294 345 346
f 323 324 367
f 367 324 325
f 367 325 368
f 368 325 326
f 368 326 327
f 19 21 388
f 388 21 23
f 388 23 389
f 389 23 25
f 389 25 390
f 390 25 27
f 390 27 29
f 284 285 407
f 407 285 286
f 407 286 408
f 408 286 287
f 408 287 288
f 293 411 292
f 292 411 410
f 350 358 349
f 349 358 357
f 357 356 349
f 349 356 355
f 349 355 348
f 320 365 319
f 319 365 364
f 319 364 318
f 318 364 363
f 318 363 317
f 317 363 362
f 317 362 316
f 316 362 361
f 316 361 315
f 315 361 360
f 315 360 350
f 350 360 359
f 350 359 358
f 294 295 345
f 345 295 296
f 345 296 297
f 288 289 409
f 409 289 290
f 409 290 410
f 410 290 291
f 410 291 292
f 293 294 411
f 411 294 346
f 411 346 412
f 412 346 347
f 412 347 413
f 413 347 351
f 395 37 396
f 396 37 39
f 396 39 397
f 305 306 264
f 403 280 404
f 404 280 281
f 404 281 405
f 405 281 282
f 405 282 283
f 355 354 348
f 348 354 353
f 348 353 347
f 347 353 352
f 347 352 351
f 328 329 369
f 369 329 330
f 369 330 331
f 312 261 311
f 311 261 310
f 313 314 403
f 403 314 279
f 403 279 280
f 49 51 246
f 381 380 1
f 253 254 41
f 41 254 255
f 385 11 386
f 386 11 13
f 386 13 387
f 387 13 15
f 387 15 17
f 264 306 263
f 263 306 307
f 263 307 262
f 262 307 308
f 262 308 261
f 261 308 309
f 261 309 310
f 248 249 47
f 47 252 45
f 45 252 253
f 45 253 43
f 43 253 41
f 397 39 398
f 398 39 41
f 398 41 399
f 399 41 255
f 399 255 256
f 69 71 378
f 1 380 71
f 71 380 379
f 71 379 378
f 381 1 382
f 382 1 3
f 382 3 383
f 383 3 5
f 383 5 384
f 384 5 7
f 384 7 385
f 385 7 9
f 385 9 11
f 49 246 47
f 47 246 247
f 47 247 248
f 249 250 47
f 47 250 251
f 47 251 252
f 256 257 399
f 399 257 258
f 399 258 400
f 400 258 259
f 400 259 401
f 401 259 260
f 401 260 402
f 402 260 261
f 402 261 403
f 403 261 312
f 403 312 313
f 298 299 345
f 345 299 300
f 345 300 301
f 270 271 345
f 51 53 246
f 246 53 55
f 246 55 57
f 269 270 303
f 303 270 345
f 303 345 302
f 302 345 301
f 271 272 345
f 345 272 273
f 345 273 274
f 67 374 65
f 65 374 373
f 373 372 65
f 65 372 371
f 65 371 63
f 63 371 370
f 63 370 369
f 378 377 69
f 69 377 376
f 69 376 67
f 67 376 375
f 67 375 374
f 264 265 305
f 305 265 266
f 305 266 304
f 304 266 267
f 304 267 303
f 303 267 268
f 303 268 269
f 331 332 369
f 369 332 333
f 369 333 63
f 63 333 334
f 63 334 335
f 244 245 337
f 337 245 246
f 338 278 337
f 337 278 243
f 337 243 244
f 335 336 63
f 63 336 337
f 63 337 61
f 61 337 246
f 61 246 59
f 59 246 57
f 338 339 278
f 278 339 340
f 278 340 277
f 277 340 341
f 277 341 276
f 276 341 342
f 276 342 275
f 275 342 343
f 275 343 274
f 274 343 344
f 274 344 345

