# Exported by SolidWorks
g 
v 17.12499931 -0.00000000 -3.26999882
v 17.12499931 -0.00000000 -6.76999846
v 16.95069298 -2.43714149 -3.26999882
v 16.95069298 -2.43714149 -6.76999846
v 16.43131673 -4.82467003 -3.26999882
v 16.43131673 -4.82467003 -6.76999846
v 15.57744760 -7.11398199 -3.26999882
v 15.57744760 -7.11398199 -6.76999846
v 14.40646686 -9.25847422 -3.26999882
v 14.40646686 -9.25847422 -6.76999846
v 12.94221170 -11.21449005 -3.26999882
v 12.94221170 -11.21449005 -6.76999846
v 11.21449005 -12.94221170 -3.26999882
v 11.21449005 -12.94221170 -6.76999846
v 9.25847422 -14.40646686 -3.26999882
v 9.25847422 -14.40646686 -6.76999846
v 7.11398199 -15.57744760 -3.26999882
v 7.11398199 -15.57744760 -6.76999846
v 4.82467003 -16.43131673 -3.26999882
v 4.82467003 -16.43131673 -6.76999846
v 2.43714149 -16.95069298 -3.26999882
v 2.43714149 -16.95069298 -6.76999846
v -0.00000000 -17.12499931 -3.26999882
v -0.00000000 -17.12499931 -6.76999846
v -2.43714149 -16.95069298 -3.26999882
v -2.43714149 -16.95069298 -6.76999846
v -4.82467003 -16.43131673 -3.26999882
v -4.82467003 -16.43131673 -6.76999846
v -7.11398199 -15.57744760 -3.26999882
v -7.11398199 -15.57744760 -6.76999846
v -9.25847422 -14.40646686 -3.26999882
v -9.25847422 -14.40646686 -6.76999846
v -11.21449005 -12.94221170 -3.26999882
v -11.21449005 -12.94221170 -6.76999846
v -12.94221170 -11.21449005 -3.26999882
v -12.94221170 -11.21449005 -6.76999846
v -14.40646686 -9.25847422 -3.26999882
v -14.40646686 -9.25847422 -6.76999846
v -15.57744760 -7.11398199 -3.26999882
v -15.57744760 -7.11398199 -6.76999846
v -16.43131673 -4.82467003 -3.26999882
v -16.43131673 -4.82467003 -6.76999846
v -16.95069298 -2.43714149 -3.26999882
v -16.95069298 -2.43714149 -6.76999846
v -17.12499931 0.00000000 -3.26999882
v -17.12499931 0.00000000 -6.76999846
v -16.95069298 2.43714149 -3.26999882
v -16.95069298 2.43714149 -6.76999846
v -16.43131673 4.82467003 -3.26999882
v -16.43131673 4.82467003 -6.76999846
v -15.57744760 7.11398199 -3.26999882
v -15.57744760 7.11398199 -6.76999846
v -14.40646686 9.25847422 -3.26999882
v -14.40646686 9.25847422 -6.76999846
v -12.94221170 11.21449005 -3.26999882
v -12.94221170 11.21449005 -6.76999846
v -11.21449005 12.94221170 -3.26999882
v -11.21449005 12.94221170 -6.76999846
v -9.25847422 14.40646686 -3.26999882
v -9.25847422 14.40646686 -6.76999846
v -7.11398199 15.57744760 -3.26999882
v -7.11398199 15.57744760 -6.76999846
v -4.82467003 16.43131673 -3.26999882
v -4.82467003 16.43131673 -6.76999846
v -2.43714149 16.95069298 -3.26999882
v -2.43714149 16.95069298 -6.76999846
v 0.00000000 17.12499931 -3.26999882
v 0.00000000 17.12499931 -6.76999846
v 2.43714149 16.95069298 -3.26999882
v 2.43714149 16.95069298 -6.76999846
v 4.82467003 16.43131673 -3.26999882
v 4.82467003 16.43131673 -6.76999846
v 7.11398199 15.57744760 -3.26999882
v 7.11398199 15.57744760 -6.76999846
v 9.25847422 14.40646686 -3.26999882
v 9.25847422 14.40646686 -6.76999846
v 11.21449005 12.94221170 -3.26999882
v 11.21449005 12.94221170 -6.76999846
v 12.94221170 11.21449005 -3.26999882
v 12.94221170 11.21449005 -6.76999846
v 14.40646686 9.25847422 -3.26999882
v 14.40646686 9.25847422 -6.76999846
v 15.57744760 7.11398199 -3.26999882
v 15.57744760 7.11398199 -6.76999846
v 16.43131673 4.82467003 -3.26999882
v 16.43131673 4.82467003 -6.76999846
v 16.95069298 2.43714149 -3.26999882
v 16.95069298 2.43714149 -6.76999846
v 34.74999964 -0.00000000 -6.76999846
v 1.85420003 -25.72700009 -6.76999846
v 1.82603044 -25.40502138 -6.76999846
v 26.36684477 -22.63519354 -6.76999846
v 1.74237811 -25.09282716 -6.76999846
v 30.38354404 -16.86424389 -6.76999846
v 28.52153033 -19.85157095 -6.76999846
v 1.60578429 -24.79990013 -6.76999846
v 33.15633908 -10.40286850 -6.76999846
v 31.93378448 -13.70386593 -6.76999846
v 1.19185681 -24.30660091 -6.76999846
v 1.42039964 -24.53514375 -6.76999846
v 34.57170725 -3.51559930 -6.76999846
v 34.03866664 -6.99512335 -6.76999846
v 0.92710002 -24.12121557 -6.76999846
v -0.63417375 -23.98462221 -6.76999846
v 0.63417375 -23.98462221 -6.76999846
v 0.32197844 -23.90096895 -6.76999846
v -0.00000000 -23.87280017 -6.76999846
v -0.32197844 -23.90096895 -6.76999846
v 20.53785697 12.22932618 -6.76999846
v 20.67445219 11.93640009 -6.76999846
v -0.63417375 -27.46937796 -6.76999846
v -1.76005857 -34.70539674 -6.76999846
v -0.92710002 -27.33278461 -6.76999846
v -5.26211504 -34.34927389 -6.76999846
v -1.19185681 -27.14739926 -6.76999846
v -8.71017575 -33.64067897 -6.76999846
v 1.76005857 -34.70540419 -6.76999846
v 0.63417375 -27.46937796 -6.76999846
v 5.26211504 -34.34927389 -6.76999846
v 0.92710002 -27.33278461 -6.76999846
v 8.71017575 -33.64067897 -6.76999846
v 23.94160070 -25.18654987 -6.76999846
v 21.27068304 -27.47945674 -6.76999846
v 1.82603044 -26.04897879 -6.76999846
v 18.38149875 -29.49038707 -6.76999846
v 1.74237811 -26.36117302 -6.76999846
v 15.30369651 -31.19870834 -6.76999846
v 1.60578429 -26.65410005 -6.76999846
v 12.06885744 -32.58688748 -6.76999846
v 1.42039964 -26.91885643 -6.76999846
v 1.19185681 -27.14739926 -6.76999846
v 26.36684477 22.63519354 -6.76999846
v 22.91440964 14.60587792 -6.76999846
v 23.94160070 25.18654987 -6.76999846
v 22.60221355 14.68953025 -6.76999846
v 21.27068304 27.47945674 -6.76999846
v 22.28023484 14.71769996 -6.76999846
v 18.38149875 29.49038707 -6.76999846
v 21.95825800 14.68953025 -6.76999846
v 15.30369651 31.19870834 -6.76999846
v 21.64606377 14.60587792 -6.76999846
v 12.06885744 32.58688748 -6.76999846
v 21.35313489 14.46928456 -6.76999846
v 21.08837850 14.28389922 -6.76999846
v -31.93378448 13.70386593 -6.76999846
v -30.38354404 16.86424389 -6.76999846
v -24.02261272 13.49767391 -6.76999846
v -0.32197844 -27.55303122 -6.76999846
v -0.00000000 -27.58120000 -6.76999846
v 0.32197844 -27.55303122 -6.76999846
v 30.38354404 16.86424389 -6.76999846
v 31.93378448 13.70386593 -6.76999846
v 24.10626598 13.18547875 -6.76999846
v 28.52153033 19.85157095 -6.76999846
v 23.47209305 14.28389922 -6.76999846
v 23.20733480 14.46928456 -6.76999846
v -22.91440964 14.60587792 -6.76999846
v -23.20733480 14.46928456 -6.76999846
v -26.36684477 22.63519354 -6.76999846
v 24.02261272 13.49767391 -6.76999846
v 23.88601936 13.79060000 -6.76999846
v 23.70063588 14.05535638 -6.76999846
v 20.85983567 11.67164184 -6.76999846
v 21.08837850 11.44309994 -6.76999846
v 21.35313489 11.25771552 -6.76999846
v 21.64606377 11.12112217 -6.76999846
v 21.95825800 11.03746984 -6.76999846
v -28.52153033 19.85157095 -6.76999846
v -20.53785697 13.49767391 -6.76999846
v -20.45420557 13.18547875 -6.76999846
v -20.42603493 12.86350004 -6.76999846
v 20.53785697 13.49767391 -6.76999846
v 20.45420557 13.18547875 -6.76999846
v 22.28023484 11.00930013 -6.76999846
v 22.60221355 11.03746984 -6.76999846
v 22.91440964 11.12112217 -6.76999846
v -24.10626598 13.18547875 -6.76999846
v -24.13443476 12.86350004 -6.76999846
v -33.15633908 10.40286850 -6.76999846
v -24.10626598 12.54152134 -6.76999846
v -34.03866664 6.99512335 -6.76999846
v -23.47209305 11.44309994 -6.76999846
v -23.20733480 11.25771552 -6.76999846
v -34.03866664 -6.99512335 -6.76999846
v -22.91440964 11.12112217 -6.76999846
v -1.85420003 -25.72700009 -6.76999846
v -1.82603044 -26.04897879 -6.76999846
v -18.38149875 -29.49038707 -6.76999846
v -15.30369651 -31.19870834 -6.76999846
v -1.74237811 -26.36117302 -6.76999846
v -12.06885744 -32.58688748 -6.76999846
v -1.60578429 -26.65410005 -6.76999846
v -1.42039964 -26.91885643 -6.76999846
v -20.45420557 12.54152134 -6.76999846
v -20.53785697 12.22932618 -6.76999846
v -20.67445219 11.93640009 -6.76999846
v 20.45420557 12.54152134 -6.76999846
v 20.42603493 12.86350004 -6.76999846
v 23.20733480 11.25771552 -6.76999846
v 23.47209305 11.44309994 -6.76999846
v 34.57170725 3.51559930 -6.76999846
v 23.70063588 11.67164184 -6.76999846
v 34.03866664 6.99512335 -6.76999846
v -21.08837850 14.28389922 -6.76999846
v -5.26211504 34.34927389 -6.76999846
v -20.85983567 14.05535638 -6.76999846
v -1.76005857 34.70540419 -6.76999846
v 1.76005857 34.70539674 -6.76999846
v 5.26211504 34.34927389 -6.76999846
v -20.67445219 13.79060000 -6.76999846
v 8.71017575 33.64067897 -6.76999846
v -22.60221355 14.68953025 -6.76999846
v -23.94160070 25.18654987 -6.76999846
v -22.28023484 14.71769996 -6.76999846
v -21.27068304 27.47945674 -6.76999846
v -21.95825800 14.68953025 -6.76999846
v -18.38149875 29.49038707 -6.76999846
v -21.64606377 14.60587792 -6.76999846
v -15.30369651 31.19870834 -6.76999846
v -21.35313489 14.46928456 -6.76999846
v -12.06885744 32.58688748 -6.76999846
v -8.71017575 33.64067897 -6.76999846
v -23.47209305 14.28389922 -6.76999846
v -23.70063588 14.05535638 -6.76999846
v -23.88601936 13.79060000 -6.76999846
v -0.92710002 -24.12121557 -6.76999846
v -1.19185681 -24.30660091 -6.76999846
v -1.42039964 -24.53514375 -6.76999846
v -1.74237811 -25.09282716 -6.76999846
v -1.82603044 -25.40502138 -6.76999846
v -28.52153033 -19.85157095 -6.76999846
v 20.67445219 13.79060000 -6.76999846
v 20.85983567 14.05535638 -6.76999846
v -20.85983567 11.67164184 -6.76999846
v -21.08837850 11.44309994 -6.76999846
v -21.35313489 11.25771552 -6.76999846
v -21.64606377 11.12112217 -6.76999846
v -30.38354404 -16.86424389 -6.76999846
v -31.93378448 -13.70386593 -6.76999846
v -1.60578429 -24.79990013 -6.76999846
v -33.15633908 -10.40286850 -6.76999846
v -21.27068304 -27.47945674 -6.76999846
v -23.94160070 -25.18654987 -6.76999846
v -26.36684477 -22.63519354 -6.76999846
v 23.88601936 11.93640009 -6.76999846
v 24.02261272 12.22932618 -6.76999846
v 33.15633908 10.40286850 -6.76999846
v 24.10626598 12.54152134 -6.76999846
v 24.13443476 12.86350004 -6.76999846
v -24.02261272 12.22932618 -6.76999846
v -23.88601936 11.93640009 -6.76999846
v -34.57170725 3.51559930 -6.76999846
v -23.70063588 11.67164184 -6.76999846
v -34.74999964 0.00000000 -6.76999846
v -34.57170725 -3.51559930 -6.76999846
v -21.95825800 11.03746984 -6.76999846
v -22.28023484 11.00930013 -6.76999846
v -22.60221355 11.03746984 -6.76999846
v 1.85420003 -25.72700009 -3.26999882
v 1.82603044 -26.04897879 -3.26999882
v 1.74237811 -26.36117302 -3.26999882
v 1.60578429 -26.65410005 -3.26999882
v 1.42039964 -26.91885643 -3.26999882
v 1.19185681 -27.14739926 -3.26999882
v 0.92710002 -27.33278461 -3.26999882
v 0.63417375 -27.46937796 -3.26999882
v 0.32197844 -27.55303122 -3.26999882
v -0.00000000 -27.58120000 -3.26999882
v -0.32197844 -27.55303122 -3.26999882
v -0.63417375 -27.46937796 -3.26999882
v -0.92710002 -27.33278461 -3.26999882
v -1.19185681 -27.14739926 -3.26999882
v -1.42039964 -26.91885643 -3.26999882
v -1.60578429 -26.65410005 -3.26999882
v -1.74237811 -26.36117302 -3.26999882
v -1.82603044 -26.04897879 -3.26999882
v -1.85420003 -25.72700009 -3.26999882
v -1.82603044 -25.40502138 -3.26999882
v -1.74237811 -25.09282716 -3.26999882
v -1.60578429 -24.79990013 -3.26999882
v -1.42039964 -24.53514375 -3.26999882
v -1.19185681 -24.30660091 -3.26999882
v -0.92710002 -24.12121557 -3.26999882
v -0.63417375 -23.98462221 -3.26999882
v -0.32197844 -23.90096895 -3.26999882
v -0.00000000 -23.87280017 -3.26999882
v 0.32197844 -23.90096895 -3.26999882
v 0.63417375 -23.98462221 -3.26999882
v 0.92710002 -24.12121557 -3.26999882
v 1.19185681 -24.30660091 -3.26999882
v 1.42039964 -24.53514375 -3.26999882
v 1.60578429 -24.79990013 -3.26999882
v 1.74237811 -25.09282716 -3.26999882
v 1.82603044 -25.40502138 -3.26999882
v -23.20733480 11.25771552 -3.26999882
v -23.47209305 11.44309994 -3.26999882
v -23.70063588 11.67164184 -3.26999882
v -23.88601936 11.93640009 -3.26999882
v -24.02261272 12.22932618 -3.26999882
v -24.10626598 12.54152134 -3.26999882
v -24.13443476 12.86350004 -3.26999882
v -24.10626598 13.18547875 -3.26999882
v -24.02261272 13.49767391 -3.26999882
v -23.88601936 13.79060000 -3.26999882
v -23.70063588 14.05535638 -3.26999882
v -23.47209305 14.28389922 -3.26999882
v -23.20733480 14.46928456 -3.26999882
v -22.91440964 14.60587792 -3.26999882
v -22.60221355 14.68953025 -3.26999882
v -22.28023484 14.71769996 -3.26999882
v -21.95825800 14.68953025 -3.26999882
v -21.64606377 14.60587792 -3.26999882
v -21.35313489 14.46928456 -3.26999882
v -21.08837850 14.28389922 -3.26999882
v -20.85983567 14.05535638 -3.26999882
v -20.67445219 13.79060000 -3.26999882
v -20.53785697 13.49767391 -3.26999882
v -20.45420557 13.18547875 -3.26999882
v -20.42603493 12.86350004 -3.26999882
v -20.45420557 12.54152134 -3.26999882
v -20.53785697 12.22932618 -3.26999882
v -20.67445219 11.93640009 -3.26999882
v -20.85983567 11.67164184 -3.26999882
v -21.08837850 11.44309994 -3.26999882
v -21.35313489 11.25771552 -3.26999882
v -21.64606377 11.12112217 -3.26999882
v -21.95825800 11.03746984 -3.26999882
v -22.28023484 11.00930013 -3.26999882
v -22.60221355 11.03746984 -3.26999882
v -22.91440964 11.12112217 -3.26999882
v 21.35313489 14.46928456 -3.26999882
v 21.64606377 14.60587792 -3.26999882
v 21.95825800 14.68953025 -3.26999882
v 22.28023484 14.71769996 -3.26999882
v 22.60221355 14.68953025 -3.26999882
v 22.91440964 14.60587792 -3.26999882
v 23.20733480 14.46928456 -3.26999882
v 23.47209305 14.28389922 -3.26999882
v 23.70063588 14.05535638 -3.26999882
v 23.88601936 13.79060000 -3.26999882
v 24.02261272 13.49767391 -3.26999882
v 24.10626598 13.18547875 -3.26999882
v 24.13443476 12.86350004 -3.26999882
v 24.10626598 12.54152134 -3.26999882
v 24.02261272 12.22932618 -3.26999882
v 23.88601936 11.93640009 -3.26999882
v 23.70063588 11.67164184 -3.26999882
v 23.47209305 11.44309994 -3.26999882
v 23.20733480 11.25771552 -3.26999882
v 22.91440964 11.12112217 -3.26999882
v 22.60221355 11.03746984 -3.26999882
v 22.28023484 11.00930013 -3.26999882
v 21.95825800 11.03746984 -3.26999882
v 21.64606377 11.12112217 -3.26999882
v 21.35313489 11.25771552 -3.26999882
v 21.08837850 11.44309994 -3.26999882
v 20.85983567 11.67164184 -3.26999882
v 20.67445219 11.93640009 -3.26999882
v 20.53785697 12.22932618 -3.26999882
v 20.45420557 12.54152134 -3.26999882
v 20.42603493 12.86350004 -3.26999882
v 20.45420557 13.18547875 -3.26999882
v 20.53785697 13.49767391 -3.26999882
v 20.67445219 13.79060000 -3.26999882
v 20.85983567 14.05535638 -3.26999882
v 21.08837850 14.28389922 -3.26999882
v -34.57170725 3.51559930 -3.26999882
v -34.03866664 6.99512335 -3.26999882
v -33.15633908 10.40286850 -3.26999882
v -31.93378448 13.70386593 -3.26999882
v -30.38354404 16.86424389 -3.26999882
v -28.52153033 19.85157095 -3.26999882
v -26.36684477 22.63519354 -3.26999882
v -23.94160070 25.18654987 -3.26999882
v -21.27068304 27.47945674 -3.26999882
v -18.38149875 29.49038707 -3.26999882
v -15.30369651 31.19870834 -3.26999882
v -12.06885744 32.58688748 -3.26999882
v -8.71017575 33.64067897 -3.26999882
v -5.26211504 34.34927389 -3.26999882
v -1.76005857 34.70540419 -3.26999882
v 1.76005857 34.70539674 -3.26999882
v 5.26211504 34.34927389 -3.26999882
v 8.71017575 33.64067897 -3.26999882
v 12.06885744 32.58688748 -3.26999882
v 15.30369651 31.19870834 -3.26999882
v 18.38149875 29.49038707 -3.26999882
v 21.27068304 27.47945674 -3.26999882
v 23.94160070 25.18654987 -3.26999882
v 26.36684477 22.63519354 -3.26999882
v 28.52153033 19.85157095 -3.26999882
v 30.38354404 16.86424389 -3.26999882
v 31.93378448 13.70386593 -3.26999882
v 33.15633908 10.40286850 -3.26999882
v 34.03866664 6.99512335 -3.26999882
v 34.57170725 3.51559930 -3.26999882
v 34.74999964 -0.00000000 -3.26999882
v 34.57170725 -3.51559930 -3.26999882
v 34.03866664 -6.99512335 -3.26999882
v 33.15633908 -10.40286850 -3.26999882
v 31.93378448 -13.70386593 -3.26999882
v 30.38354404 -16.86424389 -3.26999882
v 28.52153033 -19.85157095 -3.26999882
v 26.36684477 -22.63519354 -3.26999882
v 23.94160070 -25.18654987 -3.26999882
v 21.27068304 -27.47945674 -3.26999882
v 18.38149875 -29.49038707 -3.26999882
v 15.30369651 -31.19870834 -3.26999882
v 12.06885744 -32.58688748 -3.26999882
v 8.71017575 -33.64067897 -3.26999882
v 5.26211504 -34.34927389 -3.26999882
v 1.76005857 -34.70540419 -3.26999882
v -1.76005857 -34.70539674 -3.26999882
v -5.26211504 -34.34927389 -3.26999882
v -8.71017575 -33.64067897 -3.26999882
v -12.06885744 -32.58688748 -3.26999882
v -15.30369651 -31.19870834 -3.26999882
v -18.38149875 -29.49038707 -3.26999882
v -21.27068304 -27.47945674 -3.26999882
v -23.94160070 -25.18654987 -3.26999882
v -26.36684477 -22.63519354 -3.26999882
v -28.52153033 -19.85157095 -3.26999882
v -30.38354404 -16.86424389 -3.26999882
v -31.93378448 -13.70386593 -3.26999882
v -33.15633908 -10.40286850 -3.26999882
v -34.03866664 -6.99512335 -3.26999882
v -34.57170725 -3.51559930 -3.26999882
v -34.74999964 0.00000000 -3.26999882
f 1 2 3
f 3 2 4
f 3 4 5
f 5 4 6
f 5 6 7
f 7 6 8
f 7 8 9
f 9 8 10
f 9 10 11
f 11 10 12
f 11 12 13
f 13 12 14
f 13 14 15
f 15 14 16
f 15 16 17
f 17 16 18
f 17 18 19
f 19 18 20
f 19 20 21
f 21 20 22
f 21 22 23
f 23 22 24
f 23 24 25
f 25 24 26
f 25 26 27
f 27 26 28
f 27 28 29
f 29 28 30
f 29 30 31
f 31 30 32
f 31 32 33
f 33 32 34
f 33 34 35
f 35 34 36
f 35 36 37
f 37 36 38
f 37 38 39
f 39 38 40
f 39 40 41
f 41 40 42
f 41 42 43
f 43 42 44
f 43 44 45
f 45 44 46
f 45 46 47
f 47 46 48
f 47 48 49
f 49 48 50
f 49 50 51
f 51 50 52
f 51 52 53
f 53 52 54
f 53 54 55
f 55 54 56
f 55 56 57
f 57 56 58
f 57 58 59
f 59 58 60
f 59 60 61
f 61 60 62
f 61 62 63
f 63 62 64
f 63 64 65
f 65 64 66
f 65 66 67
f 67 66 68
f 67 68 69
f 69 68 70
f 69 70 71
f 71 70 72
f 71 72 73
f 73 72 74
f 73 74 75
f 75 74 76
f 75 76 77
f 77 76 78
f 77 78 79
f 79 78 80
f 79 80 81
f 81 80 82
f 81 82 83
f 83 82 84
f 83 84 85
f 85 84 86
f 85 86 87
f 87 86 88
f 87 88 1
f 1 88 2
f 10 8 89
f 90 91 92
f 93 94 91
f 91 94 95
f 91 95 92
f 96 97 93
f 93 97 98
f 93 98 94
f 99 89 100
f 100 89 101
f 100 101 96
f 96 101 102
f 96 102 97
f 8 6 89
f 89 6 4
f 89 4 2
f 18 99 20
f 20 99 103
f 20 103 22
f 32 104 34
f 34 104 36
f 103 105 22
f 22 105 106
f 22 106 24
f 24 106 107
f 24 107 26
f 26 107 108
f 26 108 28
f 28 108 104
f 28 104 30
f 30 104 32
f 109 110 82
f 111 112 113
f 113 112 114
f 113 114 115
f 115 114 116
f 117 118 119
f 119 118 120
f 119 120 121
f 92 122 90
f 90 122 123
f 90 123 124
f 124 123 125
f 124 125 126
f 126 125 127
f 126 127 128
f 128 127 129
f 128 129 130
f 130 129 121
f 130 121 131
f 131 121 120
f 18 16 99
f 99 16 14
f 99 14 89
f 89 14 12
f 89 12 10
f 132 133 134
f 134 133 135
f 134 135 136
f 136 135 137
f 136 137 138
f 138 137 139
f 138 139 140
f 140 139 141
f 140 141 142
f 142 141 143
f 142 143 144
f 145 146 147
f 111 148 112
f 112 148 149
f 112 149 117
f 117 149 150
f 117 150 118
f 151 152 153
f 154 155 132
f 132 155 156
f 132 156 133
f 157 158 159
f 153 160 151
f 151 160 161
f 151 161 154
f 154 161 162
f 154 162 155
f 82 110 84
f 84 110 163
f 84 163 86
f 86 163 164
f 86 164 88
f 88 164 165
f 88 165 2
f 2 165 166
f 2 166 167
f 159 158 168
f 169 66 170
f 170 66 64
f 170 64 171
f 171 64 62
f 172 173 74
f 167 174 2
f 2 174 175
f 2 175 89
f 89 175 176
f 147 177 145
f 145 177 178
f 145 178 179
f 179 178 180
f 179 180 181
f 182 183 184
f 184 183 185
f 186 187 188
f 188 187 189
f 189 187 190
f 189 190 191
f 191 190 192
f 191 192 116
f 116 192 193
f 116 193 115
f 62 60 171
f 171 60 58
f 171 58 194
f 194 58 56
f 194 56 195
f 195 56 54
f 195 54 196
f 109 82 197
f 197 82 80
f 197 80 198
f 198 80 78
f 198 78 173
f 173 78 76
f 173 76 74
f 176 199 89
f 89 199 200
f 89 200 201
f 201 200 202
f 201 202 203
f 204 205 206
f 206 205 207
f 207 208 206
f 206 208 209
f 206 209 210
f 210 209 211
f 210 211 142
f 157 159 212
f 212 159 213
f 212 213 214
f 214 213 215
f 214 215 216
f 216 215 217
f 216 217 218
f 218 217 219
f 218 219 220
f 220 219 221
f 220 221 204
f 204 221 222
f 204 222 205
f 158 223 168
f 168 223 224
f 168 224 146
f 146 224 225
f 146 225 147
f 104 226 36
f 36 226 227
f 36 227 228
f 229 230 231
f 74 72 172
f 172 72 70
f 172 70 232
f 232 70 142
f 232 142 233
f 233 142 144
f 169 210 66
f 66 210 142
f 66 142 68
f 68 142 70
f 42 40 184
f 196 54 234
f 234 54 52
f 234 52 235
f 235 52 50
f 235 50 236
f 236 50 48
f 236 48 237
f 231 238 229
f 229 238 239
f 229 239 240
f 240 239 241
f 240 241 184
f 188 242 186
f 186 242 243
f 186 243 230
f 230 243 244
f 230 244 231
f 202 245 203
f 203 245 246
f 203 246 247
f 247 246 248
f 247 248 152
f 152 248 249
f 152 249 153
f 180 250 181
f 181 250 251
f 181 251 252
f 252 251 253
f 252 253 254
f 254 253 182
f 254 182 255
f 255 182 184
f 48 46 237
f 237 46 44
f 237 44 256
f 256 44 42
f 256 42 257
f 257 42 184
f 257 184 258
f 258 184 185
f 228 240 36
f 36 240 184
f 36 184 38
f 38 184 40
f 259 90 260
f 260 90 124
f 260 124 261
f 261 124 126
f 261 126 262
f 262 126 128
f 262 128 263
f 263 128 130
f 263 130 264
f 264 130 131
f 264 131 265
f 265 131 120
f 265 120 266
f 266 120 118
f 266 118 267
f 267 118 150
f 267 150 268
f 268 150 149
f 268 149 269
f 269 149 148
f 269 148 270
f 270 148 111
f 270 111 271
f 271 111 113
f 271 113 272
f 272 113 115
f 272 115 273
f 273 115 193
f 273 193 274
f 274 193 192
f 274 192 275
f 275 192 190
f 275 190 276
f 276 190 187
f 276 187 277
f 277 187 186
f 277 186 278
f 278 186 230
f 278 230 279
f 279 230 229
f 279 229 280
f 280 229 240
f 280 240 281
f 281 240 228
f 281 228 282
f 282 228 227
f 282 227 283
f 283 227 226
f 283 226 284
f 284 226 104
f 284 104 285
f 285 104 108
f 285 108 286
f 286 108 107
f 286 107 287
f 287 107 106
f 287 106 288
f 288 106 105
f 288 105 289
f 289 105 103
f 289 103 290
f 290 103 99
f 290 99 291
f 291 99 100
f 291 100 292
f 292 100 96
f 292 96 293
f 293 96 93
f 293 93 294
f 294 93 91
f 294 91 259
f 259 91 90
f 295 183 296
f 296 183 182
f 296 182 297
f 297 182 253
f 297 253 298
f 298 253 251
f 298 251 299
f 299 251 250
f 299 250 300
f 300 250 180
f 300 180 301
f 301 180 178
f 301 178 302
f 302 178 177
f 302 177 303
f 303 177 147
f 303 147 304
f 304 147 225
f 304 225 305
f 305 225 224
f 305 224 306
f 306 224 223
f 306 223 307
f 307 223 158
f 307 158 308
f 308 158 157
f 308 157 309
f 309 157 212
f 309 212 310
f 310 212 214
f 310 214 311
f 311 214 216
f 311 216 312
f 312 216 218
f 312 218 313
f 313 218 220
f 313 220 314
f 314 220 204
f 314 204 315
f 315 204 206
f 315 206 316
f 316 206 210
f 316 210 317
f 317 210 169
f 317 169 318
f 318 169 170
f 318 170 319
f 319 170 171
f 319 171 320
f 320 171 194
f 320 194 321
f 321 194 195
f 321 195 322
f 322 195 196
f 322 196 323
f 323 196 234
f 323 234 324
f 324 234 235
f 324 235 325
f 325 235 236
f 325 236 326
f 326 236 237
f 326 237 327
f 327 237 256
f 327 256 328
f 328 256 257
f 328 257 329
f 329 257 258
f 329 258 330
f 330 258 185
f 330 185 295
f 295 185 183
f 331 143 332
f 332 143 141
f 332 141 333
f 333 141 139
f 333 139 334
f 334 139 137
f 334 137 335
f 335 137 135
f 335 135 336
f 336 135 133
f 336 133 337
f 337 133 156
f 337 156 338
f 338 156 155
f 338 155 339
f 339 155 162
f 339 162 340
f 340 162 161
f 340 161 341
f 341 161 160
f 341 160 342
f 342 160 153
f 342 153 343
f 343 153 249
f 343 249 344
f 344 249 248
f 344 248 345
f 345 248 246
f 345 246 346
f 346 246 245
f 346 245 347
f 347 245 202
f 347 202 348
f 348 202 200
f 348 200 349
f 349 200 199
f 349 199 350
f 350 199 176
f 350 176 351
f 351 176 175
f 351 175 352
f 352 175 174
f 352 174 353
f 353 174 167
f 353 167 354
f 354 167 166
f 354 166 355
f 355 166 165
f 355 165 356
f 356 165 164
f 356 164 357
f 357 164 163
f 357 163 358
f 358 163 110
f 358 110 359
f 359 110 109
f 359 109 360
f 360 109 197
f 360 197 361
f 361 197 198
f 361 198 362
f 362 198 173
f 362 173 363
f 363 173 172
f 363 172 364
f 364 172 232
f 364 232 365
f 365 232 233
f 365 233 366
f 366 233 144
f 366 144 331
f 331 144 143
f 254 367 252
f 252 367 368
f 252 368 181
f 181 368 369
f 181 369 179
f 179 369 370
f 179 370 145
f 145 370 371
f 145 371 146
f 146 371 372
f 146 372 168
f 168 372 373
f 168 373 159
f 159 373 374
f 159 374 213
f 213 374 375
f 213 375 215
f 215 375 376
f 215 376 217
f 217 376 377
f 217 377 219
f 219 377 378
f 219 378 221
f 221 378 379
f 221 379 222
f 222 379 380
f 222 380 205
f 205 380 381
f 205 381 207
f 207 381 382
f 207 382 208
f 208 382 383
f 208 383 209
f 209 383 384
f 209 384 211
f 211 384 385
f 211 385 142
f 142 385 386
f 142 386 140
f 140 386 387
f 140 387 138
f 138 387 388
f 138 388 136
f 136 388 389
f 136 389 134
f 134 389 390
f 134 390 132
f 132 390 391
f 132 391 154
f 154 391 392
f 154 392 151
f 151 392 393
f 151 393 152
f 152 393 394
f 152 394 247
f 247 394 395
f 247 395 203
f 203 395 396
f 203 396 201
f 201 396 397
f 201 397 89
f 89 397 398
f 89 398 101
f 101 398 399
f 101 399 102
f 102 399 400
f 102 400 97
f 97 400 401
f 97 401 98
f 98 401 402
f 98 402 94
f 94 402 403
f 94 403 95
f 95 403 404
f 95 404 92
f 92 404 405
f 92 405 122
f 122 405 406
f 122 406 123
f 123 406 407
f 123 407 125
f 125 407 408
f 125 408 127
f 127 408 409
f 127 409 129
f 129 409 410
f 129 410 121
f 121 410 411
f 121 411 119
f 119 411 412
f 119 412 117
f 117 412 413
f 117 413 112
f 112 413 414
f 112 414 114
f 114 414 415
f 114 415 116
f 116 415 416
f 116 416 191
f 191 416 417
f 191 417 189
f 189 417 418
f 189 418 188
f 188 418 419
f 188 419 242
f 242 419 420
f 242 420 243
f 243 420 421
f 243 421 244
f 244 421 422
f 244 422 231
f 231 422 423
f 231 423 238
f 238 423 424
f 238 424 239
f 239 424 425
f 239 425 241
f 241 425 426
f 241 426 184
f 184 426 427
f 184 427 255
f 255 427 428
f 255 428 254
f 254 428 367
f 269 270 413
f 413 270 414
f 414 270 271
f 414 271 415
f 391 390 337
f 263 264 410
f 13 15 288
f 271 272 415
f 415 272 273
f 415 273 416
f 416 273 274
f 416 274 417
f 417 274 275
f 417 275 418
f 418 275 276
f 418 276 419
f 419 276 277
f 371 370 302
f 373 372 306
f 326 327 45
f 337 338 391
f 391 338 339
f 391 339 392
f 361 71 73
f 302 303 371
f 371 303 304
f 371 304 372
f 372 304 305
f 372 305 306
f 368 299 369
f 369 299 300
f 369 300 370
f 370 300 301
f 370 301 302
f 278 421 277
f 277 421 420
f 277 420 419
f 339 340 392
f 392 340 341
f 392 341 393
f 397 396 291
f 269 413 268
f 268 413 412
f 268 412 267
f 279 423 278
f 278 423 422
f 278 422 421
f 280 425 279
f 279 425 424
f 279 424 423
f 15 17 288
f 288 17 19
f 288 19 287
f 287 19 21
f 287 21 286
f 286 21 23
f 286 23 285
f 285 23 25
f 285 25 284
f 410 264 411
f 411 264 265
f 411 265 412
f 412 265 266
f 412 266 267
f 361 362 71
f 71 362 363
f 71 363 69
f 69 363 364
f 386 332 387
f 387 332 333
f 387 333 388
f 388 333 334
f 388 334 389
f 389 334 335
f 389 335 390
f 390 335 336
f 390 336 337
f 33 35 428
f 428 35 37
f 428 37 39
f 396 395 346
f 73 75 361
f 361 75 77
f 361 77 360
f 360 77 79
f 360 79 359
f 359 79 81
f 359 81 358
f 326 45 325
f 325 45 47
f 325 47 324
f 324 47 49
f 324 49 323
f 323 49 51
f 323 51 322
f 322 51 53
f 322 53 321
f 284 25 283
f 283 25 27
f 283 27 282
f 282 27 29
f 282 29 31
f 39 41 428
f 428 41 43
f 428 43 45
f 341 342 393
f 393 342 343
f 393 343 394
f 394 343 344
f 394 344 395
f 395 344 345
f 395 345 346
f 294 259 405
f 306 307 373
f 373 307 308
f 373 308 374
f 374 308 309
f 374 309 375
f 375 309 310
f 375 310 376
f 376 310 311
f 376 311 377
f 377 311 312
f 377 312 378
f 378 312 313
f 378 313 379
f 379 313 314
f 330 428 329
f 329 428 45
f 329 45 328
f 328 45 327
f 330 295 428
f 428 295 296
f 428 296 367
f 367 296 297
f 367 297 368
f 368 297 298
f 368 298 299
f 31 33 282
f 282 33 428
f 282 428 281
f 281 428 427
f 281 427 280
f 280 427 426
f 280 426 425
f 292 293 401
f 383 315 384
f 384 315 316
f 384 316 385
f 346 347 396
f 396 347 348
f 396 348 349
f 13 288 11
f 11 288 289
f 11 289 290
f 351 352 5
f 5 352 353
f 5 353 3
f 3 353 354
f 401 400 292
f 292 400 399
f 292 399 291
f 291 399 398
f 291 398 397
f 405 404 294
f 294 404 403
f 294 403 293
f 293 403 402
f 293 402 401
f 263 410 262
f 262 410 409
f 262 409 261
f 261 409 408
f 261 408 260
f 260 408 407
f 260 407 259
f 259 407 406
f 259 406 405
f 383 382 315
f 315 382 381
f 315 381 314
f 314 381 380
f 314 380 379
f 358 81 357
f 357 81 83
f 357 83 356
f 356 83 85
f 356 85 355
f 355 85 87
f 355 87 354
f 354 87 1
f 354 1 3
f 321 53 320
f 320 53 55
f 320 55 319
f 319 55 57
f 319 57 318
f 5 7 351
f 351 7 396
f 351 396 350
f 350 396 349
f 290 291 11
f 11 291 396
f 11 396 9
f 9 396 7
f 65 67 386
f 386 67 69
f 364 365 69
f 69 365 366
f 69 366 386
f 386 366 331
f 386 331 332
f 385 316 386
f 386 316 317
f 386 317 318
f 57 59 318
f 318 59 61
f 318 61 386
f 386 61 63
f 386 63 65

